<svg width="575" height="575" viewBox="0 0 575 575" fill="none" xmlns="http://www.w3.org/2000/svg">
<path d="M575 439.76H0V440.047H575V439.76Z" fill="#EBEBEB"/>
<path d="M517.385 458.263H479.297V458.551H517.385V458.263Z" fill="#EBEBEB"/>
<path d="M380.903 461.391H370.91V461.679H380.903V461.391Z" fill="#EBEBEB"/>
<path d="M478.147 447.591H456.079V447.879H478.147V447.591Z" fill="#EBEBEB"/>
<path d="M109.998 449.524H60.3291V449.811H109.998V449.524Z" fill="#EBEBEB"/>
<path d="M127.524 449.524H120.244V449.811H127.524V449.524Z" fill="#EBEBEB"/>
<path d="M258.922 454.376H151.19V454.664H258.922V454.376Z" fill="#EBEBEB"/>
<path d="M272.55 388.47H50.4964C48.7569 388.467 47.0896 387.774 45.8606 386.543C44.6317 385.312 43.9414 383.643 43.9414 381.904V69.759C43.9565 68.0294 44.6535 66.3757 45.8808 65.157C47.1082 63.9382 48.7668 63.253 50.4964 63.25H272.55C274.291 63.25 275.962 63.9418 277.193 65.1733C278.425 66.4047 279.116 68.075 279.116 69.8165V381.904C279.116 383.645 278.425 385.315 277.193 386.547C275.962 387.778 274.291 388.47 272.55 388.47ZM50.4964 63.48C48.8331 63.483 47.239 64.1459 46.0639 65.3231C44.8889 66.5003 44.2289 68.0957 44.2289 69.759V381.904C44.2289 383.567 44.8889 385.162 46.0639 386.339C47.239 387.517 48.8331 388.179 50.4964 388.182H272.55C274.214 388.179 275.81 387.517 276.986 386.34C278.163 385.163 278.826 383.568 278.829 381.904V69.759C278.826 68.0946 278.163 66.4993 276.986 65.3224C275.81 64.1456 274.214 63.483 272.55 63.48H50.4964Z" fill="#EBEBEB"/>
<path d="M521.306 388.47H299.241C297.501 388.467 295.832 387.774 294.601 386.543C293.371 385.313 292.678 383.644 292.675 381.904V69.759C292.693 68.0284 293.392 66.3746 294.622 65.1562C295.851 63.9378 297.511 63.2529 299.241 63.25H521.306C523.034 63.256 524.69 63.9426 525.915 65.161C527.139 66.3794 527.835 68.0314 527.85 69.759V381.904C527.85 383.641 527.161 385.308 525.935 386.539C524.708 387.769 523.044 388.464 521.306 388.47ZM299.241 63.48C297.577 63.483 295.982 64.1456 294.805 65.3224C293.628 66.4993 292.965 68.0946 292.962 69.759V381.904C292.965 383.568 293.628 385.163 294.805 386.34C295.982 387.517 297.577 388.179 299.241 388.182H521.306C522.971 388.179 524.566 387.517 525.743 386.34C526.92 385.163 527.582 383.568 527.585 381.904V69.759C527.582 68.0946 526.92 66.4993 525.743 65.3224C524.566 64.1456 522.971 63.483 521.306 63.48H299.241Z" fill="#EBEBEB"/>
<path d="M251.172 256.001H474.271V83.0875L251.172 83.0875L251.172 256.001Z" fill="#E6E6E6"/>
<path d="M246.526 256.001H469.625V83.0875L246.526 83.0875L246.526 256.001Z" fill="#F5F5F5"/>
<path d="M235.773 266.007L474.283 266.007V256.001H235.773V266.007Z" fill="#E6E6E6"/>
<path d="M230.529 266.007H458.758V256.001H230.529V266.007Z" fill="#F5F5F5"/>
<path d="M461.299 246.997V92.069L254.874 92.069V246.997H461.299Z" fill="#FAFAFA"/>
<path d="M331.557 246.997L389.367 92.069H330.418L272.619 246.997H331.557Z" fill="white"/>
<path d="M374.176 246.997L431.975 92.069H399.499L341.7 246.997H374.176Z" fill="white"/>
<path d="M362.733 246.997V92.069H353.441V246.997H362.733Z" fill="#F5F5F5"/>
<path d="M258.371 246.997V92.069H254.863V246.997H258.371Z" fill="#E6E6E6"/>
<path d="M366.229 246.997V92.069H362.722V246.997H366.229Z" fill="#E6E6E6"/>
<path d="M103.776 262.591H191.096L191.096 83.0875H103.776L103.776 262.591Z" fill="#E6E6E6"/>
<path d="M91.4479 262.591H187.818L187.818 83.0875H91.4479L91.4479 262.591Z" fill="#F0F0F0"/>
<path d="M172.201 246.974V98.7045H107.065L107.065 246.974H172.201Z" fill="white"/>
<path d="M157.079 206.31V139.357C157.079 135.921 154.293 133.135 150.857 133.135H128.421C124.985 133.135 122.199 135.921 122.199 139.357V206.31C122.199 209.746 124.985 212.532 128.421 212.532H150.857C154.293 212.532 157.079 209.746 157.079 206.31Z" fill="#F5F5F5"/>
<path d="M92.3219 297.724H84.9274C77.3059 297.724 71.1274 303.902 71.1274 311.524V406.329C71.1274 413.951 77.3059 420.129 84.9274 420.129H92.3219C99.9435 420.129 106.122 413.951 106.122 406.329V311.524C106.122 303.902 99.9435 297.724 92.3219 297.724Z" fill="#F5F5F5"/>
<path d="M99.7972 301.806H97.5087C91.6084 301.806 86.8252 306.589 86.8252 312.489V405.352C86.8252 411.252 91.6084 416.035 97.5087 416.035H99.7972C105.698 416.035 110.481 411.252 110.481 405.352V312.489C110.481 306.589 105.698 301.806 99.7972 301.806Z" fill="#EBEBEB"/>
<path d="M117.749 297.724H110.354C102.733 297.724 96.5542 303.902 96.5542 311.524V406.329C96.5542 413.951 102.733 420.129 110.354 420.129H117.749C125.37 420.129 131.549 413.951 131.549 406.329V311.524C131.549 303.902 125.37 297.724 117.749 297.724Z" fill="#F5F5F5"/>
<path d="M125.212 301.806H122.923C117.023 301.806 112.24 306.589 112.24 312.489V405.352C112.24 411.252 117.023 416.035 122.923 416.035H125.212C131.112 416.035 135.895 411.252 135.895 405.352V312.489C135.895 306.589 131.112 301.806 125.212 301.806Z" fill="#EBEBEB"/>
<path d="M143.163 297.724H135.769C128.147 297.724 121.969 303.902 121.969 311.524V406.329C121.969 413.951 128.147 420.129 135.769 420.129H143.163C150.785 420.129 156.963 413.951 156.963 406.329V311.524C156.963 303.902 150.785 297.724 143.163 297.724Z" fill="#F5F5F5"/>
<path d="M150.627 301.806H148.338C142.438 301.806 137.655 306.589 137.655 312.489V405.352C137.655 411.252 142.438 416.035 148.338 416.035H150.627C156.527 416.035 161.31 411.252 161.31 405.352V312.489C161.31 306.589 156.527 301.806 150.627 301.806Z" fill="#EBEBEB"/>
<path d="M168.578 297.724H161.184C153.562 297.724 147.384 303.902 147.384 311.524V406.329C147.384 413.951 153.562 420.129 161.184 420.129H168.578C176.2 420.129 182.378 413.951 182.378 406.329V311.524C182.378 303.902 176.2 297.724 168.578 297.724Z" fill="#F5F5F5"/>
<path d="M176.042 301.806H173.753C167.853 301.806 163.07 306.589 163.07 312.489V405.352C163.07 411.252 167.853 416.035 173.753 416.035H176.042C181.942 416.035 186.725 411.252 186.725 405.352V312.489C186.725 306.589 181.942 301.806 176.042 301.806Z" fill="#EBEBEB"/>
<path d="M193.993 297.724H186.599C178.977 297.724 172.799 303.902 172.799 311.524V406.329C172.799 413.951 178.977 420.129 186.599 420.129H193.993C201.615 420.129 207.793 413.951 207.793 406.329V311.524C207.793 303.902 201.615 297.724 193.993 297.724Z" fill="#F5F5F5"/>
<path d="M201.457 301.806H199.18C193.28 301.806 188.497 306.589 188.497 312.489V405.352C188.497 411.252 193.28 416.035 199.18 416.035H201.457C207.357 416.035 212.141 411.252 212.141 405.352V312.489C212.141 306.589 207.357 301.806 201.457 301.806Z" fill="#EBEBEB"/>
<path d="M219.42 297.724H212.026C204.404 297.724 198.226 303.902 198.226 311.524V406.329C198.226 413.951 204.404 420.129 212.026 420.129H219.42C227.042 420.129 233.22 413.951 233.22 406.329V311.524C233.22 303.902 227.042 297.724 219.42 297.724Z" fill="#F5F5F5"/>
<path d="M226.872 301.806H224.595C218.695 301.806 213.912 306.589 213.912 312.489V405.352C213.912 411.252 218.695 416.035 224.595 416.035H226.872C232.772 416.035 237.556 411.252 237.556 405.352V312.489C237.556 306.589 232.772 301.806 226.872 301.806Z" fill="#EBEBEB"/>
<path d="M244.835 297.724H237.441C229.819 297.724 223.641 303.902 223.641 311.524V406.329C223.641 413.951 229.819 420.129 237.441 420.129H244.835C252.457 420.129 258.635 413.951 258.635 406.329V311.524C258.635 303.902 252.457 297.724 244.835 297.724Z" fill="#F5F5F5"/>
<path d="M260.981 406.525H230.529C229.919 406.525 229.334 406.283 228.903 405.851C228.471 405.42 228.229 404.835 228.229 404.225C228.229 403.615 228.471 403.03 228.903 402.599C229.334 402.167 229.919 401.925 230.529 401.925H260.981C261.591 401.925 262.176 402.167 262.607 402.599C263.039 403.03 263.281 403.615 263.281 404.225C263.281 404.835 263.039 405.42 262.607 405.851C262.176 406.283 261.591 406.525 260.981 406.525Z" fill="#F5F5F5"/>
<path d="M260.981 318.929H230.529C229.919 318.929 229.334 318.687 228.903 318.256C228.471 317.824 228.229 317.239 228.229 316.629C228.229 316.019 228.471 315.434 228.903 315.003C229.334 314.572 229.919 314.329 230.529 314.329H260.981C261.591 314.329 262.176 314.572 262.607 315.003C263.039 315.434 263.281 316.019 263.281 316.629C263.281 317.239 263.039 317.824 262.607 318.256C262.176 318.687 261.591 318.929 260.981 318.929Z" fill="#F5F5F5"/>
<path d="M344.218 341.619H429.444C431.648 341.619 433.761 340.745 435.32 339.188C436.879 337.631 437.756 335.519 437.759 333.316C437.756 331.113 436.879 329.001 435.32 327.444C433.761 325.887 431.648 325.013 429.444 325.013H344.218C342.016 325.013 339.904 325.888 338.347 327.445C336.79 329.002 335.915 331.114 335.915 333.316C335.915 334.406 336.13 335.486 336.547 336.493C336.964 337.501 337.576 338.416 338.347 339.187C339.118 339.958 340.033 340.57 341.041 340.987C342.048 341.404 343.128 341.619 344.218 341.619Z" fill="#EBEBEB"/>
<path d="M388.7 296.792C385.556 296.131 382.802 294.25 381.043 291.562C379.284 288.874 378.663 285.597 379.316 282.451L391.414 224.583C391.738 223.025 392.367 221.546 393.263 220.231C394.16 218.916 395.307 217.79 396.639 216.918C397.971 216.047 399.461 215.446 401.026 215.151C402.59 214.856 404.197 214.873 405.755 215.199C407.314 215.523 408.794 216.15 410.111 217.046C411.427 217.942 412.554 219.089 413.427 220.421C414.3 221.753 414.901 223.244 415.197 224.809C415.493 226.374 415.477 227.981 415.15 229.54L403.064 287.408C402.738 288.968 402.108 290.448 401.21 291.765C400.311 293.081 399.162 294.207 397.828 295.079C396.494 295.95 395.001 296.55 393.435 296.844C391.868 297.138 390.259 297.12 388.7 296.792Z" fill="#E0E0E0"/>
<path d="M381.386 295.55C380.04 295.756 378.667 295.694 377.345 295.368C376.023 295.042 374.779 294.459 373.683 293.651C372.587 292.844 371.661 291.828 370.958 290.662C370.255 289.496 369.789 288.202 369.587 286.856L362.032 236.854C361.828 235.509 361.891 234.137 362.217 232.817C362.544 231.496 363.128 230.253 363.935 229.158C364.743 228.063 365.758 227.138 366.923 226.436C368.088 225.734 369.38 225.269 370.726 225.067C372.071 224.861 373.445 224.923 374.767 225.248C376.088 225.574 377.333 226.158 378.429 226.965C379.525 227.773 380.451 228.789 381.154 229.955C381.857 231.121 382.322 232.414 382.525 233.761L390.08 283.751C390.286 285.097 390.224 286.47 389.898 287.792C389.572 289.114 388.989 290.358 388.181 291.454C387.374 292.55 386.358 293.476 385.192 294.179C384.026 294.882 382.733 295.348 381.386 295.55Z" fill="#E0E0E0"/>
<path d="M396.094 239.925C395.265 240.287 394.327 240.309 393.482 239.987C392.636 239.664 391.951 239.022 391.575 238.2L384.767 222.996C384.407 222.17 384.385 221.236 384.705 220.393C385.025 219.551 385.663 218.867 386.48 218.488C387.309 218.126 388.248 218.103 389.093 218.426C389.938 218.749 390.623 219.391 391 220.213L397.808 235.417C398.168 236.243 398.19 237.177 397.87 238.02C397.549 238.862 396.912 239.546 396.094 239.925Z" fill="#E0E0E0"/>
<path d="M416.691 241.385C417.258 242.087 417.528 242.984 417.442 243.882C417.356 244.781 416.921 245.61 416.231 246.192L403.362 256.783C402.659 257.35 401.761 257.617 400.862 257.529C399.964 257.441 399.135 257.004 398.555 256.312C397.989 255.608 397.721 254.711 397.809 253.812C397.898 252.913 398.335 252.085 399.027 251.505L411.884 240.925C412.586 240.357 413.482 240.088 414.381 240.174C415.28 240.26 416.109 240.695 416.691 241.385Z" fill="#E0E0E0"/>
<path d="M379.799 223.1C380.271 223.311 380.641 223.7 380.828 224.183C381.015 224.665 381.005 225.201 380.799 225.676L376.97 234.381C376.758 234.854 376.369 235.223 375.887 235.411C375.405 235.598 374.869 235.588 374.394 235.382C373.922 235.17 373.552 234.782 373.365 234.299C373.178 233.817 373.188 233.281 373.393 232.806L377.223 224.1C377.434 223.628 377.823 223.259 378.305 223.071C378.788 222.884 379.324 222.894 379.799 223.1Z" fill="#E0E0E0"/>
<path d="M359.306 240.637C359.683 240.283 360.185 240.092 360.703 240.107C361.22 240.122 361.71 240.342 362.066 240.718L368.598 247.618C368.953 247.995 369.143 248.497 369.128 249.015C369.113 249.532 368.893 250.022 368.517 250.378C368.14 250.733 367.638 250.923 367.121 250.908C366.603 250.893 366.113 250.674 365.757 250.297L359.225 243.397C358.871 243.02 358.68 242.518 358.695 242.001C358.71 241.483 358.93 240.993 359.306 240.637Z" fill="#E0E0E0"/>
<path d="M409.354 325.013H364.32L354.924 280.6H418.749L409.354 325.013Z" fill="#E6E6E6"/>
<path d="M414.518 288.259H359.157C357.125 288.259 355.177 287.452 353.741 286.016C352.305 284.579 351.498 282.631 351.498 280.6C351.501 278.571 352.309 276.626 353.745 275.192C355.181 273.758 357.127 272.953 359.157 272.953H414.518C416.547 272.953 418.493 273.758 419.929 275.192C421.365 276.626 422.173 278.571 422.177 280.6C422.177 282.631 421.37 284.579 419.933 286.016C418.497 287.452 416.549 288.259 414.518 288.259Z" fill="#F5F5F5"/>
<path d="M334.086 439.76L352.808 341.619H368.483L340.032 439.76H334.086Z" fill="#E0E0E0"/>
<path d="M439.587 439.76L420.877 341.619H405.191L433.642 439.76H439.587Z" fill="#E0E0E0"/>
<path d="M405.191 439.76L391.587 341.619H375.912L399.246 439.76H405.191Z" fill="#E0E0E0"/>
<path d="M287.5 491.694C410.645 491.694 510.473 485.866 510.473 478.676C510.473 471.486 410.645 465.658 287.5 465.658C164.355 465.658 64.5264 471.486 64.5264 478.676C64.5264 485.866 164.355 491.694 287.5 491.694Z" fill="#F5F5F5"/>
<path d="M159.149 379.88H106.548C105.633 379.88 104.755 379.516 104.108 378.869C103.461 378.222 103.098 377.345 103.098 376.43C103.098 375.515 103.461 374.637 104.108 373.99C104.755 373.343 105.633 372.98 106.548 372.98H159.149C160.064 372.98 160.941 373.343 161.588 373.99C162.235 374.637 162.599 375.515 162.599 376.43C162.599 377.345 162.235 378.222 161.588 378.869C160.941 379.516 160.064 379.88 159.149 379.88Z" fill="#082845"/>
<path opacity="0.8" d="M159.149 379.88H106.548C105.633 379.88 104.755 379.516 104.108 378.869C103.461 378.222 103.098 377.345 103.098 376.43C103.098 375.515 103.461 374.637 104.108 373.99C104.755 373.343 105.633 372.98 106.548 372.98H159.149C160.064 372.98 160.941 373.343 161.588 373.99C162.235 374.637 162.599 375.515 162.599 376.43C162.599 377.345 162.235 378.222 161.588 378.869C160.941 379.516 160.064 379.88 159.149 379.88Z" fill="white"/>
<path d="M206.517 468.648L214.268 465.095L210.531 445.084L202.791 448.649L206.517 468.648Z" fill="#7F3E3B"/>
<path d="M213.9 462.967L205.195 466.958C205.045 467.019 204.927 467.137 204.864 467.285C204.801 467.434 204.801 467.602 204.861 467.751L207.598 474.835C207.764 475.197 208.065 475.48 208.438 475.622C208.81 475.764 209.223 475.754 209.588 475.594C212.601 474.145 213.958 473.294 217.787 471.546C220.145 470.465 230.276 466.118 233.519 464.646C236.762 463.174 235.21 459.977 233.692 460.322C226.918 461.852 218.431 463.565 215.453 462.852C214.937 462.714 214.39 462.755 213.9 462.967Z" fill="#263238"/>
<path opacity="0.2" d="M202.78 448.65L210.531 445.096L212.463 455.412L204.7 458.965L202.78 448.65Z" fill="black"/>
<path d="M151.869 339.975C151.869 339.975 218.201 344.724 215.522 369.024C211.681 403.949 214.843 448.132 214.843 448.132L200.399 454.089C200.399 454.089 187.749 404.857 191.119 377.637C174.57 370.737 129.697 377.35 124.419 363.055C121.838 355.648 121.158 347.712 122.441 339.975H151.869Z" fill="#263238"/>
<path opacity="0.3" d="M184.184 360.203C184.184 360.203 182.574 367.425 181.47 375.268H181.62L183.322 375.533L184.184 375.694L185.162 375.878C186.494 376.141 187.811 376.479 189.106 376.89C189.417 376.982 189.704 377.085 189.992 377.189C190.279 377.292 190.762 377.465 191.142 377.614C190.743 380.969 190.548 384.344 190.555 387.723C200.618 372.945 191.97 360.203 184.184 360.203Z" fill="black"/>
<path d="M199.1 458.839L217.787 450.26L216.58 443.383L197.363 450.409L199.1 458.839Z" fill="#082845"/>
<path d="M217.35 463.059C216.643 463.356 215.907 463.58 215.154 463.726C215.117 463.734 215.078 463.731 215.043 463.717C215.008 463.702 214.979 463.678 214.958 463.646C214.936 463.613 214.925 463.575 214.925 463.536C214.925 463.497 214.936 463.459 214.958 463.427C215.119 463.14 216.626 460.644 217.741 460.575C217.869 460.566 217.997 460.591 218.112 460.647C218.228 460.704 218.326 460.79 218.397 460.897C218.529 461.04 218.62 461.216 218.66 461.406C218.701 461.596 218.689 461.794 218.627 461.978C218.352 462.486 217.896 462.872 217.35 463.059ZM215.533 463.232C217.04 462.875 218.04 462.369 218.236 461.84C218.277 461.72 218.284 461.59 218.256 461.466C218.227 461.342 218.165 461.229 218.075 461.139C218.042 461.084 217.994 461.039 217.937 461.011C217.88 460.982 217.816 460.971 217.753 460.978C217.12 461.012 216.131 462.3 215.499 463.232H215.533Z" fill="#082845"/>
<path d="M215.165 463.715H215.05C215.016 463.717 214.981 463.708 214.952 463.689C214.923 463.671 214.901 463.643 214.889 463.611C214.889 463.531 213.635 461.38 214.072 460.265C214.124 460.121 214.209 459.991 214.322 459.887C214.434 459.783 214.569 459.707 214.716 459.667C214.873 459.599 215.048 459.586 215.213 459.63C215.377 459.674 215.523 459.772 215.625 459.908C216.188 460.667 215.786 462.818 215.222 463.634L215.165 463.715ZM214.774 460.081C214.701 460.113 214.636 460.161 214.582 460.22C214.529 460.28 214.488 460.35 214.463 460.426C214.377 461.366 214.594 462.309 215.084 463.117C215.545 462.2 215.632 461.14 215.326 460.161C215.257 460.058 215.142 459.966 214.866 460.046L214.774 460.081Z" fill="#082845"/>
<path d="M155.101 270.837L163.151 294.182C164.519 298.069 165.876 301.944 167.279 305.774C168.682 309.603 170.12 313.421 171.661 317.055L171.281 316.365C170.895 315.807 170.378 315.353 169.775 315.043C169.069 314.669 168.271 314.506 167.475 314.571C166.428 314.709 166.463 314.928 166.578 314.847C167.246 314.528 167.859 314.105 168.395 313.594C169.994 312.167 171.511 310.65 172.937 309.051C174.467 307.384 175.973 305.601 177.537 303.865L182.068 298.529L187.565 301.818C186.611 304.118 185.53 306.28 184.426 308.476C183.322 310.673 182.126 312.789 180.757 314.916C179.386 317.134 177.849 319.245 176.157 321.23C175.086 322.476 173.856 323.578 172.5 324.507C171.256 325.368 169.81 325.891 168.303 326.025C166.921 326.137 165.536 325.849 164.312 325.197C163.184 324.594 162.227 323.716 161.529 322.644L161.391 322.437L161.15 321.966C159.218 318.056 157.516 314.192 155.883 310.282C154.25 306.372 152.697 302.496 151.214 298.575C149.73 294.653 148.281 290.732 146.901 286.787C145.521 282.843 144.164 278.898 142.911 274.873L155.101 270.837Z" fill="#803E3C"/>
<path d="M156.549 272.102C163.449 280.06 168.049 291.192 168.049 291.192L149.925 302.105C144.693 295.734 138.172 278.852 137.896 273.16C137.494 264.408 149.074 263.534 156.549 272.102Z" fill="#082845"/>
<path opacity="0.3" d="M150.156 280.221C154.112 283.544 156.918 290.456 158.206 297.16L149.995 302.105C147.407 298.954 144.498 293.239 142.186 287.558C143.98 281.923 146.66 277.277 150.156 280.221Z" fill="black"/>
<path d="M152.72 467.981H161.253L165.152 448.247H156.63L152.72 467.981Z" fill="#7F3E3B"/>
<path d="M161.517 465.911H151.938C151.858 465.908 151.778 465.921 151.703 465.949C151.628 465.976 151.559 466.019 151.5 466.073C151.441 466.128 151.394 466.193 151.361 466.266C151.327 466.339 151.308 466.418 151.305 466.498L150.834 474.076C150.834 474.475 150.991 474.857 151.27 475.141C151.55 475.425 151.93 475.588 152.329 475.594C155.664 475.537 157.262 475.341 161.471 475.341C164.059 475.341 172.856 475.606 176.421 475.606C179.986 475.606 179.871 472.064 178.376 471.742C171.58 470.304 165.381 468.292 162.966 466.44C162.559 466.102 162.047 465.915 161.517 465.911Z" fill="#263238"/>
<path opacity="0.2" d="M156.63 448.247H165.151L163.139 458.425H154.606L156.63 448.247Z" fill="black"/>
<path d="M135.16 339.975C135.16 339.975 191.372 344.724 189.992 369.127C188.474 395.853 166.842 455.963 166.842 455.963H151.225C151.225 455.963 158.286 401.58 161.702 374.371C145.866 374.371 112.988 377.35 107.721 363.055C105.16 355.643 104.499 347.708 105.8 339.975H135.16Z" fill="#263238"/>
<path d="M149.546 455.963H170.108L171.281 447.856L149.822 448.822L149.546 455.963Z" fill="#082845"/>
<path d="M164.531 467.394C163.755 467.377 162.984 467.277 162.231 467.096C162.192 467.088 162.157 467.07 162.129 467.042C162.102 467.014 162.083 466.979 162.075 466.941C162.068 466.902 162.072 466.863 162.088 466.827C162.103 466.791 162.129 466.76 162.162 466.739C162.438 466.544 164.841 464.899 165.888 465.302C166.005 465.35 166.108 465.427 166.188 465.526C166.268 465.624 166.323 465.741 166.348 465.865C166.402 466.051 166.408 466.248 166.366 466.437C166.323 466.625 166.234 466.801 166.106 466.946C165.654 467.284 165.093 467.443 164.531 467.394ZM162.806 466.808C164.335 467.107 165.462 467.061 165.853 466.67C165.94 466.576 165.999 466.46 166.026 466.334C166.052 466.209 166.044 466.078 166.003 465.957C165.993 465.894 165.967 465.835 165.926 465.787C165.886 465.738 165.833 465.701 165.773 465.681C165.221 465.463 163.795 466.176 162.806 466.808Z" fill="#082845"/>
<path d="M162.311 467.096C162.282 467.107 162.249 467.107 162.219 467.096C162.189 467.074 162.167 467.043 162.155 467.008C162.142 466.974 162.141 466.936 162.15 466.9C162.15 466.797 161.943 464.347 162.806 463.519C162.916 463.413 163.049 463.334 163.194 463.286C163.339 463.238 163.494 463.223 163.645 463.243C163.815 463.249 163.978 463.311 164.109 463.419C164.24 463.527 164.332 463.675 164.37 463.841C164.565 464.773 163.289 466.555 162.449 467.061L162.311 467.096ZM163.461 463.646C163.302 463.645 163.15 463.707 163.036 463.818C162.562 464.635 162.365 465.583 162.472 466.521C163.22 465.9 164.059 464.543 163.933 463.933C163.933 463.818 163.841 463.68 163.553 463.646H163.461Z" fill="#082845"/>
<path d="M180.792 301.426L183.436 291.973L191.958 297.597C191.958 297.597 187.358 305.785 184.471 305.118L180.792 301.426Z" fill="#7F3E3B"/>
<path d="M191.337 288.133L195.788 293.25L191.958 297.597L183.437 291.962L191.337 288.133Z" fill="#7F3E3B"/>
<path d="M151.8 340.4H106.214C105.892 336.329 106.835 323.081 106.134 306.211C105.7 293.706 104.184 281.262 101.603 269.02C101.396 268.1 101.189 267.191 100.97 266.271C100.97 266.271 103.27 265.8 106.594 265.317C109.342 264.914 112.792 264.5 116.173 264.339C122.627 263.971 129.097 263.971 135.551 264.339C138.529 264.615 141.439 265.11 143.762 265.558C146.729 266.156 148.477 266.708 148.477 266.708C148.477 266.708 159.712 292.468 151.8 340.4Z" fill="#082845"/>
<path opacity="0.3" d="M106.134 306.222C105.7 293.717 104.184 281.274 101.603 269.031C104.65 268.767 109.86 269.031 110.722 273.988C111.654 279.278 110.481 291.721 106.134 306.222Z" fill="black"/>
<path d="M109.814 277.53C108.813 280.37 107.732 283.429 106.778 286.408C105.823 289.386 104.88 292.422 104.029 295.435C102.26 301.258 101.013 307.227 100.303 313.272L100.223 314.329V314.859C100.223 314.974 100.223 315.388 100.223 315.066C100.137 314.407 99.884 313.781 99.4865 313.249C99.012 312.578 98.3347 312.078 97.5545 311.823C97.1175 311.708 97.0025 311.742 96.991 311.754C97.1116 311.786 97.2385 311.786 97.359 311.754C97.8986 311.72 98.4338 311.635 98.9575 311.501C101.798 310.728 104.574 309.736 107.261 308.534C113.011 306.073 118.841 303.221 124.591 300.392L128.11 305.728C122.935 310.033 117.437 313.936 111.665 317.4C108.614 319.272 105.391 320.847 102.04 322.104C101.009 322.466 99.9515 322.746 98.877 322.943C98.1978 323.071 97.5094 323.144 96.8185 323.162C95.8093 323.18 94.8036 323.037 93.84 322.736C92.2729 322.25 90.9079 321.264 89.953 319.93C89.1018 318.703 88.6153 317.259 88.55 315.767C88.5328 315.434 88.5328 315.1 88.55 314.767V312.685C88.6411 309.153 88.9908 305.632 89.5965 302.151C90.1485 298.701 90.8615 295.412 91.6895 292.135C92.5175 288.857 93.4145 285.614 94.4495 282.417C95.4845 279.22 96.5195 276.104 97.8305 272.861L109.814 277.53Z" fill="#803E3C"/>
<path d="M100.97 266.283C109.273 263.661 114.586 270.296 112.286 281.808C110.72 289.162 108.061 296.24 104.397 302.807L87.6187 294.849C89.2172 283.567 92.4717 268.962 100.97 266.283Z" fill="#082845"/>
<path d="M116.587 242.65L121.774 246.951L128.835 252.816C128.625 253.756 128.476 254.709 128.386 255.668C128.007 259.498 128.996 262.982 134.631 264.316C134.631 264.316 140.174 269.491 129.088 269.652C118.002 269.813 115.426 264.431 115.426 264.431C119.6 260.234 118.025 248.86 116.587 242.65Z" fill="#7F3E3B"/>
<path opacity="0.2" d="M128.8 252.782C128.591 253.722 128.441 254.674 128.352 255.634C125.718 255.105 122.199 252.299 121.831 249.608C121.702 248.717 121.671 247.814 121.739 246.917L128.8 252.782Z" fill="black"/>
<path d="M137.057 236.153C139.093 231.553 137.816 224.894 134.366 222.422C133.612 221.858 132.715 221.518 131.777 221.438C130.839 221.359 129.897 221.544 129.059 221.973C128.221 222.402 127.52 223.057 127.035 223.864C126.55 224.671 126.301 225.597 126.316 226.539C126.132 232.197 134.734 241.385 137.057 236.153Z" fill="#263238"/>
<path d="M114.448 233.634C116.253 241.926 116.886 246.848 121.785 250.631C123.363 251.876 125.251 252.666 127.245 252.916C129.239 253.166 131.263 252.867 133.099 252.05C134.936 251.233 136.514 249.93 137.663 248.281C138.813 246.633 139.49 244.701 139.621 242.696C140.265 234.979 137.218 222.709 128.49 220.363C126.614 219.807 124.624 219.753 122.721 220.208C120.818 220.663 119.068 221.61 117.646 222.954C116.224 224.298 115.18 225.992 114.619 227.866C114.057 229.741 113.999 231.73 114.448 233.634Z" fill="#7F3E3B"/>
<path d="M117.967 240.097C120.601 235.796 120.187 229.034 117.105 226.136C116.431 225.466 115.582 224.999 114.655 224.79C113.728 224.581 112.761 224.637 111.865 224.953C110.969 225.269 110.18 225.832 109.59 226.576C108.999 227.32 108.63 228.216 108.526 229.161C107.652 234.761 115 244.95 117.967 240.097Z" fill="#263238"/>
<path d="M119.29 229.836C121.177 228.854 121.912 226.528 120.93 224.641C119.948 222.753 117.622 222.019 115.734 223C113.847 223.982 113.112 226.308 114.094 228.196C115.076 230.084 117.402 230.818 119.29 229.836Z" fill="#263238"/>
<path d="M117.921 224.848C117.722 225.504 117.332 226.086 116.8 226.52C116.268 226.953 115.62 227.219 114.937 227.281C114.254 227.344 113.567 227.202 112.966 226.874C112.364 226.545 111.873 226.044 111.558 225.435C111.242 224.826 111.114 224.137 111.192 223.455C111.27 222.774 111.549 222.131 111.994 221.609C112.438 221.087 113.029 220.709 113.689 220.524C114.35 220.339 115.05 220.355 115.702 220.57C116.557 220.852 117.268 221.458 117.682 222.257C118.097 223.057 118.183 223.986 117.921 224.848Z" fill="#263238"/>
<path d="M123.706 224.25C123.502 224.903 123.11 225.48 122.578 225.909C122.046 226.338 121.398 226.599 120.718 226.66C120.037 226.72 119.353 226.577 118.754 226.249C118.155 225.921 117.666 225.422 117.351 224.815C117.036 224.209 116.908 223.522 116.983 222.843C117.058 222.164 117.334 221.522 117.774 221C118.215 220.477 118.801 220.097 119.457 219.908C120.114 219.719 120.812 219.729 121.463 219.938C122.33 220.215 123.053 220.824 123.473 221.632C123.893 222.44 123.977 223.381 123.706 224.25Z" fill="#263238"/>
<path d="M116.875 220.467C116.607 221.32 116.093 222.076 115.396 222.637C114.699 223.197 113.851 223.539 112.96 223.618C112.069 223.696 111.174 223.509 110.389 223.079C109.605 222.649 108.966 221.996 108.553 221.202C108.14 220.408 107.972 219.51 108.07 218.621C108.168 217.731 108.528 216.891 109.103 216.206C109.679 215.522 110.446 215.023 111.305 214.775C112.164 214.526 113.078 214.538 113.931 214.809C114.497 214.985 115.022 215.272 115.477 215.652C115.931 216.033 116.306 216.499 116.58 217.025C116.853 217.551 117.02 218.126 117.071 218.716C117.122 219.307 117.055 219.902 116.875 220.467Z" fill="#263238"/>
<path d="M123.648 218.098C123.378 218.967 122.855 219.737 122.146 220.31C121.438 220.883 120.575 221.232 119.668 221.314C118.761 221.395 117.85 221.206 117.05 220.769C116.251 220.332 115.599 219.668 115.177 218.861C114.756 218.053 114.584 217.139 114.682 216.233C114.781 215.328 115.147 214.472 115.732 213.774C116.318 213.076 117.098 212.568 117.973 212.315C118.848 212.061 119.778 212.072 120.646 212.348C121.805 212.715 122.771 213.526 123.333 214.603C123.896 215.681 124.009 216.937 123.648 218.098Z" fill="#263238"/>
<path d="M129.628 216.51C129.358 217.38 128.837 218.15 128.129 218.723C127.421 219.296 126.559 219.647 125.652 219.729C124.746 219.812 123.835 219.624 123.035 219.188C122.235 218.753 121.582 218.09 121.16 217.283C120.737 216.477 120.563 215.563 120.661 214.658C120.758 213.752 121.121 212.896 121.706 212.197C122.29 211.499 123.068 210.989 123.942 210.734C124.816 210.478 125.746 210.487 126.615 210.761C127.776 211.126 128.744 211.936 129.309 213.013C129.873 214.091 129.988 215.348 129.628 216.51Z" fill="#263238"/>
<path d="M136.574 216.534C136.292 217.394 135.762 218.153 135.05 218.714C134.339 219.275 133.478 219.613 132.575 219.686C131.672 219.76 130.767 219.565 129.974 219.126C129.182 218.687 128.536 218.024 128.119 217.22C127.702 216.415 127.532 215.506 127.629 214.605C127.727 213.704 128.089 212.853 128.669 212.157C129.249 211.461 130.021 210.951 130.89 210.693C131.758 210.434 132.683 210.438 133.549 210.703C134.134 210.882 134.677 211.176 135.147 211.568C135.617 211.959 136.004 212.44 136.286 212.983C136.567 213.526 136.738 214.12 136.787 214.729C136.837 215.339 136.764 215.952 136.574 216.534Z" fill="#263238"/>
<path d="M113.586 225.32C113.338 226.102 112.864 226.794 112.222 227.308C111.581 227.821 110.803 228.133 109.984 228.203C109.166 228.274 108.345 228.1 107.626 227.704C106.906 227.308 106.321 226.708 105.942 225.979C105.564 225.25 105.411 224.425 105.501 223.609C105.592 222.793 105.923 222.022 106.452 221.393C106.981 220.765 107.684 220.308 108.473 220.079C109.262 219.851 110.1 219.862 110.883 220.11C111.932 220.443 112.806 221.179 113.313 222.155C113.819 223.132 113.918 224.27 113.586 225.32Z" fill="#263238"/>
<path d="M127.65 221.547C127.427 222.255 126.999 222.88 126.421 223.344C125.843 223.808 125.14 224.09 124.402 224.155C123.663 224.219 122.922 224.064 122.272 223.707C121.622 223.35 121.092 222.809 120.75 222.152C120.407 221.494 120.267 220.75 120.348 220.013C120.428 219.276 120.726 218.579 121.202 218.011C121.679 217.443 122.313 217.029 123.024 216.821C123.736 216.613 124.493 216.621 125.201 216.844C125.67 216.992 126.106 217.231 126.484 217.547C126.861 217.864 127.172 218.251 127.4 218.688C127.627 219.125 127.766 219.602 127.809 220.093C127.852 220.584 127.798 221.078 127.65 221.547Z" fill="#263238"/>
<path d="M132.25 221.203C132.062 221.804 131.699 222.336 131.208 222.731C130.717 223.127 130.12 223.367 129.492 223.423C128.864 223.479 128.234 223.347 127.681 223.044C127.128 222.742 126.678 222.282 126.386 221.723C126.095 221.164 125.975 220.532 126.044 219.905C126.112 219.278 126.364 218.686 126.769 218.203C127.174 217.72 127.714 217.368 128.319 217.192C128.924 217.015 129.568 217.022 130.169 217.212C130.973 217.466 131.645 218.029 132.035 218.777C132.425 219.525 132.502 220.397 132.25 221.203Z" fill="#263238"/>
<path d="M139.265 218.73C139.075 219.328 138.711 219.856 138.221 220.247C137.731 220.639 137.136 220.876 136.511 220.929C135.886 220.982 135.259 220.849 134.709 220.547C134.16 220.244 133.712 219.785 133.423 219.228C133.135 218.671 133.017 218.041 133.086 217.418C133.155 216.794 133.407 216.205 133.811 215.725C134.214 215.245 134.751 214.895 135.354 214.719C135.956 214.544 136.597 214.551 137.195 214.74C137.593 214.865 137.963 215.068 138.283 215.337C138.603 215.605 138.866 215.934 139.058 216.305C139.251 216.676 139.368 217.081 139.403 217.497C139.439 217.913 139.392 218.332 139.265 218.73Z" fill="#263238"/>
<path d="M136.425 221.329C136.244 221.904 135.897 222.413 135.427 222.791C134.957 223.169 134.386 223.399 133.785 223.453C133.185 223.506 132.582 223.379 132.053 223.09C131.524 222.8 131.093 222.36 130.814 221.825C130.535 221.29 130.422 220.685 130.487 220.086C130.553 219.486 130.795 218.92 131.182 218.458C131.57 217.996 132.086 217.659 132.665 217.491C133.244 217.322 133.86 217.329 134.435 217.511C134.817 217.63 135.172 217.824 135.479 218.08C135.786 218.337 136.039 218.652 136.224 219.006C136.408 219.361 136.521 219.749 136.556 220.148C136.59 220.546 136.546 220.948 136.425 221.329Z" fill="#263238"/>
<path d="M142.094 217.247C141.945 217.72 141.66 218.139 141.273 218.45C140.886 218.761 140.416 218.95 139.922 218.994C139.428 219.037 138.931 218.933 138.496 218.694C138.061 218.456 137.707 218.093 137.478 217.653C137.249 217.213 137.156 216.715 137.21 216.221C137.264 215.728 137.464 215.262 137.783 214.882C138.103 214.503 138.528 214.226 139.004 214.088C139.481 213.95 139.988 213.957 140.461 214.107C140.775 214.205 141.066 214.364 141.318 214.575C141.57 214.787 141.778 215.045 141.93 215.337C142.082 215.629 142.175 215.948 142.203 216.276C142.231 216.603 142.194 216.933 142.094 217.247Z" fill="#263238"/>
<path d="M143.348 219.558C143.26 219.841 143.09 220.092 142.86 220.279C142.629 220.466 142.348 220.579 142.053 220.606C141.757 220.632 141.461 220.57 141.201 220.428C140.94 220.285 140.729 220.068 140.592 219.805C140.456 219.542 140.4 219.244 140.434 218.949C140.467 218.654 140.587 218.376 140.779 218.15C140.971 217.923 141.226 217.759 141.511 217.679C141.797 217.598 142.1 217.603 142.382 217.695C142.567 217.754 142.74 217.849 142.889 217.974C143.038 218.1 143.161 218.253 143.251 218.426C143.34 218.599 143.395 218.788 143.412 218.983C143.428 219.177 143.407 219.372 143.348 219.558Z" fill="#263238"/>
<path d="M118.531 221.41C118.442 221.692 118.272 221.941 118.041 222.126C117.811 222.312 117.53 222.424 117.236 222.45C116.941 222.476 116.646 222.414 116.386 222.272C116.127 222.13 115.916 221.915 115.779 221.652C115.642 221.39 115.586 221.093 115.618 220.799C115.65 220.505 115.769 220.228 115.959 220.001C116.148 219.774 116.401 219.609 116.685 219.526C116.969 219.443 117.271 219.446 117.553 219.535C117.929 219.657 118.243 219.921 118.426 220.272C118.609 220.623 118.646 221.031 118.531 221.41Z" fill="#263238"/>
<path d="M113.103 241.316C114.236 242.79 115.875 243.793 117.703 244.133C120.003 244.547 120.762 242.397 119.727 240.304C118.784 238.418 116.449 235.934 114.276 236.463C112.102 236.992 111.711 239.487 113.103 241.316Z" fill="#7F3E3B"/>
<path d="M128.651 234.393C128.754 235.072 129.203 235.543 129.651 235.543C130.1 235.543 130.376 234.899 130.272 234.221C130.169 233.542 129.72 233.071 129.272 233.071C128.823 233.071 128.547 233.715 128.651 234.393Z" fill="#263238"/>
<path d="M136.367 233.45C136.47 234.129 136.919 234.6 137.367 234.6C137.816 234.6 138.092 233.945 137.988 233.266C137.885 232.588 137.436 232.116 136.988 232.116C136.539 232.116 136.263 232.795 136.367 233.45Z" fill="#263238"/>
<path d="M134.021 233.749C134.872 235.5 135.955 237.129 137.241 238.591C136.861 238.898 136.417 239.118 135.942 239.233C135.466 239.349 134.971 239.357 134.492 239.258L134.021 233.749Z" fill="#630F0F"/>
<path d="M131.33 242.754C130.533 242.762 129.742 242.61 129.005 242.306C128.268 242.001 127.6 241.551 127.041 240.983C127.006 240.943 126.988 240.891 126.991 240.838C126.994 240.785 127.018 240.736 127.058 240.701C127.098 240.666 127.15 240.648 127.203 240.651C127.255 240.654 127.305 240.678 127.34 240.718C127.961 241.324 128.71 241.781 129.533 242.056C130.355 242.331 131.229 242.416 132.089 242.305C132.141 242.301 132.192 242.317 132.232 242.349C132.272 242.381 132.299 242.427 132.308 242.478C132.314 242.531 132.3 242.584 132.268 242.627C132.236 242.67 132.188 242.699 132.135 242.708C131.868 242.74 131.599 242.755 131.33 242.754Z" fill="#263238"/>
<path d="M125.546 230.472C125.483 230.452 125.424 230.421 125.373 230.38C125.335 230.342 125.305 230.297 125.284 230.248C125.263 230.199 125.252 230.146 125.252 230.092C125.252 230.038 125.263 229.985 125.284 229.936C125.305 229.887 125.335 229.842 125.373 229.805C125.792 229.313 126.327 228.934 126.929 228.701C127.532 228.468 128.183 228.389 128.823 228.471C128.876 228.479 128.927 228.498 128.972 228.526C129.017 228.555 129.056 228.592 129.086 228.636C129.117 228.681 129.137 228.731 129.148 228.783C129.158 228.836 129.157 228.89 129.145 228.942C129.137 228.994 129.118 229.043 129.091 229.088C129.063 229.132 129.026 229.17 128.983 229.2C128.94 229.23 128.892 229.252 128.841 229.262C128.79 229.273 128.737 229.274 128.685 229.264C128.188 229.214 127.686 229.287 127.223 229.475C126.76 229.664 126.35 229.962 126.029 230.345C125.972 230.414 125.894 230.464 125.808 230.487C125.721 230.509 125.629 230.504 125.546 230.472Z" fill="#263238"/>
<path d="M139.15 230C139.087 230.019 139.02 230.021 138.956 230.007C138.891 229.993 138.832 229.963 138.782 229.92C138.39 229.581 137.928 229.335 137.428 229.2C136.928 229.064 136.404 229.043 135.895 229.138C135.845 229.153 135.792 229.158 135.739 229.153C135.686 229.147 135.635 229.131 135.589 229.105C135.543 229.08 135.502 229.045 135.47 229.003C135.438 228.961 135.414 228.913 135.401 228.862C135.373 228.759 135.386 228.65 135.437 228.558C135.489 228.465 135.575 228.396 135.677 228.367C136.31 228.231 136.966 228.244 137.593 228.406C138.219 228.568 138.8 228.873 139.288 229.299C139.371 229.368 139.423 229.467 139.434 229.574C139.444 229.682 139.413 229.789 139.345 229.874C139.291 229.93 139.224 229.973 139.15 230Z" fill="#263238"/>
<path d="M122.809 301.357L125.799 294.09L132.101 300.794C132.101 300.794 129.053 307.924 125.511 306.038L122.809 301.357Z" fill="#7F3E3B"/>
<path d="M133.653 289.202L137.161 294.998L132.101 300.794L125.799 294.078L133.653 289.202Z" fill="#7F3E3B"/>
<path d="M319.976 226.884C325.527 226.884 330.027 222.384 330.027 216.833C330.027 211.282 325.527 206.782 319.976 206.782C314.425 206.782 309.925 211.282 309.925 216.833C309.925 222.384 314.425 226.884 319.976 226.884Z" fill="#263238"/>
<path d="M322.31 227.171C320.263 227.171 318.262 226.564 316.56 225.427C314.858 224.289 313.532 222.673 312.748 220.782C311.965 218.891 311.76 216.81 312.159 214.802C312.559 212.794 313.544 210.95 314.992 209.502C316.439 208.055 318.284 207.069 320.291 206.67C322.299 206.271 324.38 206.475 326.271 207.259C328.162 208.042 329.779 209.369 330.916 211.071C332.053 212.773 332.66 214.774 332.66 216.821C332.66 219.566 331.57 222.199 329.629 224.14C327.688 226.081 325.055 227.171 322.31 227.171ZM322.31 207.081C320.379 207.081 318.491 207.653 316.885 208.727C315.279 209.8 314.028 211.326 313.289 213.11C312.55 214.895 312.358 216.859 312.735 218.753C313.113 220.647 314.044 222.387 315.411 223.752C316.777 225.117 318.518 226.046 320.413 226.421C322.307 226.797 324.271 226.602 326.055 225.861C327.839 225.12 329.363 223.867 330.434 222.26C331.506 220.653 332.076 218.764 332.074 216.833C332.071 214.245 331.041 211.765 329.21 209.936C327.38 208.108 324.898 207.081 322.31 207.081Z" fill="#263238"/>
<path d="M300.035 232.979C297.988 232.979 295.987 232.372 294.285 231.234C292.583 230.097 291.256 228.481 290.473 226.589C289.69 224.698 289.485 222.617 289.884 220.609C290.283 218.602 291.269 216.757 292.717 215.31C294.164 213.863 296.008 212.877 298.016 212.477C300.024 212.078 302.105 212.283 303.996 213.066C305.887 213.85 307.504 215.176 308.641 216.878C309.778 218.58 310.385 220.581 310.385 222.629C310.385 225.374 309.295 228.006 307.354 229.947C305.413 231.888 302.78 232.979 300.035 232.979ZM300.035 212.877C298.104 212.877 296.216 213.449 294.611 214.522C293.005 215.595 291.754 217.12 291.015 218.904C290.276 220.688 290.082 222.651 290.459 224.545C290.836 226.439 291.766 228.178 293.131 229.544C294.497 230.909 296.236 231.839 298.13 232.216C300.024 232.593 301.987 232.399 303.771 231.66C305.555 230.921 307.08 229.67 308.153 228.064C309.226 226.459 309.799 224.571 309.799 222.64C309.799 221.358 309.546 220.088 309.055 218.904C308.565 217.719 307.846 216.643 306.939 215.736C306.032 214.83 304.956 214.11 303.771 213.62C302.587 213.129 301.317 212.877 300.035 212.877Z" fill="#263238"/>
<path d="M301.036 232.714C306.72 232.714 311.328 228.106 311.328 222.421C311.328 216.737 306.72 212.129 301.036 212.129C295.351 212.129 290.743 216.737 290.743 222.421C290.743 228.106 295.351 232.714 301.036 232.714Z" fill="#263238"/>
<path d="M291.054 206.839C289.8 212.75 294.09 223.1 298.598 223.664C303.106 224.227 303.991 212.969 300.081 208.058C296.171 203.148 291.997 202.538 291.054 206.839Z" fill="#263238"/>
<path d="M299.483 251.643C300.023 254.898 300.311 257.945 300.552 261.108C300.794 264.27 300.84 267.398 300.794 270.572C300.773 277.018 299.939 283.436 298.31 289.674C296.527 295.769 294.388 301.461 292.169 307.2L288.719 315.732C287.511 318.55 286.35 321.368 285.073 324.174L281.025 322.701L283.521 313.904L286.062 305.141L288.546 296.401C289.374 293.503 290.156 290.571 290.846 287.753C291.986 282.097 292.457 276.327 292.249 270.561C292.249 267.628 292.065 264.684 291.824 261.752C291.582 258.819 291.272 255.806 290.915 253.035L299.483 251.643Z" fill="#FF8B7B"/>
<path d="M291.422 242.857C288.213 244.502 289.018 259.095 289.018 259.095L304.095 265.006C304.095 265.006 305.67 247.135 302.197 243.973C298.724 240.81 296.125 240.454 291.422 242.857Z" fill="#082845"/>
<path opacity="0.2" d="M292.445 245.928L293.043 260.682L299.15 263.063L292.445 245.928Z" fill="black"/>
<path d="M282.716 320.516L273.125 324.426L280.508 328.337C280.508 328.337 285.43 325.968 285.58 322.448L282.716 320.516Z" fill="#FF8B7B"/>
<path d="M309.362 466.935H300.863L299.426 447.258H307.924L309.362 466.935Z" fill="#FF8B7B"/>
<path d="M356.523 454.25L348.186 455.894L341.7 437.126L350.026 435.482L356.523 454.25Z" fill="#FF8B7B"/>
<path d="M346.967 454.457L355.948 451.237C356.102 451.18 356.271 451.181 356.424 451.24C356.576 451.3 356.702 451.413 356.776 451.559L360.353 458.298C360.437 458.471 360.483 458.66 360.489 458.852C360.495 459.044 360.461 459.235 360.388 459.413C360.316 459.591 360.206 459.751 360.067 459.884C359.928 460.017 359.763 460.119 359.582 460.184C356.431 461.254 354.856 461.61 350.9 463.025C348.473 463.887 343.85 466.475 340.492 467.625C337.134 468.774 335.777 465.566 337.042 464.772C340.819 462.577 343.861 459.312 345.782 455.389C346.057 454.95 346.476 454.621 346.967 454.457Z" fill="#263238"/>
<path d="M300.231 465.946H309.776C309.94 465.944 310.098 466.004 310.221 466.112C310.344 466.22 310.423 466.369 310.443 466.532L311.535 474.076C311.556 474.267 311.537 474.46 311.478 474.643C311.42 474.826 311.323 474.994 311.195 475.138C311.067 475.281 310.911 475.395 310.735 475.474C310.56 475.553 310.37 475.594 310.178 475.594C306.843 475.537 305.245 475.341 301.047 475.341C298.46 475.341 293.124 475.606 289.547 475.606C285.971 475.606 285.798 472.075 287.247 471.765C293.894 470.327 296.516 468.315 298.747 466.475C299.16 466.122 299.688 465.934 300.231 465.946Z" fill="#263238"/>
<g opacity="0.2">
<path opacity="0.2" d="M299.426 447.269L300.208 457.976H308.706L307.924 447.269H299.426Z" fill="black"/>
<path opacity="0.2" d="M350.037 435.482L341.7 437.138L345.322 447.591L353.568 445.694L350.037 435.482Z" fill="black"/>
</g>
<path d="M291.422 242.857C291.422 242.857 287.799 245.157 306.751 291.951L340.4 284.303C336.72 270.745 334.788 262.304 334.949 232.714C330.016 232.812 325.096 233.269 320.229 234.083C315.063 234.867 309.959 236.02 304.957 237.533C298.517 239.649 291.422 242.857 291.422 242.857Z" fill="#082845"/>
<path opacity="0.2" d="M334.926 237.28C332.22 239.171 330.288 241.977 329.486 245.18C328.601 249.239 334.236 256.093 335.559 257.623C335.156 252.183 334.949 245.652 334.926 237.28Z" fill="black"/>
<path d="M315.215 219.063C315.376 224.204 316.032 231.587 320.218 234.082C318.308 240.436 314.697 246.147 309.776 250.596C301.726 246.698 304.946 237.555 304.946 237.555C310.132 235.002 309.488 232.806 307.66 229.206L315.215 219.063Z" fill="#FF8B7B"/>
<path opacity="0.2" d="M312.133 223.203L307.66 229.207C308.12 230.037 308.505 230.906 308.81 231.806C310.834 231.024 313.72 228.494 313.651 226.113C313.395 225.032 312.873 224.032 312.133 223.203Z" fill="black"/>
<path d="M314.629 206.667C317.147 214.717 318.378 218.063 315.951 223.618C312.283 231.967 301.852 233.289 296.988 226.159C292.606 219.742 289.225 207.656 295.734 201.595C297.162 200.252 298.909 199.296 300.81 198.818C302.711 198.341 304.702 198.356 306.595 198.864C308.488 199.373 310.22 200.356 311.626 201.722C313.032 203.087 314.065 204.789 314.629 206.667Z" fill="#FF8B7B"/>
<path d="M306.751 291.95C306.751 291.95 287.431 341.148 287.983 367.046C288.57 393.99 298.437 455.446 298.437 455.446H309.937C309.937 455.446 308.108 395.6 309.12 369.15C310.27 340.308 331.384 286.35 331.384 286.35L306.751 291.95Z" fill="#082845"/>
<path opacity="0.5" d="M306.751 291.95C306.751 291.95 287.431 341.148 287.983 367.046C288.57 393.99 298.437 455.446 298.437 455.446H309.937C309.937 455.446 308.108 395.6 309.12 369.15C310.27 340.308 331.384 286.35 331.384 286.35L306.751 291.95Z" fill="black"/>
<path d="M310.925 455.849H297.447L296.458 451.559L311.547 451.03L310.925 455.849Z" fill="#263238"/>
<path opacity="0.2" d="M315.56 307.05C308.982 318.7 309.569 337.698 311.34 352.015C314.253 338.2 317.989 324.571 322.529 311.202C321.609 303.474 319.597 299.897 315.56 307.05Z" fill="black"/>
<path d="M315.629 289.927C315.629 289.927 311.029 343.735 316.963 365.574C323.967 391.506 342.7 445.28 342.7 445.28L354.062 443.038C354.062 443.038 344.862 380.995 339.457 367.333C328.026 338.181 353.556 300.829 340.435 284.303L315.629 289.927Z" fill="#082845"/>
<path opacity="0.5" d="M315.629 289.927C315.629 289.927 311.029 343.735 316.963 365.574C323.967 391.506 342.7 445.28 342.7 445.28L354.062 443.038C354.062 443.038 344.862 380.995 339.457 367.333C328.026 338.181 353.556 300.829 340.435 284.303L315.629 289.927Z" fill="black"/>
<path d="M355.442 443.371L341.343 446.154L338.974 442.026L355.408 437.989L355.442 443.371Z" fill="#263238"/>
<path d="M302.887 213.532C303.129 214.176 302.991 214.82 302.565 214.981C302.14 215.142 301.611 214.751 301.415 214.107C301.22 213.463 301.312 212.819 301.726 212.67C302.14 212.52 302.646 212.9 302.887 213.532Z" fill="#263238"/>
<path d="M295.653 216.292C295.895 216.936 295.757 217.58 295.331 217.741C294.906 217.902 294.377 217.511 294.181 216.867C293.986 216.223 294.078 215.579 294.492 215.418C294.906 215.257 295.4 215.648 295.653 216.292Z" fill="#263238"/>
<path d="M294.653 215.383L292.939 215.533C292.939 215.533 294.193 216.43 294.653 215.383Z" fill="#263238"/>
<path d="M298.322 216.591C298.309 218.269 298.065 219.937 297.597 221.548C298.011 221.658 298.443 221.676 298.865 221.6C299.286 221.525 299.686 221.358 300.035 221.111L298.322 216.591Z" fill="#FF5652"/>
<path d="M304.486 222.284C304.196 222.454 303.892 222.6 303.577 222.721C303.527 222.74 303.471 222.738 303.422 222.717C303.372 222.695 303.333 222.655 303.313 222.606C303.302 222.581 303.296 222.554 303.296 222.527C303.296 222.5 303.301 222.473 303.312 222.448C303.323 222.423 303.339 222.401 303.359 222.382C303.379 222.364 303.402 222.35 303.428 222.341C304.231 222.052 304.955 221.579 305.542 220.96C306.129 220.341 306.563 219.593 306.809 218.776C306.821 218.724 306.853 218.679 306.899 218.651C306.944 218.623 306.998 218.614 307.05 218.627C307.102 218.639 307.147 218.671 307.175 218.716C307.203 218.762 307.212 218.816 307.2 218.868C306.995 219.588 306.65 220.261 306.184 220.847C305.719 221.433 305.141 221.922 304.486 222.284Z" fill="#263238"/>
<path d="M300.369 202.883C302.956 209.415 314.1 215.108 318.102 213.371C322.886 211.29 321.552 200.94 313.87 197.685C307.441 194.948 298.483 198.122 300.369 202.883Z" fill="#263238"/>
<path d="M306.487 197.248C303.957 194.741 288.777 195.362 287.5 202.021C285.729 211.22 294.561 209.139 299.391 207.23C305.567 204.804 309.799 200.526 306.487 197.248Z" fill="#263238"/>
<path d="M318.953 214.257C318.927 215.887 318.257 217.442 317.09 218.581C315.537 220.076 313.743 218.926 313.318 216.925C312.938 215.119 313.318 212.175 315.273 211.439C315.707 211.284 316.172 211.24 316.628 211.311C317.083 211.382 317.513 211.567 317.879 211.847C318.245 212.127 318.535 212.494 318.722 212.915C318.91 213.336 318.989 213.797 318.953 214.257Z" fill="#FF8B7B"/>
<path d="M303.6 210.45C303.521 210.48 303.434 210.485 303.352 210.465C303.27 210.444 303.196 210.399 303.14 210.335C302.646 209.904 302.068 209.579 301.443 209.381C300.818 209.184 300.159 209.117 299.506 209.185C299.453 209.19 299.4 209.185 299.349 209.17C299.298 209.154 299.251 209.129 299.21 209.096C299.169 209.062 299.135 209.021 299.11 208.974C299.084 208.927 299.069 208.876 299.064 208.823C299.058 208.77 299.063 208.717 299.079 208.666C299.094 208.615 299.119 208.567 299.153 208.526C299.187 208.485 299.228 208.451 299.275 208.426C299.322 208.401 299.373 208.385 299.426 208.38C300.206 208.299 300.995 208.386 301.739 208.636C302.483 208.886 303.165 209.293 303.738 209.829C303.777 209.867 303.807 209.911 303.828 209.961C303.848 210.01 303.859 210.063 303.859 210.117C303.859 210.17 303.848 210.223 303.828 210.272C303.807 210.322 303.777 210.367 303.738 210.404L303.6 210.45Z" fill="#263238"/>
<path d="M291.284 213.9C291.224 213.934 291.157 213.952 291.088 213.952C291.019 213.952 290.952 213.934 290.893 213.9C290.799 213.847 290.731 213.76 290.701 213.657C290.671 213.554 290.682 213.443 290.732 213.348C291.034 212.784 291.468 212.302 291.996 211.942C292.525 211.581 293.132 211.354 293.768 211.278C293.821 211.275 293.873 211.282 293.924 211.3C293.974 211.317 294.02 211.344 294.059 211.379C294.099 211.415 294.131 211.457 294.154 211.505C294.177 211.553 294.19 211.605 294.193 211.658C294.196 211.71 294.189 211.763 294.171 211.813C294.154 211.863 294.127 211.91 294.092 211.949C294.056 211.989 294.014 212.021 293.966 212.044C293.918 212.067 293.867 212.08 293.814 212.083C293.312 212.15 292.835 212.337 292.42 212.627C292.006 212.917 291.668 213.303 291.433 213.751C291.398 213.814 291.347 213.865 291.284 213.9Z" fill="#263238"/>
<path d="M343.148 456.999H343.056C342.876 456.92 342.719 456.796 342.6 456.639C342.481 456.482 342.405 456.297 342.378 456.102C342.349 455.984 342.351 455.861 342.384 455.744C342.416 455.628 342.477 455.521 342.562 455.435C343.344 454.687 346.334 455.377 346.667 455.435C346.706 455.445 346.741 455.465 346.769 455.494C346.797 455.522 346.818 455.557 346.828 455.596C346.835 455.635 346.83 455.676 346.813 455.713C346.797 455.75 346.77 455.781 346.736 455.803C345.816 456.389 344.16 457.321 343.148 456.999ZM346.104 455.711C344.954 455.469 343.252 455.297 342.849 455.711C342.809 455.748 342.78 455.795 342.765 455.848C342.751 455.901 342.752 455.957 342.769 456.01C342.786 456.139 342.835 456.263 342.911 456.369C342.987 456.476 343.088 456.561 343.206 456.619C343.746 456.826 344.804 456.55 346.15 455.711H346.104Z" fill="#082845"/>
<path d="M346.288 455.745C345.276 455.423 343.585 454.365 343.459 453.445C343.438 453.286 343.47 453.125 343.552 452.988C343.633 452.85 343.758 452.744 343.907 452.686C344.049 452.626 344.202 452.595 344.356 452.595C344.51 452.595 344.663 452.626 344.804 452.686C345.954 453.146 346.782 455.446 346.817 455.55C346.833 455.58 346.841 455.613 346.841 455.647C346.841 455.681 346.833 455.715 346.817 455.745C346.791 455.77 346.761 455.79 346.727 455.802C346.693 455.814 346.657 455.818 346.621 455.814L346.288 455.745ZM344.597 453.1C344.517 453.066 344.431 453.048 344.344 453.048C344.257 453.048 344.171 453.066 344.091 453.1C343.861 453.226 343.838 453.353 343.861 453.445C343.942 454.031 345.31 455.009 346.288 455.343C345.977 454.584 345.333 453.364 344.655 453.042L344.597 453.1Z" fill="#082845"/>
<path d="M297.034 467.429C296.309 467.495 295.583 467.313 294.975 466.912C294.843 466.788 294.742 466.635 294.68 466.465C294.618 466.296 294.597 466.114 294.619 465.934C294.625 465.823 294.659 465.716 294.717 465.622C294.775 465.527 294.856 465.449 294.952 465.394C295.999 464.819 299.38 466.544 299.771 466.75C299.806 466.772 299.834 466.803 299.852 466.839C299.87 466.876 299.878 466.917 299.874 466.957C299.87 467 299.852 467.04 299.823 467.071C299.794 467.102 299.755 467.123 299.713 467.13C298.831 467.31 297.934 467.41 297.034 467.429ZM295.55 465.681C295.42 465.669 295.289 465.693 295.171 465.75C295.131 465.77 295.097 465.802 295.075 465.84C295.052 465.879 295.042 465.924 295.044 465.969C295.023 466.087 295.033 466.208 295.074 466.321C295.114 466.434 295.183 466.534 295.274 466.613C295.78 467.072 297.183 467.153 299.069 466.843C297.971 466.257 296.781 465.864 295.55 465.681Z" fill="#082845"/>
<path d="M299.667 467.13H299.587C298.575 466.67 296.574 464.83 296.735 463.875C296.735 463.645 296.93 463.358 297.482 463.312C297.687 463.282 297.897 463.297 298.096 463.356C298.294 463.416 298.478 463.519 298.632 463.657C299.702 464.542 299.897 466.831 299.909 466.923C299.912 466.958 299.906 466.993 299.892 467.025C299.878 467.058 299.856 467.086 299.828 467.107C299.779 467.134 299.722 467.142 299.667 467.13ZM297.643 463.68H297.528C297.16 463.68 297.137 463.864 297.126 463.921C297.034 464.496 298.391 465.934 299.426 466.566C299.346 465.602 298.968 464.685 298.345 463.944C298.152 463.774 297.901 463.683 297.643 463.691V463.68Z" fill="#082845"/>
<path d="M301.887 212.624L300.15 212.75C300.15 212.75 301.427 213.67 301.887 212.624Z" fill="#263238"/>
<path d="M340.4 282.21L341.941 285.027C342.114 285.234 341.941 285.533 341.504 285.625L306.878 293.492C306.579 293.561 306.291 293.492 306.222 293.285L305.245 290.34C305.176 290.145 305.394 289.903 305.728 289.834L339.791 282.083C339.895 282.052 340.005 282.048 340.111 282.07C340.218 282.092 340.317 282.14 340.4 282.21Z" fill="white"/>
<path d="M336.617 287.086L337.537 286.879C337.709 286.879 337.836 286.718 337.79 286.603L336.479 282.785C336.433 282.725 336.369 282.681 336.297 282.658C336.225 282.636 336.148 282.636 336.076 282.659L335.168 282.866C334.984 282.866 334.869 283.038 334.903 283.142L336.226 286.96C336.26 287.075 336.444 287.132 336.617 287.086Z" fill="#082845"/>
<path opacity="0.5" d="M336.617 287.086L337.537 286.879C337.709 286.879 337.836 286.718 337.79 286.603L336.479 282.785C336.433 282.725 336.369 282.681 336.297 282.658C336.225 282.636 336.148 282.636 336.076 282.659L335.168 282.866C334.984 282.866 334.869 283.038 334.903 283.142L336.226 286.96C336.26 287.075 336.444 287.132 336.617 287.086Z" fill="black"/>
<path d="M309.557 293.25L310.477 293.043C310.661 293.043 310.776 292.882 310.73 292.767L309.419 288.949C309.377 288.885 309.314 288.837 309.24 288.814C309.167 288.791 309.088 288.794 309.017 288.822L308.108 289.03C307.924 289.03 307.809 289.202 307.844 289.306L309.166 293.124C309.201 293.25 309.35 293.25 309.557 293.25Z" fill="#082845"/>
<path opacity="0.5" d="M309.557 293.25L310.477 293.043C310.661 293.043 310.776 292.882 310.73 292.767L309.419 288.949C309.377 288.885 309.314 288.837 309.24 288.814C309.167 288.791 309.088 288.794 309.017 288.822L308.108 289.03C307.924 289.03 307.809 289.202 307.844 289.306L309.166 293.124C309.201 293.25 309.35 293.25 309.557 293.25Z" fill="black"/>
<path d="M323.035 290.179L323.944 289.972C324.128 289.972 324.243 289.8 324.208 289.696L322.886 285.879C322.886 285.764 322.667 285.706 322.495 285.752L321.575 285.959C321.391 285.959 321.276 286.12 321.322 286.235L322.633 290.053C322.679 290.113 322.742 290.157 322.814 290.18C322.886 290.202 322.963 290.202 323.035 290.179Z" fill="#082845"/>
<path opacity="0.5" d="M323.035 290.179L323.944 289.972C324.128 289.972 324.243 289.8 324.208 289.696L322.886 285.879C322.886 285.764 322.667 285.706 322.495 285.752L321.575 285.959C321.391 285.959 321.276 286.12 321.322 286.235L322.633 290.053C322.679 290.113 322.742 290.157 322.814 290.18C322.886 290.202 322.963 290.202 323.035 290.179Z" fill="black"/>
<path d="M269.871 329.924L276.644 331.603L280.508 328.337L273.125 324.427L269.871 329.924Z" fill="#FF8B7B"/>
<path d="M323.932 274.263L317.32 267.95L316.745 276.575C316.745 276.575 321.345 279.507 324.427 277.794L323.932 274.263Z" fill="#FF8B7B"/>
<path d="M340.4 240.557C340.699 240.936 340.848 241.155 341.055 241.442L341.607 242.236C341.952 242.765 342.286 243.294 342.608 243.823C343.237 244.881 343.835 245.95 344.402 247.031C345.483 249.193 346.457 251.39 347.323 253.621C348.208 255.84 348.944 258.117 349.623 260.394C349.956 261.544 350.232 262.694 350.52 263.844L350.635 264.281L350.761 264.833C350.874 265.329 350.943 265.833 350.968 266.34C351.019 267.45 350.838 268.558 350.439 269.594C349.703 271.344 348.451 272.828 346.851 273.849C345.649 274.631 344.355 275.26 342.999 275.724C340.628 276.516 338.18 277.056 335.696 277.334C331.006 277.889 326.271 277.974 321.563 277.587V273.286C323.725 273.021 325.967 272.745 328.129 272.366C330.291 271.986 332.476 271.607 334.558 271.078C336.56 270.592 338.515 269.93 340.4 269.1C341.174 268.76 341.904 268.328 342.573 267.812C343.125 267.363 343.321 266.961 343.275 266.903C343.229 266.846 343.275 266.903 343.275 266.8L342.999 265.972C342.654 264.937 342.309 263.902 341.918 262.89C341.216 260.831 340.354 258.83 339.526 256.852C338.698 254.874 337.743 252.931 336.731 251.102C336.248 250.171 335.731 249.239 335.202 248.354C334.937 247.905 334.661 247.48 334.385 247.054L333.994 246.433L333.649 245.939L340.4 240.557Z" fill="#FF8B7B"/>
<path d="M334.937 232.714C338.537 232.978 345.218 243.662 345.218 243.662L334.983 254.748C334.983 254.748 327.301 247.377 327.75 242.65C328.175 237.831 330.82 232.415 334.937 232.714Z" fill="#082845"/>
<path d="M310.213 267.157L310.132 274.402L316.745 276.518L317.32 267.893L310.213 267.157Z" fill="#FF8B7B"/>
<path d="M449.052 379.879H396.451C395.536 379.879 394.658 379.516 394.011 378.869C393.364 378.222 393.001 377.344 393.001 376.429C393.001 375.514 393.364 374.637 394.011 373.99C394.658 373.343 395.536 372.979 396.451 372.979H449.052C449.967 372.979 450.845 373.343 451.492 373.99C452.139 374.637 452.502 375.514 452.502 376.429C452.502 377.344 452.139 378.222 451.492 378.869C450.845 379.516 449.967 379.879 449.052 379.879Z" fill="#082845"/>
<path opacity="0.8" d="M449.052 379.879H396.451C395.536 379.879 394.658 379.516 394.011 378.869C393.364 378.222 393.001 377.344 393.001 376.429C393.001 375.514 393.364 374.637 394.011 373.99C394.658 373.343 395.536 372.979 396.451 372.979H449.052C449.967 372.979 450.845 373.343 451.492 373.99C452.139 374.637 452.502 375.514 452.502 376.429C452.502 377.344 452.139 378.222 451.492 378.869C450.845 379.516 449.967 379.879 449.052 379.879Z" fill="white"/>
<path d="M381.076 467.981H372.554L367.598 448.247H376.119L381.076 467.981Z" fill="#FFB573"/>
<path d="M371.956 465.911H381.535C381.615 465.908 381.695 465.921 381.771 465.948C381.846 465.976 381.915 466.019 381.973 466.073C382.032 466.128 382.079 466.193 382.113 466.266C382.146 466.339 382.165 466.417 382.168 466.498L382.628 474.076C382.628 474.475 382.471 474.857 382.192 475.141C381.912 475.425 381.532 475.588 381.133 475.594C377.798 475.537 376.211 475.341 372.002 475.341C369.403 475.341 358.386 475.606 354.752 475.606C351.118 475.606 351.302 472.064 352.797 471.742C359.593 470.304 368.023 468.292 370.426 466.44C370.86 466.092 371.4 465.905 371.956 465.911Z" fill="#263238"/>
<path opacity="0.2" d="M376.131 448.247H367.598L370.162 458.425H378.684L376.131 448.247Z" fill="black"/>
<path d="M403.742 339.975C403.742 339.975 334.362 344.724 335.8 369.15C337.318 395.876 366.493 455.987 366.493 455.987H382.11C382.11 455.987 367.954 404.881 364.538 377.66C381.087 370.76 425.971 377.373 431.238 363.078C433.819 355.671 434.499 347.735 433.216 339.998L403.742 339.975Z" fill="#082845"/>
<path opacity="0.3" d="M365.332 383.606C365.137 382.387 364.964 381.191 364.803 380.041C364.688 379.224 364.573 378.419 364.481 377.637C367.59 376.461 370.83 375.666 374.13 375.268C372.98 367.425 371.416 360.203 371.416 360.203C363.366 360.203 354.292 374.003 366.344 389.505C366.145 388.447 365.961 387.401 365.792 386.366C365.631 385.434 365.482 384.503 365.332 383.606Z" fill="black"/>
<path d="M383.732 455.963H363.17L361.399 449.213L381.788 447.591L383.732 455.963Z" fill="#263238"/>
<path d="M368.931 467.394C369.706 467.376 370.477 467.276 371.231 467.095C371.268 467.083 371.301 467.062 371.327 467.034C371.353 467.006 371.371 466.972 371.381 466.934C371.385 466.898 371.38 466.861 371.366 466.826C371.352 466.792 371.329 466.762 371.3 466.739C371.024 466.543 368.609 464.899 367.574 465.301C367.457 465.351 367.353 465.428 367.271 465.526C367.189 465.624 367.131 465.74 367.103 465.865C367.05 466.052 367.046 466.249 367.09 466.438C367.135 466.627 367.226 466.802 367.356 466.946C367.808 467.284 368.369 467.443 368.931 467.394ZM370.656 466.808C369.138 467.107 368.011 467.061 367.609 466.67C367.526 466.573 367.47 466.457 367.446 466.332C367.422 466.207 367.43 466.078 367.471 465.957C367.479 465.896 367.504 465.838 367.542 465.789C367.581 465.74 367.632 465.703 367.689 465.681C368.253 465.462 369.667 466.175 370.656 466.808Z" fill="#082845"/>
<path d="M371.162 467.096C371.192 467.105 371.224 467.105 371.254 467.096C371.283 467.079 371.308 467.056 371.326 467.028C371.344 467 371.355 466.968 371.358 466.935C371.358 466.831 371.553 464.381 370.702 463.553C370.59 463.447 370.455 463.368 370.308 463.32C370.161 463.272 370.005 463.258 369.851 463.277C369.683 463.284 369.522 463.346 369.393 463.454C369.263 463.563 369.174 463.711 369.138 463.875C368.943 464.807 370.208 466.59 371.059 467.096H371.162ZM370.012 463.646C370.175 463.644 370.332 463.705 370.449 463.818C370.914 464.638 371.107 465.584 371.001 466.521C370.265 465.9 369.414 464.543 369.541 463.933C369.541 463.818 369.633 463.68 369.92 463.646H370.012Z" fill="#082845"/>
<path d="M412.666 275.183C411.367 278.76 409.952 282.256 408.561 285.775C407.169 289.294 405.709 292.79 404.202 296.263C401.224 303.243 398.107 310.155 394.657 317.043L394.163 318.021L393.657 318.538C391.206 320.995 388.408 323.079 385.354 324.725C382.44 326.296 379.352 327.519 376.154 328.371C373.075 329.205 369.926 329.752 366.747 330.004C365.171 330.142 363.607 330.176 362.043 330.176C360.441 330.177 358.84 330.089 357.248 329.912L357.374 323.506C358.582 323.322 360.031 323.081 361.353 322.805C362.676 322.529 364.044 322.184 365.367 321.827C367.97 321.137 370.519 320.252 372.991 319.182C375.356 318.173 377.614 316.929 379.73 315.468C381.71 314.1 383.501 312.476 385.055 310.638L384.054 312.133C386.906 305.348 389.609 298.333 392.346 291.433L396.451 280.98L400.603 270.561L412.666 275.183Z" fill="#FFB573"/>
<path d="M399.05 272.101C392.15 280.059 387.55 291.191 387.55 291.191L405.674 302.105C410.906 295.734 417.438 278.852 417.703 273.159C418.105 264.408 406.525 263.534 399.05 272.101Z" fill="#263238"/>
<path opacity="0.3" d="M405.444 280.22C401.488 283.544 398.682 290.455 397.451 297.16L405.662 302.105C408.25 298.954 411.159 293.239 413.471 287.558C411.619 281.923 408.94 277.276 405.444 280.22Z" fill="black"/>
<path d="M414.724 462.634L406.433 464.589L398.095 446.269L406.398 444.314L414.724 462.634Z" fill="#FFB573"/>
<path d="M405.007 462.3L413.988 458.988C414.14 458.93 414.308 458.932 414.457 458.994C414.607 459.056 414.728 459.173 414.793 459.322L417.841 466.221C417.96 466.596 417.936 467.002 417.775 467.36C417.614 467.719 417.326 468.005 416.967 468.165C414.023 469.729 412.367 469.832 408.307 471.086C406.525 471.626 401.994 475.387 396.75 475.387H392.15C389.436 475.387 389.068 472.489 390.574 472.086C397.854 470.143 402.166 465.865 403.776 463.254C404.063 462.803 404.498 462.465 405.007 462.3Z" fill="#263238"/>
<path opacity="0.2" d="M406.398 444.314L398.095 446.269L402.396 455.71L410.699 453.755L406.398 444.314Z" fill="black"/>
<path d="M420.44 339.975C420.44 339.975 364.228 344.724 365.608 369.127C367.126 395.853 398.233 454.169 398.233 454.169L413.425 450.593C413.425 450.593 397.325 401.58 393.875 374.371C409.722 374.371 442.589 377.35 447.925 363.055C450.505 355.648 451.186 347.712 449.903 339.975H420.44Z" fill="#082845"/>
<path d="M415.058 450.202L395.048 454.917L392.92 448.189L413.183 442.232L415.058 450.202Z" fill="#263238"/>
<path d="M402.684 464.784C403.394 464.498 404.072 464.14 404.708 463.715C404.74 463.694 404.765 463.664 404.782 463.63C404.798 463.595 404.804 463.557 404.8 463.519C404.794 463.48 404.777 463.444 404.75 463.416C404.723 463.387 404.689 463.367 404.651 463.358C404.329 463.278 401.5 462.553 400.66 463.301C400.565 463.386 400.493 463.494 400.451 463.615C400.409 463.735 400.398 463.865 400.419 463.991C400.426 464.185 400.486 464.374 400.594 464.536C400.701 464.699 400.852 464.828 401.028 464.911C401.577 465.076 402.167 465.031 402.684 464.784ZM404.099 463.634C402.776 464.439 401.707 464.784 401.189 464.554C401.077 464.493 400.982 464.404 400.916 464.295C400.849 464.186 400.812 464.061 400.81 463.933C400.8 463.872 400.806 463.81 400.826 463.752C400.846 463.694 400.88 463.642 400.925 463.6C401.35 463.197 402.949 463.381 404.099 463.634Z" fill="#082845"/>
<path d="M404.673 463.738C404.701 463.725 404.725 463.705 404.742 463.68C404.758 463.652 404.767 463.62 404.767 463.588C404.767 463.556 404.758 463.524 404.742 463.496C404.742 463.393 404.052 461.024 402.96 460.552C402.823 460.482 402.671 460.445 402.517 460.445C402.363 460.445 402.211 460.482 402.074 460.552C401.916 460.617 401.784 460.732 401.699 460.88C401.614 461.028 401.58 461.199 401.603 461.369C401.741 462.312 403.546 463.542 404.524 463.726L404.673 463.738ZM402.373 460.897C402.446 460.866 402.524 460.85 402.603 460.85C402.682 460.85 402.76 460.866 402.833 460.897C403.489 461.185 403.983 462.484 404.294 463.197C403.385 462.875 402.12 461.898 401.994 461.277C401.994 461.162 401.994 461.012 402.247 460.874L402.373 460.897Z" fill="#082845"/>
<path d="M358.892 323.334L349.267 321.367L350.474 330.728C350.474 330.728 359.789 331.131 360.491 328.29L358.892 323.334Z" fill="#FFB573"/>
<path d="M342.24 326.657L344.77 332.948L350.474 330.729L349.266 321.367L342.24 326.657Z" fill="#FFB573"/>
<path d="M403.788 340.4H449.386C449.708 336.329 448.765 323.081 449.466 306.21C449.9 293.706 451.416 281.262 453.997 269.019C454.204 268.099 453.779 267.421 453.997 266.501C452.382 265.931 450.708 265.545 449.006 265.351C446.258 264.948 442.808 264.534 439.427 264.373C432.973 264.005 426.503 264.005 420.049 264.373C417.071 264.649 414.161 265.144 411.838 265.592C408.871 266.19 407.123 266.742 407.123 266.742C407.123 266.742 395.888 292.468 403.788 340.4Z" fill="#263238"/>
<path opacity="0.3" d="M449.466 306.222C449.899 293.717 451.415 281.274 453.997 269.031C450.949 268.767 445.74 269.031 444.877 273.987C443.9 279.277 445.119 291.72 449.466 306.222Z" fill="black"/>
<path d="M457.838 272.86C459.183 276.184 460.218 279.358 461.288 282.658C462.357 285.959 463.277 289.236 464.094 292.606C464.91 295.975 465.658 299.38 466.187 302.899C466.474 304.624 466.67 306.429 466.877 308.212C467.084 309.994 467.141 311.846 467.107 313.766V315.169C467.097 316.198 466.922 317.219 466.589 318.194C466.041 319.729 465.175 321.132 464.048 322.311C462.471 323.896 460.659 325.23 458.677 326.267C455.425 327.966 452.012 329.338 448.488 330.361C441.868 332.311 435.087 333.666 428.225 334.409L426.903 328.141C429.95 327.083 433.09 325.991 436.103 324.818C439.116 323.645 442.163 322.518 445.05 321.161C447.824 319.971 450.494 318.552 453.031 316.917C453.965 316.328 454.799 315.594 455.503 314.744C455.71 314.479 455.687 314.341 455.503 314.606C455.467 314.694 455.44 314.787 455.423 314.882V315.066V315.157L455.331 314.076C455.09 311.054 454.637 308.053 453.974 305.095C453.33 302.036 452.548 298.942 451.674 295.895C450.8 292.847 449.857 289.731 448.856 286.695C447.856 283.659 446.786 280.508 445.751 277.598L457.838 272.86Z" fill="#FFB573"/>
<path d="M453.997 266.512C445.694 263.89 441.013 270.296 443.313 281.807C444.886 289.162 447.549 296.239 451.214 302.806L467.981 294.848C466.394 283.567 462.495 269.192 453.997 266.512Z" fill="#263238"/>
<path d="M439.403 244.95L434.217 249.251L427.156 255.116C427.365 256.056 427.515 257.009 427.604 257.968C427.984 261.798 424.879 263.58 420.969 264.316C420.969 264.316 415.426 269.491 426.512 269.652C437.598 269.813 440.174 264.431 440.174 264.431C435.953 260.234 437.966 251.16 439.403 244.95Z" fill="#FFB573"/>
<path d="M439.105 264.362C435.505 266.871 431.45 268.653 427.167 269.606C429.341 271.768 430.744 277.081 430.744 277.081C430.744 277.081 442.75 274.263 443.187 264.5C442.549 264.216 441.882 264.004 441.198 263.867C440.833 263.806 440.46 263.818 440.101 263.902C439.741 263.987 439.403 264.144 439.105 264.362Z" fill="#082845"/>
<path d="M421.843 264.592C421.567 265.949 421.843 268.433 427.168 269.606C423.89 271.492 422.487 276.506 422.487 276.506C422.487 276.506 415.058 269.985 418.876 264.351C419.572 264.048 420.302 263.832 421.05 263.707C421.167 263.686 421.287 263.696 421.399 263.735C421.512 263.774 421.612 263.841 421.692 263.93C421.771 264.018 421.826 264.125 421.853 264.241C421.879 264.357 421.876 264.478 421.843 264.592Z" fill="#082845"/>
<path opacity="0.2" d="M427.156 255.081C427.365 256.022 427.515 256.974 427.604 257.934C431.974 257.267 434.803 254.679 435.171 251.999C435.309 250.987 434.286 249.918 434.217 249.216L427.156 255.081Z" fill="black"/>
<path d="M420.509 241.926C416.461 238.924 414.299 232.507 416.07 228.655C416.448 227.785 417.062 227.04 417.843 226.502C418.624 225.965 419.54 225.658 420.487 225.616C421.434 225.574 422.373 225.799 423.199 226.265C424.024 226.731 424.702 227.42 425.155 228.252C428.065 233.116 425.109 245.341 420.509 241.926Z" fill="#263238"/>
<path d="M439.76 233.922C439.829 242.409 440.312 247.354 436.367 252.126C435.105 253.692 433.438 254.882 431.547 255.568C429.656 256.255 427.614 256.411 425.641 256.02C423.668 255.629 421.839 254.706 420.353 253.351C418.866 251.996 417.779 250.26 417.208 248.331C414.908 240.948 415.138 228.321 423.119 224.101C424.825 223.141 426.753 222.647 428.71 222.667C430.667 222.688 432.584 223.222 434.269 224.216C435.955 225.211 437.349 226.631 438.313 228.335C439.276 230.038 439.775 231.965 439.76 233.922Z" fill="#FFB573"/>
<path d="M436.827 240.672C433.768 236.658 433.481 229.896 436.264 226.688C436.871 225.969 437.667 225.434 438.561 225.143C439.456 224.853 440.414 224.818 441.328 225.042C442.241 225.267 443.074 225.743 443.732 226.416C444.389 227.088 444.846 227.932 445.05 228.85C446.533 234.301 440.289 245.226 436.827 240.672Z" fill="#263238"/>
<path d="M418.071 227.389C415.507 225.848 421.429 220.639 429.111 218.362C437.69 215.821 448.535 222.49 449.064 228.275C449.616 234.37 445.499 231.403 444.855 233.312C444.855 233.312 423.327 230.552 418.071 227.389Z" fill="#082845"/>
<path d="M415.472 229.517C415.591 228.277 416.098 227.106 416.921 226.17C417.358 225.768 442.796 230.897 445.441 233.174C445.935 233.599 444.153 237.233 443.762 236.762C440.979 233.45 415.575 230.437 415.472 229.517Z" fill="#082845"/>
<path opacity="0.3" d="M415.472 229.517C415.591 228.277 416.098 227.106 416.921 226.17C417.358 225.768 442.796 230.897 445.441 233.174C445.935 233.599 444.153 237.233 443.762 236.762C440.979 233.45 415.575 230.437 415.472 229.517Z" fill="black"/>
<path d="M442.509 238.751C442.55 238.761 442.593 238.761 442.635 238.751C442.698 238.711 442.743 238.648 442.761 238.575C442.778 238.502 442.766 238.425 442.727 238.36C441.359 236.118 431.974 235.359 430.916 235.278C427.879 235.122 424.834 235.323 421.843 235.876C421.468 235.737 421.066 235.685 420.668 235.723C420.27 235.76 419.885 235.888 419.543 236.095C417.565 236.073 415.591 236.266 413.655 236.67C413.618 236.678 413.583 236.694 413.552 236.715C413.521 236.737 413.494 236.765 413.474 236.797C413.454 236.829 413.44 236.865 413.433 236.902C413.427 236.94 413.428 236.978 413.436 237.015C413.445 237.052 413.46 237.087 413.482 237.118C413.504 237.149 413.531 237.176 413.563 237.196C413.595 237.216 413.631 237.23 413.669 237.237C413.706 237.243 413.744 237.242 413.781 237.233C415.695 236.834 417.646 236.645 419.6 236.67C419.65 236.681 419.701 236.681 419.75 236.67C420.024 236.489 420.336 236.377 420.662 236.341C420.988 236.305 421.318 236.347 421.624 236.463C421.688 236.486 421.757 236.486 421.82 236.463C424.786 235.895 427.809 235.691 430.824 235.853C433.642 236.06 441.175 237.003 442.187 238.659C442.225 238.705 442.276 238.738 442.333 238.755C442.391 238.771 442.452 238.77 442.509 238.751Z" fill="#263238"/>
<path d="M427.11 243.156H427.386C427.97 243.098 428.534 242.911 429.037 242.609C429.54 242.307 429.97 241.896 430.295 241.408C431.744 239.165 430.767 235.658 430.732 235.543C430.722 235.505 430.696 235.473 430.662 235.453C430.627 235.434 430.587 235.429 430.548 235.439C430.512 235.453 430.483 235.479 430.466 235.513C430.449 235.547 430.445 235.587 430.456 235.623C430.456 235.623 431.434 239.073 430.054 241.258C429.752 241.714 429.351 242.095 428.881 242.373C428.411 242.652 427.884 242.821 427.34 242.868C426.826 242.967 426.297 242.952 425.79 242.822C425.283 242.693 424.811 242.454 424.407 242.121C422.291 240.338 422.107 236.187 422.107 236.152C422.107 236.113 422.092 236.075 422.064 236.047C422.036 236.019 421.998 236.003 421.958 236.003C421.921 236.008 421.887 236.026 421.862 236.053C421.837 236.08 421.822 236.115 421.82 236.152C421.82 236.325 421.958 240.476 424.177 242.339C424.583 242.671 425.053 242.914 425.558 243.055C426.063 243.195 426.591 243.23 427.11 243.156Z" fill="#263238"/>
<path d="M416.933 243.892C417.376 243.877 417.811 243.767 418.208 243.568C418.605 243.37 418.955 243.088 419.233 242.742C420.785 240.672 419.819 236.739 419.785 236.578C419.771 236.545 419.746 236.518 419.714 236.501C419.683 236.485 419.646 236.48 419.611 236.489C419.576 236.497 419.546 236.518 419.525 236.547C419.504 236.576 419.494 236.611 419.497 236.647C419.497 236.647 420.475 240.614 419.003 242.569C418.737 242.929 418.39 243.22 417.99 243.42C417.591 243.619 417.149 243.722 416.703 243.719C416.404 243.739 416.105 243.69 415.828 243.577C415.551 243.463 415.303 243.288 415.104 243.064C413.575 241.373 414.138 237.026 414.138 236.98C414.141 236.962 414.141 236.944 414.137 236.926C414.133 236.908 414.125 236.891 414.115 236.876C414.104 236.861 414.09 236.848 414.075 236.838C414.059 236.829 414.041 236.822 414.023 236.819C414.005 236.816 413.986 236.817 413.968 236.821C413.95 236.825 413.933 236.832 413.918 236.843C413.903 236.854 413.891 236.867 413.881 236.883C413.871 236.899 413.865 236.916 413.862 236.934C413.862 237.118 413.276 241.534 414.897 243.259C415.126 243.511 415.408 243.708 415.722 243.837C416.036 243.966 416.375 244.024 416.714 244.007L416.933 243.892Z" fill="#263238"/>
<path d="M442.75 241.121C441.979 242.798 440.621 244.135 438.932 244.881C436.735 245.801 435.574 243.858 436.114 241.581C436.609 239.534 438.345 236.601 440.576 236.636C442.807 236.67 443.727 239.028 442.75 241.121Z" fill="#FFB573"/>
<path d="M426.075 237.808C426.075 238.487 425.799 239.085 425.35 239.131C424.902 239.177 424.511 238.659 424.453 237.981C424.396 237.302 424.729 236.693 425.178 236.647C425.626 236.601 426.029 237.118 426.075 237.808Z" fill="#263238"/>
<path d="M418.347 238.625C418.347 239.304 418.071 239.902 417.623 239.948C417.174 239.994 416.772 239.476 416.726 238.797C416.68 238.119 417.002 237.521 417.45 237.475C417.899 237.429 418.301 237.935 418.347 238.625Z" fill="#263238"/>
<path d="M420.9 238.97C420.376 241.197 419.556 243.344 418.462 245.352C418.978 245.605 419.543 245.741 420.117 245.751C420.692 245.761 421.261 245.644 421.785 245.41L420.9 238.97Z" fill="#ED893E"/>
<path d="M425.316 246.56C426.096 246.392 426.834 246.067 427.486 245.607C428.138 245.147 428.691 244.559 429.111 243.881C429.133 243.833 429.137 243.778 429.122 243.727C429.107 243.677 429.075 243.633 429.03 243.604C428.981 243.58 428.925 243.577 428.873 243.594C428.822 243.611 428.779 243.648 428.754 243.696C428.286 244.426 427.657 245.038 426.915 245.486C426.174 245.935 425.34 246.208 424.476 246.284C424.423 246.293 424.376 246.321 424.344 246.364C424.311 246.407 424.297 246.461 424.304 246.514C424.307 246.54 424.315 246.565 424.327 246.587C424.34 246.61 424.357 246.63 424.377 246.646C424.397 246.662 424.421 246.674 424.446 246.681C424.471 246.688 424.497 246.69 424.522 246.687C424.789 246.663 425.055 246.621 425.316 246.56Z" fill="#263238"/>
<path d="M429.571 234.485C429.637 234.458 429.695 234.414 429.738 234.357C429.781 234.3 429.808 234.232 429.815 234.161C429.822 234.09 429.809 234.018 429.778 233.954C429.748 233.889 429.7 233.834 429.64 233.795C429.128 233.418 428.531 233.17 427.902 233.074C427.273 232.978 426.631 233.036 426.029 233.243C425.98 233.263 425.935 233.293 425.897 233.33C425.859 233.368 425.83 233.413 425.809 233.462C425.789 233.511 425.779 233.564 425.779 233.617C425.779 233.67 425.79 233.723 425.81 233.772C425.854 233.87 425.933 233.947 426.031 233.987C426.13 234.028 426.24 234.029 426.339 233.99C426.813 233.835 427.318 233.796 427.81 233.876C428.302 233.956 428.768 234.153 429.168 234.45C429.225 234.495 429.293 234.522 429.365 234.528C429.436 234.534 429.508 234.519 429.571 234.485Z" fill="#263238"/>
<path d="M414.897 235.865C414.962 235.869 415.027 235.858 415.087 235.832C415.147 235.806 415.2 235.766 415.242 235.715C415.544 235.296 415.939 234.951 416.395 234.708C416.852 234.464 417.358 234.329 417.875 234.312C417.928 234.316 417.981 234.308 418.031 234.291C418.081 234.273 418.127 234.246 418.167 234.211C418.206 234.176 418.238 234.133 418.261 234.085C418.284 234.038 418.298 233.986 418.301 233.933C418.304 233.88 418.297 233.827 418.279 233.777C418.262 233.727 418.235 233.681 418.199 233.641C418.164 233.602 418.121 233.57 418.074 233.547C418.026 233.524 417.974 233.51 417.921 233.507C417.274 233.515 416.637 233.674 416.062 233.971C415.487 234.269 414.989 234.697 414.609 235.221C414.576 235.263 414.552 235.311 414.538 235.362C414.524 235.414 414.52 235.467 414.528 235.52C414.535 235.573 414.554 235.624 414.582 235.669C414.609 235.714 414.646 235.754 414.69 235.784C414.746 235.837 414.82 235.866 414.897 235.865Z" fill="#263238"/>
<path d="M429.042 327.75L421.992 324.3L421.693 333.5C421.693 333.5 428.685 336.823 430.1 333.075L429.042 327.75Z" fill="#FFB573"/>
<path d="M412.861 325.737L412.988 333.891L421.693 333.42L421.992 324.208L412.861 325.737Z" fill="#FFB573"/>
<path d="M454.71 478.676H447.81V347.116C447.81 344.371 446.719 341.738 444.778 339.797C442.837 337.856 440.205 336.766 437.46 336.766H162.299C159.554 336.766 156.922 337.856 154.981 339.797C153.04 341.738 151.949 344.371 151.949 347.116V478.676H145.049V347.116C145.049 342.541 146.867 338.153 150.102 334.918C153.337 331.683 157.724 329.866 162.299 329.866H437.46C442.035 329.866 446.422 331.683 449.657 334.918C452.892 338.153 454.71 342.541 454.71 347.116V478.676Z" fill="#082845"/>
<path opacity="0.7" d="M454.71 478.676H447.81V347.116C447.81 344.371 446.719 341.738 444.778 339.797C442.837 337.856 440.205 336.766 437.46 336.766H162.299C159.554 336.766 156.922 337.856 154.981 339.797C153.04 341.738 151.949 344.371 151.949 347.116V478.676H145.049V347.116C145.049 342.541 146.867 338.153 150.102 334.918C153.337 331.683 157.724 329.866 162.299 329.866H437.46C442.035 329.866 446.422 331.683 449.657 334.918C452.892 338.153 454.71 342.541 454.71 347.116V478.676Z" fill="white"/>
<path d="M429.951 478.676H423.051V347.116C423.051 344.371 421.96 341.738 420.019 339.797C418.078 337.856 415.446 336.766 412.701 336.766H137.54C134.795 336.766 132.162 337.856 130.221 339.797C128.28 341.738 127.19 344.371 127.19 347.116V478.676H120.29V347.116C120.29 342.541 122.107 338.153 125.342 334.918C128.577 331.683 132.965 329.866 137.54 329.866H412.701C417.276 329.866 421.663 331.683 424.898 334.918C428.133 338.153 429.951 342.541 429.951 347.116V478.676Z" fill="#082845"/>
<path opacity="0.8" d="M429.951 478.676H423.051V347.116C423.051 344.371 421.96 341.738 420.019 339.797C418.078 337.856 415.446 336.766 412.701 336.766H137.54C134.795 336.766 132.162 337.856 130.221 339.797C128.28 341.738 127.19 344.371 127.19 347.116V478.676H120.29V347.116C120.29 342.541 122.107 338.153 125.342 334.918C128.577 331.683 132.965 329.866 137.54 329.866H412.701C417.276 329.866 421.663 331.683 424.898 334.918C428.133 338.153 429.951 342.541 429.951 347.116V478.676Z" fill="white"/>
<path d="M279.542 327.072H220.271C219.421 327.059 218.605 326.741 217.971 326.174C217.337 325.608 216.929 324.832 216.821 323.99L212.865 286.661C212.813 286.272 212.846 285.878 212.962 285.504C213.077 285.13 213.272 284.785 213.533 284.493C213.794 284.202 214.115 283.97 214.474 283.814C214.833 283.658 215.222 283.582 215.613 283.59H274.884C275.733 283.6 276.55 283.916 277.184 284.48C277.818 285.044 278.226 285.819 278.334 286.661L282.29 323.99C282.342 324.378 282.309 324.773 282.193 325.148C282.078 325.523 281.883 325.868 281.622 326.16C281.362 326.453 281.041 326.686 280.682 326.843C280.323 327 279.934 327.078 279.542 327.072Z" fill="#082845"/>
<path opacity="0.2" d="M279.542 327.072H220.271C219.421 327.059 218.605 326.741 217.971 326.174C217.337 325.608 216.929 324.832 216.821 323.99L212.865 286.661C212.813 286.272 212.846 285.878 212.962 285.504C213.077 285.13 213.272 284.785 213.533 284.493C213.794 284.202 214.115 283.97 214.474 283.814C214.833 283.658 215.222 283.582 215.613 283.59H274.884C275.733 283.6 276.55 283.916 277.184 284.48C277.818 285.044 278.226 285.819 278.334 286.661L282.29 323.99C282.342 324.378 282.309 324.773 282.193 325.148C282.078 325.523 281.883 325.868 281.622 326.16C281.362 326.453 281.041 326.686 280.682 326.843C280.323 327 279.934 327.078 279.542 327.072Z" fill="black"/>
<path d="M240.12 279.565H235.325V280.715H240.12V279.565Z" fill="#082845"/>
<path d="M231.207 279.565H220.087V280.715H231.207V279.565Z" fill="#082845"/>
<path d="M277.898 327.072H218.638C217.787 327.064 216.968 326.747 216.333 326.18C215.698 325.613 215.291 324.834 215.188 323.99L211.221 286.661C211.171 286.273 211.206 285.879 211.322 285.506C211.438 285.132 211.633 284.789 211.893 284.497C212.154 284.206 212.474 283.974 212.833 283.818C213.191 283.661 213.578 283.584 213.969 283.59H273.24C274.09 283.597 274.907 283.913 275.542 284.477C276.176 285.042 276.584 285.818 276.69 286.661L280.658 323.99C280.707 324.379 280.672 324.774 280.556 325.149C280.439 325.523 280.243 325.869 279.981 326.161C279.72 326.453 279.398 326.686 279.039 326.843C278.679 327 278.29 327.078 277.898 327.072Z" fill="#082845"/>
<path d="M280.6 326.796H221.375C220.56 326.796 219.777 327.119 219.2 327.694C218.622 328.27 218.296 329.051 218.293 329.866H283.716C283.715 329.459 283.633 329.057 283.475 328.682C283.318 328.307 283.087 327.967 282.797 327.682C282.508 327.396 282.164 327.171 281.787 327.019C281.41 326.867 281.007 326.791 280.6 326.796Z" fill="#082845"/>
<path d="M300.921 326.796H279.749C278.936 326.799 278.157 327.123 277.581 327.698C277.006 328.273 276.682 329.053 276.679 329.866H304.003C304 329.051 303.674 328.27 303.096 327.694C302.518 327.119 301.736 326.796 300.921 326.796Z" fill="#082845"/>
<path opacity="0.2" d="M300.921 326.796H279.749C278.936 326.799 278.157 327.123 277.581 327.698C277.006 328.273 276.682 329.053 276.679 329.866H304.003C304 329.051 303.674 328.27 303.096 327.694C302.518 327.119 301.736 326.796 300.921 326.796Z" fill="black"/>
</svg>
