<svg width="656" height="523" viewBox="0 0 656 523" fill="none" xmlns="http://www.w3.org/2000/svg">
<circle cx="143" cy="493" r="2" fill="#C4C4C4"/>
<circle cx="547" cy="429" r="2" fill="#C4C4C4"/>
<circle cx="373" cy="2" r="2" fill="#C4C4C4"/>
<circle cx="2" cy="336" r="2" fill="#C4C4C4"/>
<circle cx="355" cy="408" r="2" fill="#C4C4C4"/>
<circle cx="292" cy="220" r="5" fill="#C4C4C4"/>
<circle cx="429" cy="491" r="5" fill="#C4C4C4"/>
<circle cx="237" cy="163" r="2" fill="#C4C4C4"/>
<circle cx="463" cy="257" r="2" fill="#C4C4C4"/>
<circle opacity="0.32" cx="375" cy="171" r="6" fill="#F02D2D" fill-opacity="0.6"/>
<circle opacity="0.32" cx="479" cy="362" r="6" fill="#F02D2D" fill-opacity="0.6"/>
<g opacity="0.32">
<path d="M552.919 169.32C552.66 169.571 552.541 169.934 552.6 170.29L553.489 175.21C553.564 175.627 553.388 176.049 553.039 176.29C552.697 176.54 552.242 176.57 551.869 176.37L547.44 174.06C547.286 173.978 547.115 173.934 546.94 173.929H546.669C546.575 173.943 546.483 173.973 546.399 174.019L541.969 176.34C541.75 176.45 541.502 176.489 541.259 176.45C540.667 176.338 540.272 175.774 540.369 175.179L541.259 170.259C541.318 169.9 541.199 169.535 540.94 169.28L537.329 165.78C537.027 165.487 536.922 165.047 537.06 164.65C537.194 164.254 537.536 163.965 537.949 163.9L542.919 163.179C543.297 163.14 543.629 162.91 543.799 162.57L545.989 158.08C546.041 157.98 546.108 157.888 546.189 157.81L546.279 157.74C546.326 157.688 546.38 157.645 546.44 157.61L546.549 157.57L546.719 157.5H547.14C547.516 157.539 547.847 157.764 548.02 158.1L550.239 162.57C550.399 162.897 550.71 163.124 551.069 163.179L556.039 163.9C556.459 163.96 556.81 164.25 556.949 164.65C557.08 165.051 556.967 165.491 556.659 165.78L552.919 169.32Z" fill="#BE952C" fill-opacity="0.6"/>
</g>
<g opacity="0.32">
<path d="M158.919 196.32C158.66 196.571 158.541 196.934 158.6 197.29L159.489 202.21C159.564 202.627 159.388 203.049 159.039 203.29C158.697 203.54 158.242 203.57 157.869 203.37L153.44 201.06C153.286 200.978 153.115 200.934 152.94 200.929H152.669C152.575 200.943 152.483 200.973 152.399 201.019L147.969 203.34C147.75 203.45 147.502 203.489 147.259 203.45C146.667 203.338 146.272 202.774 146.369 202.179L147.259 197.259C147.318 196.9 147.199 196.535 146.94 196.28L143.329 192.78C143.027 192.487 142.922 192.047 143.06 191.65C143.194 191.254 143.536 190.965 143.949 190.9L148.919 190.179C149.297 190.14 149.629 189.91 149.799 189.57L151.989 185.08C152.041 184.98 152.108 184.888 152.189 184.81L152.279 184.74C152.326 184.688 152.38 184.645 152.44 184.61L152.549 184.57L152.719 184.5H153.14C153.516 184.539 153.847 184.764 154.02 185.1L156.239 189.57C156.399 189.897 156.71 190.124 157.069 190.179L162.039 190.9C162.459 190.96 162.81 191.25 162.949 191.65C163.08 192.051 162.967 192.491 162.659 192.78L158.919 196.32Z" fill="#BE952C" fill-opacity="0.6"/>
</g>
<g opacity="0.32">
<path d="M262.919 513.32C262.66 513.571 262.541 513.934 262.6 514.29L263.489 519.21C263.564 519.627 263.388 520.049 263.039 520.29C262.697 520.54 262.242 520.57 261.869 520.37L257.44 518.06C257.286 517.978 257.115 517.934 256.94 517.929H256.669C256.575 517.943 256.483 517.973 256.399 518.019L251.969 520.34C251.75 520.45 251.502 520.489 251.259 520.45C250.667 520.338 250.272 519.774 250.369 519.179L251.259 514.259C251.318 513.9 251.199 513.535 250.94 513.28L247.329 509.78C247.027 509.487 246.922 509.047 247.06 508.65C247.194 508.254 247.536 507.965 247.949 507.9L252.919 507.179C253.297 507.14 253.629 506.91 253.799 506.57L255.989 502.08C256.041 501.98 256.108 501.888 256.189 501.81L256.279 501.74C256.326 501.688 256.38 501.645 256.44 501.61L256.549 501.57L256.719 501.5H257.14C257.516 501.539 257.847 501.764 258.02 502.1L260.239 506.57C260.399 506.897 260.71 507.124 261.069 507.179L266.039 507.9C266.459 507.96 266.81 508.25 266.949 508.65C267.08 509.051 266.967 509.491 266.659 509.78L262.919 513.32Z" fill="#BE952C" fill-opacity="0.6"/>
</g>
<circle opacity="0.32" cx="600" cy="64" r="6" fill="#2CBC40" fill-opacity="0.6"/>
<circle opacity="0.32" cx="290" cy="437" r="6" fill="#2CBC40" fill-opacity="0.6"/>
<circle opacity="0.32" cx="281" cy="20" r="6" fill="#F02D2D" fill-opacity="0.6"/>
<circle opacity="0.32" cx="53" cy="501" r="6" fill="#F02D2D" fill-opacity="0.6"/>
<circle cx="85" cy="43" r="2" fill="#C4C4C4"/>
<circle cx="451" cy="88" r="2" fill="#C4C4C4"/>
<circle cx="654" cy="189" r="2" fill="#C4C4C4"/>
</svg>
