<svg width="1440" height="472" viewBox="0 0 1440 472" fill="none" xmlns="http://www.w3.org/2000/svg">
<rect x="-4" width="24" height="24" fill="#2CBC40" fill-opacity="0.14"/>
<rect width="24" height="24" transform="matrix(1 0 0 -1 -4 212)" fill="#2CBC40" fill-opacity="0.14"/>
<rect x="-4" y="32" width="24" height="24" fill="#2CBC40" fill-opacity="0.14"/>
<rect width="24" height="24" transform="matrix(1 0 0 -1 -4 182)" fill="#2CBC40" fill-opacity="0.14"/>
<rect x="-4" y="64" width="24" height="24" fill="#2CBC40" fill-opacity="0.14"/>
<rect width="24" height="24" transform="matrix(1 0 0 -1 -4 152)" fill="#2CBC40" fill-opacity="0.14"/>
<rect x="-4" y="96" width="24" height="24" fill="#2CBC40" fill-opacity="0.14"/>
<rect x="28" y="32" width="24" height="24" fill="#2CBC40" fill-opacity="0.14"/>
<rect width="24" height="24" transform="matrix(1 0 0 -1 28 182)" fill="#2CBC40" fill-opacity="0.14"/>
<rect x="28" y="64" width="24" height="24" fill="#2CBC40" fill-opacity="0.14"/>
<rect width="24" height="24" transform="matrix(1 0 0 -1 28 152)" fill="#2CBC40" fill-opacity="0.14"/>
<rect x="28" y="96" width="24" height="24" fill="#2CBC40" fill-opacity="0.14"/>
<rect x="60" y="64" width="24" height="24" fill="#2CBC40" fill-opacity="0.14"/>
<rect width="24" height="24" transform="matrix(1 0 0 -1 60 152)" fill="#2CBC40" fill-opacity="0.14"/>
<rect x="60" y="96" width="24" height="24" fill="#2CBC40" fill-opacity="0.14"/>
<rect x="92" y="96" width="24" height="24" fill="#2CBC40" fill-opacity="0.14"/>
<rect width="24" height="24" transform="matrix(-1 0 0 1 1440 260)" fill="#2CBC40" fill-opacity="0.14"/>
<rect x="1440" y="472" width="24" height="24" transform="rotate(180 1440 472)" fill="#2CBC40" fill-opacity="0.14"/>
<rect width="24" height="24" transform="matrix(-1 0 0 1 1440 292)" fill="#2CBC40" fill-opacity="0.14"/>
<rect x="1440" y="442" width="24" height="24" transform="rotate(180 1440 442)" fill="#2CBC40" fill-opacity="0.14"/>
<rect width="24" height="24" transform="matrix(-1 0 0 1 1440 324)" fill="#2CBC40" fill-opacity="0.14"/>
<rect x="1440" y="412" width="24" height="24" transform="rotate(180 1440 412)" fill="#2CBC40" fill-opacity="0.14"/>
<rect width="24" height="24" transform="matrix(-1 0 0 1 1440 356)" fill="#2CBC40" fill-opacity="0.14"/>
<rect width="24" height="24" transform="matrix(-1 0 0 1 1408 292)" fill="#2CBC40" fill-opacity="0.14"/>
<rect x="1408" y="442" width="24" height="24" transform="rotate(180 1408 442)" fill="#2CBC40" fill-opacity="0.14"/>
<rect width="24" height="24" transform="matrix(-1 0 0 1 1408 324)" fill="#2CBC40" fill-opacity="0.14"/>
<rect x="1408" y="412" width="24" height="24" transform="rotate(180 1408 412)" fill="#2CBC40" fill-opacity="0.14"/>
<rect width="24" height="24" transform="matrix(-1 0 0 1 1408 356)" fill="#2CBC40" fill-opacity="0.14"/>
<rect width="24" height="24" transform="matrix(-1 0 0 1 1376 324)" fill="#2CBC40" fill-opacity="0.14"/>
<rect x="1376" y="412" width="24" height="24" transform="rotate(180 1376 412)" fill="#2CBC40" fill-opacity="0.14"/>
<rect width="24" height="24" transform="matrix(-1 0 0 1 1376 356)" fill="#2CBC40" fill-opacity="0.14"/>
<rect width="24" height="24" transform="matrix(-1 0 0 1 1344 356)" fill="#2CBC40" fill-opacity="0.14"/>
</svg>
