<svg width="72" height="72" viewBox="0 0 72 72" fill="none" xmlns="http://www.w3.org/2000/svg">
<circle cx="36" cy="36" r="36" fill="#0F3E15"/>
<path d="M46 30.6667H42.6666V28C42.6666 26.5334 41.4666 25.3334 40 25.3334H24C22.5333 25.3334 21.3333 26.5334 21.3333 28V40C21.3333 41.4667 22.5333 42.6667 24 42.6667C24 44.88 25.7866 46.6667 28 46.6667C30.2133 46.6667 32 44.88 32 42.6667H40C40 44.88 41.7866 46.6667 44 46.6667C46.2133 46.6667 48 44.88 48 42.6667H49.3333C50.0666 42.6667 50.6666 42.0667 50.6666 41.3334V36.8934C50.6666 36.32 50.48 35.76 50.1333 35.2934L47.0666 31.2C46.8133 30.8667 46.4133 30.6667 46 30.6667ZM28 44C27.2666 44 26.6666 43.4 26.6666 42.6667C26.6666 41.9334 27.2666 41.3334 28 41.3334C28.7333 41.3334 29.3333 41.9334 29.3333 42.6667C29.3333 43.4 28.7333 44 28 44ZM46 32.6667L48.6133 36H42.6666V32.6667H46ZM44 44C43.2666 44 42.6666 43.4 42.6666 42.6667C42.6666 41.9334 43.2666 41.3334 44 41.3334C44.7333 41.3334 45.3333 41.9334 45.3333 42.6667C45.3333 43.4 44.7333 44 44 44Z" fill="white"/>
</svg>
