<svg width="24" height="24" viewBox="0 0 24 24" fill="none" xmlns="http://www.w3.org/2000/svg">
<rect width="24" height="24" rx="12" fill="#777777"/>
<path d="M15.2103 5H8.78967C6.70001 5 5 6.70001 5 8.78967V15.2104C5 17.3 6.70001 19 8.78967 19H15.2104C17.3 19 19 17.3 19 15.2104V8.78967C19 6.70001 17.3 5 15.2103 5V5ZM18.1792 15.2104C18.1792 16.8474 16.8474 18.1792 15.2103 18.1792H8.78967C7.15257 18.1792 5.82074 16.8474 5.82074 15.2104V8.78967C5.82074 7.15257 7.15257 5.82074 8.78967 5.82074H15.2104C16.8474 5.82074 18.1792 7.15257 18.1792 8.78967V15.2104Z" fill="white"/>
<path d="M12 8.17197C9.8892 8.17197 8.172 9.88918 8.172 12C8.172 14.1108 9.8892 15.828 12 15.828C14.1108 15.828 15.828 14.1108 15.828 12C15.828 9.88918 14.1108 8.17197 12 8.17197ZM12 15.0073C10.3419 15.0073 8.99274 13.6582 8.99274 12C8.99274 10.3418 10.3419 8.99271 12 8.99271C13.6583 8.99271 15.0073 10.3418 15.0073 12C15.0073 13.6582 13.6583 15.0073 12 15.0073Z" fill="white"/>
<path d="M15.9196 6.81248C15.2958 6.81248 14.7885 7.31994 14.7885 7.94361C14.7885 8.56739 15.2958 9.07485 15.9196 9.07485C16.5434 9.07485 17.0508 8.56739 17.0508 7.94361C17.0508 7.31983 16.5434 6.81248 15.9196 6.81248ZM15.9196 8.254C15.7485 8.254 15.6092 8.11472 15.6092 7.94361C15.6092 7.77239 15.7485 7.63322 15.9196 7.63322C16.0908 7.63322 16.2301 7.77239 16.2301 7.94361C16.2301 8.11472 16.0908 8.254 15.9196 8.254Z" fill="white"/>
</svg>
