<svg width="24" height="24" viewBox="0 0 24 24" fill="none" xmlns="http://www.w3.org/2000/svg">
<rect width="24" height="24" rx="12" fill="url(#paint0_linear)"/>
<path d="M15.2103 5H8.78967C6.70001 5 5 6.70001 5 8.78967V15.2104C5 17.3 6.70001 19 8.78967 19H15.2104C17.3 19 19 17.3 19 15.2104V8.78967C19 6.70001 17.3 5 15.2103 5V5ZM18.1792 15.2104C18.1792 16.8474 16.8474 18.1792 15.2103 18.1792H8.78967C7.15257 18.1792 5.82074 16.8474 5.82074 15.2104V8.78967C5.82074 7.15257 7.15257 5.82074 8.78967 5.82074H15.2104C16.8474 5.82074 18.1792 7.15257 18.1792 8.78967V15.2104Z" fill="white"/>
<path d="M11.9999 8.17197C9.88908 8.17197 8.17188 9.88917 8.17188 12C8.17188 14.1108 9.88908 15.828 11.9999 15.828C14.1107 15.828 15.8279 14.1108 15.8279 12C15.8279 9.88917 14.1107 8.17197 11.9999 8.17197ZM11.9999 15.0072C10.3417 15.0072 8.99261 13.6582 8.99261 12C8.99261 10.3418 10.3417 8.9927 11.9999 8.9927C13.6581 8.9927 15.0072 10.3418 15.0072 12C15.0072 13.6582 13.6581 15.0072 11.9999 15.0072Z" fill="white"/>
<path d="M15.9197 6.81247C15.2959 6.81247 14.7886 7.31993 14.7886 7.9436C14.7886 8.56738 15.2959 9.07484 15.9197 9.07484C16.5435 9.07484 17.0509 8.56738 17.0509 7.9436C17.0509 7.31982 16.5435 6.81247 15.9197 6.81247ZM15.9197 8.25399C15.7486 8.25399 15.6093 8.11471 15.6093 7.9436C15.6093 7.77238 15.7486 7.63321 15.9197 7.63321C16.0909 7.63321 16.2302 7.77238 16.2302 7.9436C16.2302 8.11471 16.0909 8.25399 15.9197 8.25399Z" fill="white"/>
<defs>
<linearGradient id="paint0_linear" x1="12" y1="0" x2="12" y2="24" gradientUnits="userSpaceOnUse">
<stop stop-color="#BB46AF"/>
<stop offset="1" stop-color="#BE3535"/>
</linearGradient>
</defs>
</svg>
