<svg width="760" height="507" viewBox="0 0 760 507" fill="none" xmlns="http://www.w3.org/2000/svg">
<path d="M610.939 162.057H676.035C676.035 162.057 670.279 151.573 653.519 153.104C637.518 154.564 636.708 147.943 628.571 147.131C620.434 146.32 613.644 152.556 610.939 162.057Z" fill="#F5F5F5"/>
<path d="M358.041 91.26H470.44C470.44 91.26 460.499 73.1601 431.569 75.7965C403.935 78.3315 402.526 66.924 388.482 65.5044C374.437 64.0848 362.773 74.8839 358.041 91.26Z" fill="#F1F1F1"/>
<path d="M695.727 62.0482C702.488 56.0146 703.08 45.6395 697.051 38.8747C691.021 32.1099 680.653 31.5172 673.892 37.5507C667.132 43.5843 666.54 53.9594 672.569 60.7242C678.599 67.489 688.967 68.0818 695.727 62.0482Z" fill="#EBEBEB"/>
<path d="M684.658 81.7875C684.332 78.6255 684.223 75.4449 684.33 72.268C684.222 69.0911 684.332 65.9105 684.658 62.7486C684.984 65.9105 685.094 69.0911 684.986 72.268C685.093 75.4449 684.984 78.6255 684.658 81.7875Z" fill="#EBEBEB"/>
<path d="M715.777 49.7824C709.179 50.2201 702.559 50.2201 695.96 49.7824C702.559 49.3447 709.179 49.3447 715.777 49.7824Z" fill="#EBEBEB"/>
<path d="M684.867 22C685.192 24.8974 685.302 27.815 685.194 30.7286C685.302 33.6373 685.193 36.55 684.867 39.4424C684.54 36.55 684.431 33.6373 684.539 30.7286C684.431 27.815 684.541 24.8974 684.867 22Z" fill="#EBEBEB"/>
<path d="M676.024 50.9612C669.023 51.3989 662.001 51.3989 655 50.9612C662.001 50.5235 669.023 50.5235 676.024 50.9612Z" fill="#EBEBEB"/>
<path d="M677.411 44.5304C675.279 42.8794 673.284 41.0581 671.447 39.0843C669.469 37.2503 667.649 35.2539 666.004 33.116C668.136 34.767 670.131 36.5883 671.969 38.5621C673.941 40.401 675.761 42.3969 677.411 44.5304Z" fill="#EBEBEB"/>
<path d="M702.238 33.3696C701.021 35.0789 699.626 36.6544 698.078 38.0697C696.681 39.6469 695.121 41.0722 693.426 42.3221C694.653 40.6118 696.052 39.0319 697.601 37.6071C698.997 36.0393 700.551 34.6193 702.238 33.3696Z" fill="#EBEBEB"/>
<path d="M703.416 68.5826C701.362 66.9869 699.442 65.2253 697.675 63.3156C695.757 61.5575 693.996 59.6354 692.412 57.5711C694.475 59.1564 696.395 60.9188 698.152 62.8381C700.066 64.6009 701.826 66.5226 703.416 68.5826Z" fill="#EBEBEB"/>
<path d="M681.213 56.3476C679.028 59.0049 676.678 61.5216 674.176 63.8826C671.834 66.3827 669.345 68.7395 666.72 70.9401C668.895 68.3017 671.241 65.8095 673.743 63.4797C676.085 60.9521 678.58 58.5702 681.213 56.3476Z" fill="#EBEBEB"/>
<path d="M161.465 178.525H216.185C216.185 178.525 211.341 169.713 197.245 170.991C183.788 172.218 183.059 166.661 176.259 165.972C169.46 165.282 163.745 170.535 161.465 178.525Z" fill="#F1F1F1"/>
<path d="M597.289 450.297C597.289 450.297 597.218 450.388 597.056 450.53L596.337 451.159C596.002 451.423 595.577 451.717 595.07 452.072C594.465 452.446 593.839 452.784 593.195 453.086C591.42 453.91 589.536 454.48 587.602 454.779C585.043 455.167 582.447 455.242 579.87 455.002C576.758 454.688 573.676 454.136 570.649 453.349C567.376 452.568 563.91 451.625 560.201 450.987C556.328 450.274 552.363 450.202 548.467 450.774C544.29 451.459 540.166 452.435 536.124 453.694C532.058 454.957 527.906 455.926 523.701 456.594C519.749 457.14 515.735 457.041 511.814 456.3C508.294 455.627 504.81 454.774 501.377 453.745C498.145 452.812 495.135 451.97 492.348 451.342C489.852 450.769 487.314 450.396 484.758 450.226C483.623 450.226 482.57 450.226 481.607 450.277C480.727 450.336 479.851 450.441 478.982 450.591L476.956 451.037L475.486 451.544L474.585 451.849C474.479 451.887 474.371 451.918 474.26 451.94C474.355 451.88 474.457 451.832 474.564 451.798L475.446 451.443C475.841 451.291 476.327 451.088 476.915 450.885L478.942 450.388C479.816 450.22 480.699 450.098 481.587 450.023C482.6 449.902 483.613 449.973 484.769 449.932C487.346 450.06 489.908 450.399 492.429 450.946C495.226 451.554 498.256 452.376 501.489 453.288C504.915 454.303 508.392 455.135 511.906 455.783C515.773 456.506 519.733 456.599 523.63 456.057C527.811 455.383 531.938 454.414 535.982 453.157C540.046 451.887 544.194 450.908 548.396 450.226C552.345 449.657 556.361 449.743 560.282 450.48C564.021 451.129 567.487 452.092 570.75 452.893C573.742 453.693 576.791 454.266 579.87 454.607C582.42 454.862 584.992 454.811 587.531 454.454C589.441 454.18 591.306 453.648 593.074 452.873C594.583 452.199 596 451.333 597.289 450.297Z" fill="#E0E0E0"/>
<path d="M214.452 466.572C214.382 466.654 214.304 466.729 214.219 466.795L213.499 467.434C213.168 467.691 212.743 467.995 212.222 468.346C209.953 469.762 207.412 470.688 204.764 471.064C202.206 471.452 199.609 471.527 197.033 471.287C193.921 470.969 190.838 470.413 187.811 469.624C184.538 468.843 181.073 467.9 177.354 467.271C173.484 466.555 169.523 466.48 165.629 467.048C161.453 467.739 157.33 468.715 153.287 469.969C149.217 471.236 145.062 472.208 140.853 472.879C136.901 473.422 132.887 473.319 128.967 472.575C125.445 471.907 121.962 471.054 118.53 470.019C115.297 469.097 112.287 468.245 109.501 467.626C107.003 467.044 104.461 466.67 101.901 466.511C100.776 466.511 99.7221 466.45 98.7594 466.511C97.8794 466.572 97.0034 466.681 96.1349 466.835L94.1083 467.282L92.6389 467.778L91.7269 468.093C91.6259 468.133 91.5204 468.16 91.4128 468.174L91.7066 468.042L92.5984 467.687C92.9936 467.535 93.48 467.332 94.0576 467.129L96.0842 466.633C96.9579 466.459 97.841 466.337 98.729 466.268C99.7424 466.146 100.756 466.207 101.911 466.176C104.489 466.295 107.052 466.634 109.572 467.19C112.369 467.789 115.398 468.62 118.631 469.533C121.863 470.445 125.329 471.388 129.038 472.027C132.91 472.747 136.872 472.836 140.772 472.291C144.958 471.648 149.092 470.709 153.145 469.482C157.209 468.216 161.357 467.24 165.558 466.562C169.504 465.989 173.516 466.072 177.435 466.805C181.184 467.464 184.65 468.427 187.913 469.218C190.905 470.019 193.954 470.592 197.033 470.932C199.579 471.191 202.148 471.143 204.683 470.79C206.598 470.514 208.466 469.978 210.236 469.198C211.748 468.507 213.165 467.624 214.452 466.572Z" fill="#E0E0E0"/>
<path d="M389.718 455.073C389.718 455.073 389.11 454.515 387.853 453.735C386.051 452.688 384.041 452.048 381.966 451.859C378.885 451.59 375.781 451.823 372.775 452.548C369.36 453.248 365.611 454.353 361.507 454.576C357.403 454.799 353.582 453.633 350.198 452.812C348.601 452.379 346.98 452.04 345.344 451.798C343.922 451.617 342.484 451.596 341.058 451.737C338.981 451.894 336.983 452.593 335.261 453.765C334.66 454.236 334.091 454.748 333.559 455.296C333.982 454.643 334.517 454.07 335.14 453.603C336.857 452.332 338.89 451.557 341.017 451.362C342.471 451.194 343.94 451.194 345.395 451.362C347.055 451.572 348.699 451.886 350.319 452.305C353.724 453.116 357.463 454.262 361.466 454.018C365.469 453.775 369.208 452.731 372.613 452.051C375.67 451.338 378.824 451.14 381.946 451.463C384.062 451.689 386.097 452.401 387.894 453.542C388.375 453.854 388.823 454.214 389.231 454.617C389.41 454.75 389.573 454.903 389.718 455.073Z" fill="#E0E0E0"/>
<path d="M607.635 253.399H605.649V325.524H607.635V253.399Z" fill="#E0E0E0"/>
<path d="M612.398 253.399H610.412V325.524H612.398V253.399Z" fill="#E0E0E0"/>
<path d="M630.557 253.399H628.571V325.524H630.557V253.399Z" fill="#E0E0E0"/>
<path d="M589 253.399H587.014V325.524H589V253.399Z" fill="#E0E0E0"/>
<path d="M607.625 253.399H587.014V255.437H607.625V253.399Z" fill="#E0E0E0"/>
<path d="M654.715 258.306H513.902V260.659H654.715V258.306Z" fill="#E0E0E0"/>
<path d="M630.557 289.456H588.007V291.657H630.557V289.456Z" fill="#E0E0E0"/>
<path d="M629.969 261.842L628.468 260.916L610.762 289.636L612.263 290.563L629.969 261.842Z" fill="#E0E0E0"/>
<path d="M607.206 260.981L605.705 260.054L587.999 288.775L589.5 289.701L607.206 260.981Z" fill="#E0E0E0"/>
<path d="M640.143 248.329H608.567V258.317H640.143V248.329Z" fill="#E0E0E0"/>
<path d="M546.379 259.787L596.154 221.66L613.877 251.3L614.546 250.904L596.367 220.525L596.022 220.788L545.913 259.178L546.379 259.787Z" fill="#E0E0E0"/>
<path d="M586.538 259.838L596.235 219.551L607.686 261.43L586.538 259.838ZM587.5 259.138L606.662 260.598L596.286 222.654L587.5 259.138Z" fill="#E0E0E0"/>
<path d="M698.937 323.973H484.89V337.094H698.937V323.973Z" fill="#E0E0E0"/>
<path d="M539.509 297.102H560.373V324.389H539.509V297.102ZM559.573 297.873H540.32V323.618H559.573V297.873Z" fill="#E0E0E0"/>
<path d="M576.637 297.457H559.958V325.524H576.637V297.457Z" fill="#E0E0E0"/>
<path d="M435.399 308.023H438.865V181.972H435.399V308.023Z" fill="#E0E0E0"/>
<path d="M427.059 308.023H430.525V181.972H427.059V308.023Z" fill="#E0E0E0"/>
<path d="M395.332 308.023H398.797V181.972H395.332V308.023Z" fill="#E0E0E0"/>
<path d="M467.957 308.023H471.423V181.972H467.957V308.023Z" fill="#E0E0E0"/>
<path d="M435.399 185.532H471.423V181.972H435.399V185.532Z" fill="#E0E0E0"/>
<path d="M353.106 194.658L599.194 194.658V190.551L353.106 190.551V194.658Z" fill="#E0E0E0"/>
<path d="M395.332 248.836H469.69V245.003H395.332V248.836Z" fill="#E0E0E0"/>
<path d="M427.294 246.917L429.924 245.293L398.982 195.101L396.351 196.725L427.294 246.917Z" fill="#E0E0E0"/>
<path d="M466.68 247.91L469.307 246.271L438.071 196.143L435.444 197.782L466.68 247.91Z" fill="#E0E0E0"/>
<path d="M378.581 190.551H433.767V173.1H378.581V190.551Z" fill="#E0E0E0"/>
<path d="M542.437 193.147L455.463 126.507L424.465 178.302L423.32 177.612L455.078 124.529L455.676 124.986L543.258 192.082L542.437 193.147Z" fill="#E0E0E0"/>
<path d="M435.298 196.006L455.311 122.826L472.264 193.218L435.298 196.006ZM455.23 128.21L437.091 194.526L470.582 192.001L455.23 128.21Z" fill="#E0E0E0"/>
<path d="M187.082 425.748C187.082 425.748 186.362 425.383 185.055 424.734C183.273 423.778 181.321 423.182 179.309 422.98C177.913 422.94 176.517 423.048 175.145 423.304C173.645 423.538 172.105 423.822 170.392 424.207C167.078 424.917 163.41 425.941 159.407 426.012C155.405 426.083 151.726 424.886 148.433 424.105C146.877 423.701 145.296 423.4 143.701 423.203C142.317 423.051 140.92 423.051 139.536 423.203C137.522 423.386 135.589 424.084 133.922 425.231C133.344 425.692 132.792 426.187 132.27 426.711C132.359 426.541 132.472 426.384 132.605 426.245C132.951 425.803 133.353 425.408 133.801 425.069C135.455 423.813 137.42 423.031 139.485 422.808C140.9 422.62 142.331 422.596 143.751 422.737C145.367 422.912 146.969 423.2 148.545 423.598C151.868 424.369 155.486 425.525 159.397 425.454C163.309 425.383 166.957 424.389 170.291 423.7C171.963 423.335 173.574 423.061 175.084 422.838C176.485 422.595 177.909 422.506 179.33 422.574C181.383 422.811 183.364 423.474 185.146 424.521C185.785 424.876 186.261 425.16 186.585 425.373C186.769 425.472 186.936 425.598 187.082 425.748Z" fill="#263238"/>
<path d="M686.412 386.06C686.412 386.06 685.804 385.492 684.547 384.722C682.751 383.667 680.744 383.023 678.67 382.836C675.588 382.566 672.484 382.802 669.479 383.535C666.054 384.225 662.315 385.33 658.211 385.563C654.107 385.797 650.276 384.62 646.902 383.789C645.302 383.355 643.678 383.016 642.038 382.775C640.615 382.602 639.178 382.585 637.751 382.724C635.677 382.876 633.681 383.576 631.965 384.752C631.38 385.249 630.821 385.777 630.293 386.334C630.722 385.685 631.26 385.115 631.884 384.651C633.594 383.371 635.625 382.592 637.751 382.4C639.206 382.232 640.675 382.232 642.129 382.4C643.788 382.611 645.433 382.922 647.054 383.333C650.459 384.144 654.147 385.29 658.2 385.056C662.254 384.823 665.952 383.758 669.398 383.089C672.453 382.366 675.609 382.168 678.731 382.501C680.848 382.721 682.885 383.433 684.679 384.58C685.161 384.89 685.613 385.247 686.027 385.645C686.29 385.898 686.432 386.04 686.412 386.06Z" fill="#263238"/>
<path d="M125.106 396.038C125.106 396.089 124.498 395.48 123.242 394.699C121.443 393.653 119.437 393.012 117.364 392.824C114.284 392.555 111.18 392.787 108.173 393.513C104.748 394.213 100.999 395.318 96.9051 395.541C92.8112 395.764 88.9707 394.598 85.5861 393.777C83.9897 393.343 82.3689 393.004 80.7323 392.763C79.3103 392.582 77.8724 392.561 76.4459 392.702C74.3697 392.859 72.3711 393.558 70.6496 394.73C70.0363 395.213 69.4542 395.735 68.9067 396.291C69.3299 395.638 69.865 395.065 70.4875 394.598C72.2048 393.327 74.2377 392.552 76.3648 392.357C77.8192 392.189 79.288 392.189 80.7424 392.357C82.4023 392.567 84.0472 392.882 85.6672 393.3C89.072 394.111 92.7605 395.257 96.8139 395.014C100.867 394.77 104.556 393.726 108.011 393.047C111.068 392.334 114.222 392.135 117.344 392.459C119.461 392.683 121.496 393.394 123.292 394.537C123.776 394.85 124.228 395.21 124.64 395.612C124.809 395.738 124.965 395.881 125.106 396.038Z" fill="#263238"/>
<path d="M643.071 427.979C642.779 427.928 642.491 427.854 642.21 427.756C641.643 427.604 640.822 427.34 639.768 427.006C637.65 426.336 634.63 425.221 630.81 424.156C628.734 423.573 626.617 423.149 624.477 422.889C622.026 422.6 619.55 422.6 617.1 422.889C611.901 423.457 606.318 425.049 600.278 425.819C597.334 426.235 594.346 426.235 591.402 425.819C588.554 425.434 585.848 424.856 583.295 424.318C578.178 423.213 573.496 422.443 569.544 422.645C566.42 422.716 563.343 423.427 560.505 424.734C559.748 425.117 559.014 425.543 558.306 426.012C558.069 426.196 557.818 426.362 557.556 426.509C558.417 425.731 559.378 425.073 560.414 424.552C563.257 423.151 566.366 422.373 569.534 422.27C573.587 422.017 578.279 422.767 583.406 423.842C588.534 424.917 594.239 426.225 600.248 425.292C606.227 424.521 611.82 422.95 617.069 422.392C619.557 422.097 622.07 422.097 624.558 422.392C626.716 422.678 628.85 423.125 630.942 423.73C634.762 424.856 637.762 426.022 639.859 426.772L642.271 427.614C642.549 427.708 642.818 427.831 643.071 427.979Z" fill="#263238"/>
<path d="M457.368 317.494H65.9984V341.485H457.368V317.494Z" fill="#263238"/>
<path d="M203.771 318.001H166.075V268.517H203.771V318.001ZM167.089 316.987H202.758V269.531H167.089V316.987Z" fill="#263238"/>
<path d="M233.766 269.024H203.265V320.343H233.766V269.024Z" fill="#263238"/>
<path d="M290.431 132.905H286.804V320.89H290.431V132.905Z" fill="#263238"/>
<path d="M299.146 132.905H295.518V320.89H299.146V132.905Z" fill="#263238"/>
<path d="M332.353 132.905H328.725V320.89H332.353V132.905Z" fill="#263238"/>
<path d="M256.363 132.905H252.735V320.89H256.363V132.905Z" fill="#263238"/>
<path d="M290.421 132.905H252.735V136.636H290.421V132.905Z" fill="#263238"/>
<path d="M376.524 141.889H119.057V146.178H376.524V141.889Z" fill="#263238"/>
<path d="M332.353 198.845H254.549V202.861H332.353V198.845Z" fill="#263238"/>
<path d="M331.302 148.326L328.551 146.628L296.177 199.141L298.928 200.839L331.302 148.326Z" fill="#263238"/>
<path d="M289.597 146.809L286.846 145.11L254.472 197.624L257.223 199.322L289.597 146.809Z" fill="#263238"/>
<path d="M349.874 123.627H292.134V141.889H349.874V123.627Z" fill="#263238"/>
<path d="M178.316 144.434L177.698 143.633L269.78 73.0891L302.895 128.443L302.034 128.971L269.496 74.5898L178.316 144.434Z" fill="#263238"/>
<path d="M290.279 147.375L252.107 144.495L269.607 71.8013L290.279 147.375ZM253.333 143.572L288.881 146.249L269.628 75.8776L253.333 143.572Z" fill="#263238"/>
<path d="M101.637 215.424L104.708 198.754L123.677 141.727L124.64 142.051L105.681 199.008L102.853 214.39L165.873 213.285L141.198 142.051L142.161 141.717L167.291 214.268L101.637 215.424Z" fill="#263238"/>
<path d="M110.585 199.809H85.9509V229.752H110.585V199.809Z" fill="#263238"/>
<path d="M179.482 199.809H110.595V229.752H179.482V199.809Z" fill="#263238"/>
<path d="M98.7899 229.752C98.6379 229.752 98.5264 223.1 98.5264 214.907C98.5264 206.714 98.6379 200.062 98.7899 200.062C98.9419 200.062 99.0534 206.704 99.0534 214.907C99.0534 223.11 98.9318 229.752 98.7899 229.752Z" fill="#455A64"/>
<path d="M110.595 229.752C110.453 229.752 110.332 223.1 110.332 214.907C110.332 206.714 110.453 200.062 110.595 200.062C110.737 200.062 110.859 206.704 110.859 214.907C110.859 223.11 110.737 229.752 110.595 229.752Z" fill="#455A64"/>
<path d="M175.611 226.335C175.611 226.335 175.611 226.183 175.611 225.919C175.611 225.656 175.611 225.23 175.611 224.723C175.611 223.658 175.611 222.137 175.56 220.18C175.56 216.225 175.509 210.527 175.469 203.419L175.641 203.601L113.564 203.682C113.321 203.926 113.878 203.368 113.828 203.429V209.35C113.828 211.318 113.828 213.254 113.828 215.171V226.325L113.493 226.122L157.908 226.244L170.858 226.315H174.344H175.256C175.361 226.306 175.466 226.306 175.57 226.315H175.307H174.425H171L158.1 226.386L113.514 226.507H113.25V209.269C113.25 208.255 113.25 207.302 113.25 206.308V203.348L113.524 203.074L175.601 203.165H175.783V203.337C175.783 210.435 175.712 216.225 175.682 220.21C175.682 222.147 175.682 223.658 175.682 224.713C175.682 225.199 175.682 225.585 175.682 225.868C175.681 226.027 175.657 226.184 175.611 226.335Z" fill="#455A64"/>
<path d="M118.327 226.335C118.175 226.335 118.063 221.204 118.063 214.877C118.063 208.549 118.175 203.419 118.327 203.419C118.479 203.419 118.59 208.549 118.59 214.877C118.59 221.204 118.469 226.335 118.327 226.335Z" fill="#455A64"/>
<path d="M124.164 226.335C124.012 226.335 123.9 221.204 123.9 214.877C123.9 208.549 124.012 203.419 124.164 203.419C124.316 203.419 124.427 208.549 124.427 214.877C124.427 221.204 124.306 226.335 124.164 226.335Z" fill="#455A64"/>
<path d="M130.001 226.335C129.859 226.335 129.737 221.204 129.737 214.877C129.737 208.549 129.859 203.419 130.001 203.419C130.142 203.419 130.264 208.549 130.264 214.877C130.264 221.204 130.142 226.335 130.001 226.335Z" fill="#455A64"/>
<path d="M135.837 226.335C135.695 226.335 135.574 221.204 135.574 214.877C135.574 208.549 135.695 203.419 135.837 203.419C135.979 203.419 136.101 208.549 136.101 214.877C136.101 221.204 135.989 226.335 135.837 226.335Z" fill="#455A64"/>
<path d="M141.674 226.335C141.532 226.335 141.411 221.204 141.411 214.877C141.411 208.549 141.532 203.419 141.674 203.419C141.816 203.419 141.938 208.549 141.938 214.877C141.938 221.204 141.867 226.335 141.674 226.335Z" fill="#455A64"/>
<path d="M147.521 226.335C147.369 226.335 147.247 221.204 147.247 214.877C147.247 208.549 147.369 203.419 147.521 203.419C147.673 203.419 147.785 208.549 147.785 214.877C147.785 221.204 147.663 226.335 147.521 226.335Z" fill="#455A64"/>
<path d="M153.358 226.335C153.206 226.335 153.094 221.204 153.094 214.877C153.094 208.549 153.206 203.419 153.358 203.419C153.51 203.419 153.621 208.549 153.621 214.877C153.621 221.204 153.5 226.335 153.358 226.335Z" fill="#455A64"/>
<path d="M159.195 226.335C159.043 226.335 158.931 221.204 158.931 214.877C158.931 208.549 159.043 203.419 159.195 203.419C159.347 203.419 159.458 208.549 159.458 214.877C159.458 221.204 159.337 226.335 159.195 226.335Z" fill="#455A64"/>
<path d="M165.031 226.335C164.89 226.335 164.768 221.204 164.768 214.877C164.768 208.549 164.89 203.419 165.031 203.419C165.173 203.419 165.295 208.549 165.295 214.877C165.295 221.204 165.173 226.335 165.031 226.335Z" fill="#455A64"/>
<path d="M170.868 226.335C170.726 226.335 170.605 221.204 170.605 214.877C170.605 208.549 170.726 203.419 170.868 203.419C171.01 203.419 171.132 208.549 171.132 214.877C171.132 221.204 171.02 226.335 170.868 226.335Z" fill="#455A64"/>
<path d="M522.09 292.782H511.977V275.504H519.121L522.09 292.782Z" fill="#2CBC40"/>
<path d="M308.236 301.371H283.602V331.314H308.236V301.371Z" fill="#2CBC40"/>
<path opacity="0.4" d="M308.236 301.371H283.602V331.314H308.236V301.371Z" fill="white"/>
<path d="M377.132 301.371H308.246V331.314H377.132V301.371Z" fill="#2CBC40"/>
<path opacity="0.2" d="M377.132 301.371H308.246V331.314H377.132V301.371Z" fill="white"/>
<path d="M296.43 331.314C296.288 331.314 296.167 324.663 296.167 316.469C296.167 308.276 296.288 301.635 296.43 301.635C296.572 301.635 296.694 308.276 296.694 316.469C296.694 324.663 296.582 331.314 296.43 331.314Z" fill="#263238"/>
<path d="M373.261 327.897C373.254 327.759 373.254 327.62 373.261 327.481C373.261 327.187 373.261 326.792 373.261 326.295C373.261 325.23 373.261 323.699 373.261 321.742C373.261 317.788 373.201 312.089 373.16 304.991L373.342 305.163L311.266 305.255C311.022 305.488 311.58 304.93 311.519 304.991V316.743C311.519 320.576 311.519 324.308 311.519 327.897L311.266 327.644L355.68 327.755L368.641 327.826H372.126H373.038H373.353H373.069H372.187H368.762L355.852 327.897L311.266 328.019H311.012V327.765C311.012 324.176 311.012 320.444 311.012 316.611V304.991C310.951 305.042 311.519 304.484 311.286 304.727L373.363 304.808H373.545V304.991C373.545 312.089 373.464 317.869 373.444 321.854C373.444 323.79 373.444 325.301 373.444 326.356C373.444 326.853 373.444 327.228 373.444 327.512C373.393 327.645 373.332 327.774 373.261 327.897Z" fill="#263238"/>
<path d="M315.967 327.897C315.826 327.897 315.704 322.766 315.704 316.439C315.704 310.112 315.826 304.991 315.967 304.991C316.109 304.991 316.231 310.112 316.231 316.439C316.231 322.766 316.16 327.897 315.967 327.897Z" fill="#263238"/>
<path d="M321.814 327.897C321.662 327.897 321.541 322.766 321.541 316.439C321.541 310.112 321.662 304.991 321.814 304.991C321.966 304.991 322.078 310.112 322.078 316.439C322.078 322.766 321.956 327.897 321.814 327.897Z" fill="#263238"/>
<path d="M327.651 327.897C327.499 327.897 327.388 322.766 327.388 316.439C327.388 310.112 327.499 304.991 327.651 304.991C327.803 304.991 327.915 310.112 327.915 316.439C327.915 322.766 327.793 327.897 327.651 327.897Z" fill="#263238"/>
<path d="M333.488 327.897C333.336 327.897 333.224 322.766 333.224 316.439C333.224 310.112 333.336 304.991 333.488 304.991C333.64 304.991 333.751 310.112 333.751 316.439C333.751 322.766 333.63 327.897 333.488 327.897Z" fill="#263238"/>
<path d="M339.325 327.897C339.183 327.897 339.061 322.766 339.061 316.439C339.061 310.112 339.183 304.991 339.325 304.991C339.467 304.991 339.588 310.112 339.588 316.439C339.588 322.766 339.467 327.897 339.325 327.897Z" fill="#263238"/>
<path d="M345.162 327.897C345.02 327.897 344.898 322.766 344.898 316.439C344.898 310.112 345.02 304.991 345.162 304.991C345.303 304.991 345.425 310.112 345.425 316.439C345.425 322.766 345.314 327.897 345.162 327.897Z" fill="#263238"/>
<path d="M350.998 327.897C350.856 327.897 350.735 322.766 350.735 316.439C350.735 310.112 350.856 304.991 350.998 304.991C351.14 304.991 351.262 310.112 351.262 316.439C351.262 322.766 351.15 327.897 350.998 327.897Z" fill="#263238"/>
<path d="M356.845 327.897C356.693 327.897 356.582 322.766 356.582 316.439C356.582 310.112 356.693 304.991 356.845 304.991C356.997 304.991 357.109 310.112 357.109 316.439C357.109 322.766 356.987 327.897 356.845 327.897Z" fill="#263238"/>
<path d="M362.682 327.897C362.53 327.897 362.419 322.766 362.419 316.439C362.419 310.112 362.53 304.991 362.682 304.991C362.834 304.991 362.946 310.112 362.946 316.439C362.946 322.766 362.824 327.897 362.682 327.897Z" fill="#263238"/>
<path d="M368.519 327.897C368.377 327.897 368.255 322.766 368.255 316.439C368.255 310.112 368.377 304.991 368.519 304.991C368.661 304.991 368.782 310.112 368.782 316.439C368.782 322.766 368.661 327.897 368.519 327.897Z" fill="#263238"/>
<path d="M389.637 241.656H365.003V271.6H389.637V241.656Z" fill="#2CBC40"/>
<path opacity="0.4" d="M389.637 241.656H365.003V271.6H389.637V241.656Z" fill="white"/>
<path d="M458.523 241.656H389.637V271.6H458.523V241.656Z" fill="#2CBC40"/>
<path opacity="0.2" d="M458.523 241.656H389.637V271.6H458.523V241.656Z" fill="white"/>
<path d="M377.831 271.6C377.69 271.6 377.568 264.948 377.568 256.755C377.568 248.562 377.69 241.91 377.831 241.91C377.973 241.91 378.095 248.562 378.095 256.755C378.095 264.948 377.973 271.6 377.831 271.6Z" fill="#263238"/>
<path d="M454.662 268.183C454.648 268.045 454.648 267.905 454.662 267.767C454.662 267.473 454.662 267.077 454.662 266.57C454.662 265.556 454.662 263.985 454.662 262.028C454.662 258.073 454.602 252.374 454.561 245.276L454.744 245.449L392.657 245.54L392.92 245.276V257.019C392.92 260.851 392.92 264.583 392.92 268.173L392.667 267.919L437.081 268.031L450.042 268.102H453.528H454.429H454.754H454.46H453.588H450.153L437.253 268.173L392.667 268.294H392.413V268.041C392.413 264.451 392.413 260.72 392.413 256.887V245.287C392.353 245.337 392.91 244.78 392.677 245.013L454.764 245.104H454.936V245.287C454.936 252.385 454.865 258.164 454.845 262.149C454.845 264.086 454.845 265.597 454.794 266.652C454.794 267.138 454.794 267.524 454.794 267.808C454.794 268.091 454.662 268.183 454.662 268.183Z" fill="#263238"/>
<path d="M397.368 268.183C397.227 268.183 397.105 263.052 397.105 256.725C397.105 250.397 397.227 245.276 397.368 245.276C397.51 245.276 397.632 250.397 397.632 256.725C397.632 263.052 397.51 268.183 397.368 268.183Z" fill="#263238"/>
<path d="M403.205 268.183C403.063 268.183 402.942 263.052 402.942 256.725C402.942 250.397 403.063 245.276 403.205 245.276C403.347 245.276 403.469 250.397 403.469 256.725C403.469 263.052 403.307 268.183 403.205 268.183Z" fill="#263238"/>
<path d="M409.042 268.183C408.9 268.183 408.779 263.052 408.779 256.725C408.779 250.397 408.9 245.276 409.042 245.276C409.184 245.276 409.306 250.397 409.306 256.725C409.306 263.052 409.194 268.183 409.042 268.183Z" fill="#263238"/>
<path d="M414.879 268.183C414.737 268.183 414.615 263.052 414.615 256.725C414.615 250.397 414.737 245.276 414.879 245.276C415.021 245.276 415.153 250.397 415.153 256.725C415.153 263.052 415.031 268.183 414.879 268.183Z" fill="#263238"/>
<path d="M420.726 268.183C420.574 268.183 420.462 263.052 420.462 256.725C420.462 250.397 420.574 245.276 420.726 245.276C420.878 245.276 420.989 250.397 420.989 256.725C420.989 263.052 420.868 268.183 420.726 268.183Z" fill="#263238"/>
<path d="M426.613 268.183C426.461 268.183 426.35 263.052 426.35 256.725C426.35 250.397 426.461 245.276 426.613 245.276C426.765 245.276 426.877 250.397 426.877 256.725C426.877 263.052 426.705 268.183 426.613 268.183Z" fill="#263238"/>
<path d="M432.399 268.183C432.258 268.183 432.136 263.052 432.136 256.725C432.136 250.397 432.258 245.276 432.399 245.276C432.541 245.276 432.663 250.397 432.663 256.725C432.663 263.052 432.541 268.183 432.399 268.183Z" fill="#263238"/>
<path d="M438.236 268.183C438.094 268.183 437.973 263.052 437.973 256.725C437.973 250.397 438.094 245.276 438.236 245.276C438.378 245.276 438.5 250.397 438.5 256.725C438.5 263.052 438.388 268.183 438.236 268.183Z" fill="#263238"/>
<path d="M444.073 268.183C443.931 268.183 443.81 263.052 443.81 256.725C443.81 250.397 443.931 245.276 444.073 245.276C444.215 245.276 444.337 250.397 444.337 256.725C444.337 263.052 444.225 268.183 444.073 268.183Z" fill="#263238"/>
<path d="M449.92 268.183C449.768 268.183 449.646 263.052 449.646 256.725C449.646 250.397 449.768 245.276 449.92 245.276C450.072 245.276 450.183 250.397 450.183 256.725C450.183 263.052 450.062 268.183 449.92 268.183Z" fill="#263238"/>
<path d="M177.556 316.52H152.922V346.463H177.556V316.52Z" fill="#2CBC40"/>
<path opacity="0.4" d="M177.556 316.52H152.922V346.463H177.556V316.52Z" fill="white"/>
<path d="M246.443 316.52H177.556V346.463H246.443V316.52Z" fill="#2CBC40"/>
<path opacity="0.2" d="M246.443 316.52H177.556V346.463H246.443V316.52Z" fill="white"/>
<path d="M165.751 346.463C165.609 346.463 165.487 339.822 165.487 331.619C165.487 323.415 165.609 316.784 165.751 316.784C165.893 316.784 166.014 323.425 166.014 331.619C166.014 339.812 165.893 346.463 165.751 346.463Z" fill="#263238"/>
<path d="M242.582 343.046C242.568 342.908 242.568 342.769 242.582 342.631C242.582 342.337 242.582 341.941 242.582 341.444C242.582 340.38 242.582 338.848 242.582 336.891C242.582 332.937 242.521 327.238 242.481 320.14L242.663 320.312L180.576 320.404L180.839 320.14V331.892C180.839 335.725 180.839 339.457 180.839 343.046L180.586 342.793L225.001 342.915L237.961 342.986H241.447H242.349H242.673H242.379H241.508H238.073L225.173 343.056L180.586 343.178H180.333V342.925C180.333 339.335 180.333 335.604 180.333 331.771V320.14C180.272 320.14 180.829 319.633 180.596 319.876L242.683 319.958H242.855V320.14C242.855 327.238 242.785 333.018 242.764 337.003C242.764 338.94 242.764 340.451 242.714 341.505C242.714 342.002 242.714 342.377 242.714 342.661C242.714 342.945 242.582 343.046 242.582 343.046Z" fill="#263238"/>
<path d="M185.288 343.046C185.136 343.046 185.025 337.916 185.025 331.588C185.025 325.261 185.136 320.14 185.288 320.14C185.44 320.14 185.551 325.21 185.551 331.588C185.551 337.966 185.44 343.046 185.288 343.046Z" fill="#263238"/>
<path d="M191.125 343.046C190.983 343.046 190.861 337.916 190.861 331.588C190.861 325.261 190.983 320.14 191.125 320.14C191.267 320.14 191.388 325.21 191.388 331.588C191.388 337.966 191.267 343.046 191.125 343.046Z" fill="#263238"/>
<path d="M196.962 343.046C196.82 343.046 196.698 337.916 196.698 331.588C196.698 325.261 196.82 320.14 196.962 320.14C197.103 320.14 197.225 325.21 197.225 331.588C197.225 337.966 197.114 343.046 196.962 343.046Z" fill="#263238"/>
<path d="M202.798 343.046C202.657 343.046 202.535 337.916 202.535 331.588C202.535 325.261 202.657 320.14 202.798 320.14C202.94 320.14 203.062 325.21 203.062 331.588C203.062 337.966 202.95 343.046 202.798 343.046Z" fill="#263238"/>
<path d="M208.645 343.046C208.493 343.046 208.382 337.916 208.382 331.588C208.382 325.261 208.493 320.14 208.645 320.14C208.797 320.14 208.909 325.21 208.909 331.588C208.909 337.966 208.747 343.046 208.645 343.046Z" fill="#263238"/>
<path d="M214.482 343.046C214.33 343.046 214.219 337.916 214.219 331.588C214.219 325.261 214.33 320.14 214.482 320.14C214.634 320.14 214.746 325.21 214.746 331.588C214.746 337.966 214.624 343.046 214.482 343.046Z" fill="#263238"/>
<path d="M220.319 343.046C220.177 343.046 220.055 337.916 220.055 331.588C220.055 325.261 220.177 320.14 220.319 320.14C220.461 320.14 220.582 325.21 220.582 331.588C220.582 337.966 220.461 343.046 220.319 343.046Z" fill="#263238"/>
<path d="M226.156 343.046C226.014 343.046 225.892 337.916 225.892 331.588C225.892 325.261 226.014 320.14 226.156 320.14C226.298 320.14 226.419 325.21 226.419 331.588C226.419 337.966 226.298 343.046 226.156 343.046Z" fill="#263238"/>
<path d="M231.992 343.046C231.851 343.046 231.729 337.916 231.729 331.588C231.729 325.261 231.851 320.14 231.992 320.14C232.134 320.14 232.256 325.21 232.256 331.588C232.256 337.966 232.144 343.046 231.992 343.046Z" fill="#263238"/>
<path d="M237.829 343.046C237.687 343.046 237.566 337.916 237.566 331.588C237.566 325.261 237.687 320.14 237.829 320.14C237.971 320.14 238.093 325.21 238.093 331.588C238.093 337.966 237.981 343.046 237.829 343.046Z" fill="#263238"/>
<path d="M336.386 271.762H311.752V301.706H336.386V271.762Z" fill="#263238"/>
<path d="M405.283 271.762H336.396V301.706H405.283V271.762Z" fill="#263238"/>
<path d="M324.581 301.695C324.439 301.695 324.317 295.054 324.317 286.861C324.317 278.667 324.439 272.016 324.581 272.016C324.723 272.016 324.844 278.657 324.844 286.861C324.844 295.064 324.733 301.695 324.581 301.695Z" fill="#455A64"/>
<path d="M336.427 301.695C336.275 301.695 336.163 295.054 336.163 286.861C336.163 278.667 336.275 272.016 336.427 272.016C336.579 272.016 336.69 278.657 336.69 286.861C336.69 295.064 336.538 301.695 336.427 301.695Z" fill="#455A64"/>
<path d="M401.412 298.278C401.403 298.14 401.403 298.001 401.412 297.862C401.412 297.568 401.412 297.183 401.412 296.676C401.412 295.611 401.412 294.09 401.412 292.123C401.412 288.169 401.351 282.47 401.31 275.372L401.493 275.555L339.416 275.636C339.173 275.869 339.73 275.311 339.669 275.372V287.104C339.669 290.937 339.669 294.668 339.669 298.258L339.416 298.004L383.83 298.126L396.791 298.197H400.277H401.179H401.503H401.219H400.267H396.831L383.932 298.268L339.345 298.38H339.092V298.126C339.092 294.537 339.092 290.805 339.092 286.972V275.392L339.365 275.129L401.442 275.21H401.624V275.392C401.624 282.541 401.543 288.28 401.523 292.255C401.523 294.202 401.523 295.713 401.523 296.767C401.523 297.254 401.523 297.639 401.523 297.923C401.495 298.044 401.458 298.163 401.412 298.278Z" fill="#455A64"/>
<path d="M344.118 298.278C343.976 298.278 343.854 293.147 343.854 286.83C343.854 280.513 343.976 275.372 344.118 275.372C344.26 275.372 344.381 280.503 344.381 286.83C344.381 293.158 344.27 298.278 344.118 298.278Z" fill="#455A64"/>
<path d="M349.955 298.278C349.813 298.278 349.691 293.147 349.691 286.83C349.691 280.513 349.813 275.372 349.955 275.372C350.097 275.372 350.218 280.503 350.218 286.83C350.218 293.158 350.107 298.278 349.955 298.278Z" fill="#455A64"/>
<path d="M355.802 298.278C355.65 298.278 355.538 293.147 355.538 286.83C355.538 280.513 355.65 275.372 355.802 275.372C355.954 275.372 356.065 280.503 356.065 286.83C356.065 293.158 355.943 298.278 355.802 298.278Z" fill="#455A64"/>
<path d="M361.638 298.278C361.486 298.278 361.375 293.147 361.375 286.83C361.375 280.513 361.486 275.372 361.638 275.372C361.79 275.372 361.902 280.503 361.902 286.83C361.902 293.158 361.76 298.278 361.638 298.278Z" fill="#455A64"/>
<path d="M367.475 298.278C367.333 298.278 367.212 293.147 367.212 286.83C367.212 280.513 367.333 275.372 367.475 275.372C367.617 275.372 367.739 280.503 367.739 286.83C367.739 293.158 367.617 298.278 367.475 298.278Z" fill="#455A64"/>
<path d="M373.312 298.278C373.17 298.278 373.049 293.147 373.049 286.83C373.049 280.513 373.17 275.372 373.312 275.372C373.454 275.372 373.576 280.503 373.576 286.83C373.576 293.158 373.464 298.278 373.312 298.278Z" fill="#455A64"/>
<path d="M379.149 298.278C379.007 298.278 378.885 293.147 378.885 286.83C378.885 280.513 379.007 275.372 379.149 275.372C379.291 275.372 379.412 280.503 379.412 286.83C379.412 293.158 379.301 298.278 379.149 298.278Z" fill="#455A64"/>
<path d="M384.986 298.278C384.844 298.278 384.722 293.147 384.722 286.83C384.722 280.513 384.844 275.372 384.986 275.372C385.128 275.372 385.259 280.503 385.259 286.83C385.259 293.158 385.138 298.278 384.986 298.278Z" fill="#455A64"/>
<path d="M390.833 298.278C390.681 298.278 390.569 293.147 390.569 286.83C390.569 280.513 390.681 275.372 390.833 275.372C390.985 275.372 391.096 280.503 391.096 286.83C391.096 293.158 390.974 298.278 390.833 298.278Z" fill="#455A64"/>
<path d="M396.669 298.278C396.517 298.278 396.406 293.147 396.406 286.83C396.406 280.513 396.517 275.372 396.669 275.372C396.821 275.372 396.933 280.503 396.933 286.83C396.933 293.158 396.811 298.278 396.669 298.278Z" fill="#455A64"/>
<path d="M276.792 332.278H252.158V362.221H276.792V332.278Z" fill="#2CBC40"/>
<path d="M345.689 332.278H276.802V362.221H345.689V332.278Z" fill="#2CBC40"/>
<path opacity="0.4" d="M345.689 332.278H276.802V362.221H345.689V332.278Z" fill="black"/>
<path d="M264.997 362.221C264.845 362.221 264.733 355.579 264.733 347.376C264.733 339.173 264.845 332.541 264.997 332.541C265.149 332.541 265.26 339.183 265.26 347.376C265.26 355.569 265.139 362.221 264.997 362.221Z" fill="#263238"/>
<path d="M341.818 358.804C341.818 358.804 341.818 358.652 341.818 358.388C341.818 358.125 341.818 357.699 341.818 357.202C341.818 356.188 341.818 354.606 341.767 352.649C341.767 348.694 341.716 342.996 341.676 335.898L341.848 336.07L279.771 336.161L280.035 335.898V338.879C280.035 339.893 280.035 340.856 280.035 341.83V358.804L279.781 358.55L324.196 358.672L337.146 358.743H340.632H341.544C341.648 358.735 341.753 358.735 341.858 358.743H341.493H340.612H337.187L324.287 358.814L279.7 358.936H279.437V341.698C279.437 340.684 279.437 339.731 279.437 338.747V335.766C279.386 335.817 279.943 335.259 279.71 335.502L341.787 335.583H341.97V335.766C341.97 342.864 341.899 348.644 341.868 352.629C341.868 354.565 341.868 356.076 341.868 357.131C341.868 357.628 341.868 358.003 341.868 358.287C341.881 358.461 341.864 358.636 341.818 358.804Z" fill="#263238"/>
<path d="M284.534 358.804C284.382 358.804 284.27 353.673 284.27 347.346C284.27 341.018 284.382 335.898 284.534 335.898C284.686 335.898 284.797 341.018 284.797 347.346C284.797 353.673 284.676 358.804 284.534 358.804Z" fill="#263238"/>
<path d="M290.371 358.804C290.219 358.804 290.107 353.673 290.107 347.346C290.107 341.018 290.219 335.898 290.371 335.898C290.523 335.898 290.634 341.018 290.634 347.346C290.634 353.673 290.512 358.804 290.371 358.804Z" fill="#263238"/>
<path d="M296.207 358.804C296.066 358.804 295.944 353.673 295.944 347.346C295.944 341.018 296.066 335.898 296.207 335.898C296.349 335.898 296.471 341.018 296.471 347.346C296.471 353.673 296.349 358.804 296.207 358.804Z" fill="#263238"/>
<path d="M302.044 358.804C301.902 358.804 301.781 353.673 301.781 347.346C301.781 341.018 301.902 335.898 302.044 335.898C302.186 335.898 302.308 341.018 302.308 347.346C302.308 353.673 302.196 358.804 302.044 358.804Z" fill="#263238"/>
<path d="M307.881 358.804C307.739 358.804 307.618 353.673 307.618 347.346C307.618 341.018 307.739 335.898 307.881 335.898C308.023 335.898 308.144 341.018 308.144 347.346C308.144 353.673 308.053 358.804 307.881 358.804Z" fill="#263238"/>
<path d="M313.718 358.804C313.576 358.804 313.454 353.673 313.454 347.346C313.454 341.018 313.576 335.898 313.718 335.898C313.86 335.898 313.991 341.018 313.991 347.346C313.991 353.673 313.87 358.804 313.718 358.804Z" fill="#263238"/>
<path d="M319.565 358.804C319.413 358.804 319.301 353.673 319.301 347.346C319.301 341.018 319.413 335.898 319.565 335.898C319.717 335.898 319.828 341.018 319.828 347.346C319.828 353.673 319.707 358.804 319.565 358.804Z" fill="#263238"/>
<path d="M325.402 358.804C325.25 358.804 325.138 353.673 325.138 347.346C325.138 341.018 325.25 335.898 325.402 335.898C325.554 335.898 325.665 341.018 325.665 347.346C325.665 353.673 325.543 358.804 325.402 358.804Z" fill="#263238"/>
<path d="M331.238 358.804C331.096 358.804 330.975 353.673 330.975 347.346C330.975 341.018 331.096 335.898 331.238 335.898C331.38 335.898 331.502 341.018 331.502 347.346C331.502 353.673 331.36 358.804 331.238 358.804Z" fill="#263238"/>
<path d="M337.075 358.804C336.933 358.804 336.812 353.673 336.812 347.346C336.812 341.018 336.933 335.898 337.075 335.898C337.217 335.898 337.339 341.018 337.339 347.346C337.339 353.673 337.227 358.804 337.075 358.804Z" fill="#263238"/>
<path d="M355.528 331.304H330.894V361.248H355.528V331.304Z" fill="#263238"/>
<path d="M424.414 331.304H355.528V361.248H424.414V331.304Z" fill="#263238"/>
<path d="M343.723 361.248C343.571 361.248 343.459 354.596 343.459 346.403C343.459 338.21 343.571 331.558 343.723 331.558C343.875 331.558 343.986 338.199 343.986 346.403C343.986 354.606 343.864 361.248 343.723 361.248Z" fill="#455A64"/>
<path d="M355.528 361.248C355.386 361.248 355.265 354.596 355.265 346.403C355.265 338.21 355.386 331.558 355.528 331.558C355.67 331.558 355.791 338.199 355.791 346.403C355.791 354.606 355.68 361.248 355.528 361.248Z" fill="#455A64"/>
<path d="M420.533 357.83C420.533 357.83 420.533 357.678 420.533 357.415C420.533 357.151 420.533 356.725 420.533 356.218C420.533 355.153 420.533 353.632 420.483 351.675C420.483 347.721 420.432 342.022 420.391 334.914L420.564 335.097L358.487 335.188L358.75 334.924V340.846C358.75 342.813 358.75 344.75 358.75 346.666V357.82L358.497 357.567L402.911 357.678L415.862 357.749H419.348H420.26H420.574H420.29H419.409H415.983L403.084 357.82L358.497 357.942H358.244V334.934C358.183 334.985 358.74 334.427 358.507 334.661L420.584 334.752H420.766V334.924C420.766 342.022 420.695 347.812 420.665 351.797C420.665 353.734 420.665 355.245 420.665 356.299C420.665 356.786 420.665 357.171 420.665 357.455C420.637 357.585 420.593 357.711 420.533 357.83Z" fill="#455A64"/>
<path d="M363.26 357.83C363.108 357.83 362.996 352.7 362.996 346.372C362.996 340.045 363.108 334.914 363.26 334.914C363.412 334.914 363.523 340.045 363.523 346.372C363.523 352.7 363.402 357.83 363.26 357.83Z" fill="#455A64"/>
<path d="M369.097 357.83C368.945 357.83 368.833 352.7 368.833 346.372C368.833 340.045 368.945 334.914 369.097 334.914C369.249 334.914 369.36 340.045 369.36 346.372C369.36 352.7 369.238 357.83 369.097 357.83Z" fill="#455A64"/>
<path d="M374.933 357.83C374.791 357.83 374.67 352.7 374.67 346.372C374.67 340.045 374.791 334.914 374.933 334.914C375.075 334.914 375.197 340.045 375.197 346.372C375.197 352.7 375.075 357.83 374.933 357.83Z" fill="#455A64"/>
<path d="M380.77 357.83C380.628 357.83 380.507 352.7 380.507 346.372C380.507 340.045 380.628 334.914 380.77 334.914C380.912 334.914 381.034 340.045 381.034 346.372C381.034 352.7 380.922 357.83 380.77 357.83Z" fill="#455A64"/>
<path d="M386.607 357.83C386.465 357.83 386.344 352.7 386.344 346.372C386.344 340.045 386.465 334.914 386.607 334.914C386.749 334.914 386.87 340.045 386.87 346.372C386.87 352.7 386.759 357.83 386.607 357.83Z" fill="#455A64"/>
<path d="M392.454 357.83C392.302 357.83 392.19 352.7 392.19 346.372C392.19 340.045 392.302 334.914 392.454 334.914C392.606 334.914 392.717 340.045 392.717 346.372C392.717 352.7 392.596 357.83 392.454 357.83Z" fill="#455A64"/>
<path d="M398.291 357.83C398.139 357.83 398.027 352.7 398.027 346.372C398.027 340.045 398.139 334.914 398.291 334.914C398.443 334.914 398.554 340.045 398.554 346.372C398.554 352.7 398.433 357.83 398.291 357.83Z" fill="#455A64"/>
<path d="M404.127 357.83C403.986 357.83 403.864 352.7 403.864 346.372C403.864 340.045 403.986 334.914 404.127 334.914C404.269 334.914 404.391 340.045 404.391 346.372C404.391 352.7 404.32 357.83 404.127 357.83Z" fill="#455A64"/>
<path d="M409.964 357.83C409.822 357.83 409.701 352.7 409.701 346.372C409.701 340.045 409.822 334.914 409.964 334.914C410.106 334.914 410.228 340.045 410.228 346.372C410.228 352.7 410.106 357.83 409.964 357.83Z" fill="#455A64"/>
<path d="M415.801 357.83C415.659 357.83 415.538 352.7 415.538 346.372C415.538 340.045 415.659 334.914 415.801 334.914C415.943 334.914 416.064 340.045 416.064 346.372C416.064 352.7 415.953 357.83 415.801 357.83Z" fill="#455A64"/>
<path d="M374.893 271.884H350.259V301.827H374.893V271.884Z" fill="#455A64"/>
<path d="M443.779 271.884H374.893V301.827H443.779V271.884Z" fill="#455A64"/>
<path d="M363.087 301.827C362.946 301.827 362.824 295.175 362.824 286.982C362.824 278.789 362.946 272.137 363.087 272.137C363.229 272.137 363.351 278.789 363.351 286.982C363.351 295.175 363.239 301.827 363.087 301.827Z" fill="#263238"/>
<path d="M374.933 301.827C374.791 301.827 374.67 295.175 374.67 286.982C374.67 278.789 374.791 272.137 374.933 272.137C375.075 272.137 375.197 278.789 375.197 286.982C375.197 295.175 375.045 301.827 374.933 301.827Z" fill="#263238"/>
<path d="M439.918 298.41C439.911 298.272 439.911 298.133 439.918 297.994C439.918 297.7 439.918 297.305 439.918 296.798C439.918 295.784 439.918 294.212 439.918 292.255C439.918 288.3 439.858 282.602 439.817 275.504L439.999 275.676L377.913 275.767L378.176 275.504V287.256C378.176 291.089 378.176 294.821 378.176 298.41L377.923 298.157L422.337 298.268L435.298 298.339H438.783H439.685H440.01H439.716H438.844H435.409L422.509 298.41L377.923 298.532H377.669V298.278C377.669 294.689 377.669 290.957 377.669 287.124V275.504L377.933 275.24L440.02 275.321H440.202V275.504C440.151 282.602 440.121 288.382 440.101 292.367C440.101 294.303 440.101 295.814 440.101 296.869C440.101 297.366 440.101 297.741 440.101 298.025C440.101 298.309 439.918 298.41 439.918 298.41Z" fill="#263238"/>
<path d="M382.624 298.41C382.483 298.41 382.361 293.279 382.361 286.952C382.361 280.624 382.483 275.504 382.624 275.504C382.766 275.504 382.888 280.624 382.888 286.952C382.888 293.279 382.766 298.41 382.624 298.41Z" fill="#263238"/>
<path d="M388.461 298.41C388.319 298.41 388.198 293.279 388.198 286.952C388.198 280.624 388.319 275.504 388.461 275.504C388.603 275.504 388.725 280.624 388.725 286.952C388.725 293.279 388.613 298.41 388.461 298.41Z" fill="#263238"/>
<path d="M394.298 298.41C394.156 298.41 394.035 293.279 394.035 286.952C394.035 280.624 394.156 275.504 394.298 275.504C394.44 275.504 394.562 280.624 394.562 286.952C394.562 293.279 394.45 298.41 394.298 298.41Z" fill="#263238"/>
<path d="M400.145 298.41C399.993 298.41 399.882 293.279 399.882 286.952C399.882 280.624 399.993 275.504 400.145 275.504C400.297 275.504 400.409 280.624 400.409 286.952C400.409 293.279 400.267 298.41 400.145 298.41Z" fill="#263238"/>
<path d="M405.982 298.41C405.83 298.41 405.718 293.279 405.718 286.952C405.718 280.624 405.83 275.504 405.982 275.504C406.134 275.504 406.245 280.624 406.245 286.952C406.245 293.279 406.124 298.41 405.982 298.41Z" fill="#263238"/>
<path d="M411.819 298.41C411.677 298.41 411.555 293.279 411.555 286.952C411.555 280.624 411.677 275.504 411.819 275.504C411.96 275.504 412.082 280.624 412.082 286.952C412.082 293.279 411.96 298.41 411.819 298.41Z" fill="#263238"/>
<path d="M417.656 298.41C417.514 298.41 417.392 293.279 417.392 286.952C417.392 280.624 417.514 275.504 417.656 275.504C417.797 275.504 417.919 280.624 417.919 286.952C417.919 293.279 417.808 298.41 417.656 298.41Z" fill="#263238"/>
<path d="M423.492 298.41C423.35 298.41 423.229 293.279 423.229 286.952C423.229 280.624 423.35 275.504 423.492 275.504C423.634 275.504 423.756 280.624 423.756 286.952C423.756 293.279 423.644 298.41 423.492 298.41Z" fill="#263238"/>
<path d="M429.339 298.41C429.187 298.41 429.066 293.279 429.066 286.952C429.066 280.624 429.187 275.504 429.339 275.504C429.491 275.504 429.603 280.624 429.603 286.952C429.603 293.279 429.481 298.41 429.339 298.41Z" fill="#263238"/>
<path d="M435.176 298.41C435.024 298.41 434.913 293.279 434.913 286.952C434.913 280.624 435.024 275.504 435.176 275.504C435.328 275.504 435.44 280.624 435.44 286.952C435.44 293.279 435.318 298.41 435.176 298.41Z" fill="#263238"/>
<path d="M338.018 301.371H313.384V331.314H338.018V301.371Z" fill="#2CBC40"/>
<path d="M406.914 301.371H338.028V331.314H406.914V301.371Z" fill="#2CBC40"/>
<path opacity="0.4" d="M406.914 301.371H338.028V331.314H406.914V301.371Z" fill="black"/>
<path d="M326.212 331.314C326.07 331.314 325.949 324.663 325.949 316.469C325.949 308.276 326.07 301.635 326.212 301.635C326.354 301.635 326.486 308.276 326.486 316.469C326.486 324.663 326.364 331.314 326.212 331.314Z" fill="#263238"/>
<path d="M403.043 327.897C403.043 327.897 403.043 327.745 403.043 327.481C403.043 327.218 403.043 326.792 403.043 326.295C403.043 325.23 403.043 323.699 403.043 321.742C403.043 317.788 402.982 312.089 402.942 304.991L403.124 305.163L341.047 305.255C340.804 305.488 341.362 304.93 341.301 304.991V316.743C341.301 320.576 341.301 324.308 341.301 327.897L341.047 327.644L385.462 327.755L398.422 327.826H401.908H402.82H403.134H402.851H401.969H398.544L385.634 327.897L341.047 328.019H340.794V316.743C340.794 314.827 340.794 312.89 340.794 310.923V304.991C340.794 305.042 341.301 304.484 341.068 304.727L403.144 304.808H403.327V304.991C403.327 312.089 403.246 317.869 403.226 321.854C403.226 323.79 403.226 325.301 403.226 326.356C403.226 326.853 403.226 327.228 403.226 327.512C403.175 327.645 403.114 327.774 403.043 327.897Z" fill="#263238"/>
<path d="M345.749 327.897C345.607 327.897 345.486 322.766 345.486 316.439C345.486 310.112 345.607 304.991 345.749 304.991C345.891 304.991 346.013 310.112 346.013 316.439C346.013 322.766 345.901 327.897 345.749 327.897Z" fill="#263238"/>
<path d="M351.627 327.897C351.475 327.897 351.363 322.766 351.363 316.439C351.363 310.112 351.475 304.991 351.627 304.991C351.779 304.991 351.89 310.112 351.89 316.439C351.89 322.766 351.738 327.897 351.627 327.897Z" fill="#263238"/>
<path d="M357.433 327.897C357.281 327.897 357.17 322.766 357.17 316.439C357.17 310.112 357.281 304.991 357.433 304.991C357.585 304.991 357.696 310.112 357.696 316.439C357.696 322.766 357.575 327.897 357.433 327.897Z" fill="#263238"/>
<path d="M363.27 327.897C363.128 327.897 363.006 322.766 363.006 316.439C363.006 310.112 363.128 304.991 363.27 304.991C363.412 304.991 363.533 310.112 363.533 316.439C363.533 322.766 363.412 327.897 363.27 327.897Z" fill="#263238"/>
<path d="M369.107 327.897C368.965 327.897 368.843 322.766 368.843 316.439C368.843 310.112 368.965 304.991 369.107 304.991C369.249 304.991 369.37 310.112 369.37 316.439C369.37 322.766 369.249 327.897 369.107 327.897Z" fill="#263238"/>
<path d="M374.933 327.897C374.791 327.897 374.67 322.766 374.67 316.439C374.67 310.112 374.791 304.991 374.933 304.991C375.075 304.991 375.197 310.112 375.197 316.439C375.197 322.766 375.095 327.897 374.933 327.897Z" fill="#263238"/>
<path d="M380.78 327.897C380.638 327.897 380.517 322.766 380.517 316.439C380.517 310.112 380.638 304.991 380.78 304.991C380.922 304.991 381.054 310.112 381.054 316.439C381.054 322.766 380.932 327.897 380.78 327.897Z" fill="#263238"/>
<path d="M386.627 327.897C386.475 327.897 386.364 322.766 386.364 316.439C386.364 310.112 386.475 304.991 386.627 304.991C386.779 304.991 386.891 310.112 386.891 316.439C386.891 322.766 386.769 327.897 386.627 327.897Z" fill="#263238"/>
<path d="M392.464 327.897C392.312 327.897 392.2 322.766 392.2 316.439C392.2 310.112 392.312 304.991 392.464 304.991C392.616 304.991 392.727 310.112 392.727 316.439C392.727 322.766 392.606 327.897 392.464 327.897Z" fill="#263238"/>
<path d="M398.301 327.897C398.159 327.897 398.037 322.766 398.037 316.439C398.037 310.112 398.159 304.991 398.301 304.991C398.443 304.991 398.564 310.112 398.564 316.439C398.564 322.766 398.443 327.897 398.301 327.897Z" fill="#263238"/>
<path d="M407.259 301.249H382.625V331.193H407.259V301.249Z" fill="#455A64"/>
<path d="M476.145 301.249H407.259V331.193H476.145V301.249Z" fill="#455A64"/>
<path d="M395.453 331.183C395.312 331.183 395.19 324.541 395.19 316.348C395.19 308.155 395.312 301.503 395.453 301.503C395.595 301.503 395.717 308.144 395.717 316.348C395.717 324.551 395.595 331.183 395.453 331.183Z" fill="#263238"/>
<path d="M407.259 331.183C407.117 331.183 406.995 324.541 406.995 316.348C406.995 308.155 407.117 301.503 407.259 301.503C407.401 301.503 407.522 308.144 407.522 316.348C407.522 324.551 407.411 331.183 407.259 331.183Z" fill="#263238"/>
<path d="M472.284 327.765C472.269 327.627 472.269 327.488 472.284 327.35C472.284 327.056 472.284 326.67 472.284 326.163C472.284 325.099 472.284 323.578 472.284 321.621C472.284 317.656 472.223 311.957 472.183 304.859L472.365 305.042L410.278 305.123L410.542 304.859V316.601C410.542 320.424 410.542 324.156 410.542 327.755L410.288 327.502L454.703 327.623L467.663 327.694H471.149H472.051H472.375H472.082H471.21H467.775L454.875 327.765L410.288 327.877H410.035V327.623C410.035 324.034 410.035 320.302 410.035 316.469V304.879L410.299 304.616L472.386 304.697H472.558V304.879C472.558 312.028 472.487 317.767 472.467 321.742C472.467 323.689 472.467 325.2 472.467 326.255C472.467 326.741 472.467 327.127 472.467 327.41C472.467 327.694 472.284 327.776 472.284 327.765Z" fill="#263238"/>
<path d="M414.99 327.765C414.849 327.765 414.727 322.635 414.727 316.317C414.727 310 414.849 304.859 414.99 304.859C415.132 304.859 415.254 309.99 415.254 316.317C415.254 322.645 415.132 327.765 414.99 327.765Z" fill="#263238"/>
<path d="M420.827 327.765C420.685 327.765 420.564 322.635 420.564 316.317C420.564 310 420.685 304.859 420.827 304.859C420.969 304.859 421.091 309.99 421.091 316.317C421.091 322.645 420.969 327.765 420.827 327.765Z" fill="#263238"/>
<path d="M426.664 327.765C426.522 327.765 426.401 322.635 426.401 316.317C426.401 310 426.522 304.859 426.664 304.859C426.806 304.859 426.928 309.99 426.928 316.317C426.928 322.645 426.816 327.765 426.664 327.765Z" fill="#263238"/>
<path d="M432.501 327.765C432.359 327.765 432.237 322.635 432.237 316.317C432.237 310 432.359 304.859 432.501 304.859C432.643 304.859 432.764 309.99 432.764 316.317C432.764 322.645 432.693 327.765 432.501 327.765Z" fill="#263238"/>
<path d="M438.348 327.765C438.196 327.765 438.084 322.635 438.084 316.317C438.084 310 438.196 304.859 438.348 304.859C438.5 304.859 438.611 309.99 438.611 316.317C438.611 322.645 438.49 327.765 438.348 327.765Z" fill="#263238"/>
<path d="M444.185 327.765C444.033 327.765 443.921 322.635 443.921 316.317C443.921 310 444.033 304.859 444.185 304.859C444.337 304.859 444.448 309.99 444.448 316.317C444.448 322.645 444.326 327.765 444.185 327.765Z" fill="#263238"/>
<path d="M450.021 327.765C449.879 327.765 449.758 322.635 449.758 316.317C449.758 310 449.879 304.859 450.021 304.859C450.163 304.859 450.285 309.99 450.285 316.317C450.285 322.645 450.163 327.765 450.021 327.765Z" fill="#263238"/>
<path d="M455.858 327.765C455.716 327.765 455.595 322.635 455.595 316.317C455.595 310 455.716 304.859 455.858 304.859C456 304.859 456.122 309.99 456.122 316.317C456.122 322.645 456 327.765 455.858 327.765Z" fill="#263238"/>
<path d="M461.695 327.765C461.553 327.765 461.431 322.635 461.431 316.317C461.431 310 461.553 304.859 461.695 304.859C461.837 304.859 461.958 309.99 461.958 316.317C461.958 322.645 461.847 327.765 461.695 327.765Z" fill="#263238"/>
<path d="M467.532 327.765C467.39 327.765 467.268 322.635 467.268 316.317C467.268 310 467.39 304.859 467.532 304.859C467.674 304.859 467.805 309.99 467.805 316.317C467.805 322.645 467.684 327.765 467.532 327.765Z" fill="#263238"/>
<path d="M189.868 255.944H165.234V285.887H189.868V255.944Z" fill="#455A64"/>
<path d="M258.765 255.944H189.878V285.887H258.765V255.944Z" fill="#455A64"/>
<path d="M178.073 285.877C177.921 285.877 177.81 279.235 177.81 271.042C177.81 262.849 177.921 256.197 178.073 256.197C178.225 256.197 178.337 262.839 178.337 271.042C178.337 279.245 178.215 285.877 178.073 285.877Z" fill="#263238"/>
<path d="M189.878 285.877C189.737 285.877 189.615 279.235 189.615 271.042C189.615 262.849 189.737 256.197 189.878 256.197C190.02 256.197 190.142 262.839 190.142 271.042C190.142 279.245 190.02 285.877 189.878 285.877Z" fill="#263238"/>
<path d="M254.894 282.46C254.894 282.46 254.894 282.318 254.894 282.044C254.894 281.77 254.894 281.365 254.894 280.858C254.894 279.793 254.894 278.272 254.894 276.315C254.894 272.36 254.843 266.652 254.803 259.554L254.975 259.736L192.898 259.817L193.162 259.554V262.514C193.162 263.528 193.162 264.492 193.162 265.475V282.44L192.908 282.186L237.323 282.308L250.273 282.379H253.759H254.671H254.985C254.891 282.389 254.796 282.389 254.701 282.379H253.82H250.395L237.495 282.45L192.908 282.561H192.533V265.323C192.533 264.309 192.533 263.356 192.533 262.362V259.584C192.533 259.645 193.04 259.087 192.807 259.32L254.884 259.412H255.066V259.584C255.066 266.682 254.995 272.472 254.965 276.447C254.965 278.394 254.965 279.905 254.965 280.959C254.965 281.446 254.965 281.831 254.965 282.115C254.956 282.233 254.932 282.348 254.894 282.46Z" fill="#263238"/>
<path d="M197.6 282.46C197.448 282.46 197.337 277.339 197.337 271.012C197.337 264.684 197.448 259.554 197.6 259.554C197.752 259.554 197.863 264.684 197.863 271.012C197.863 277.339 197.752 282.46 197.6 282.46Z" fill="#263238"/>
<path d="M203.447 282.46C203.295 282.46 203.183 277.339 203.183 271.012C203.183 264.684 203.295 259.554 203.447 259.554C203.599 259.554 203.71 264.684 203.71 271.012C203.71 277.339 203.589 282.46 203.447 282.46Z" fill="#263238"/>
<path d="M209.284 282.46C209.142 282.46 209.02 277.339 209.02 271.012C209.02 264.684 209.142 259.554 209.284 259.554C209.426 259.554 209.547 264.684 209.547 271.012C209.547 277.339 209.426 282.46 209.284 282.46Z" fill="#263238"/>
<path d="M215.121 282.46C214.979 282.46 214.857 277.339 214.857 271.012C214.857 264.684 214.979 259.554 215.121 259.554C215.262 259.554 215.384 264.684 215.384 271.012C215.384 277.339 215.273 282.46 215.121 282.46Z" fill="#263238"/>
<path d="M220.957 282.46C220.815 282.46 220.694 277.339 220.694 271.012C220.694 264.684 220.815 259.554 220.957 259.554C221.099 259.554 221.221 264.684 221.221 271.012C221.221 277.339 221.109 282.46 220.957 282.46Z" fill="#263238"/>
<path d="M226.804 282.46C226.652 282.46 226.531 277.339 226.531 271.012C226.531 264.684 226.652 259.554 226.804 259.554C226.956 259.554 227.068 264.684 227.068 271.012C227.068 277.339 226.987 282.46 226.804 282.46Z" fill="#263238"/>
<path d="M232.641 282.46C232.489 282.46 232.378 277.339 232.378 271.012C232.378 264.684 232.489 259.554 232.641 259.554C232.793 259.554 232.904 264.684 232.904 271.012C232.904 277.339 232.783 282.46 232.641 282.46Z" fill="#263238"/>
<path d="M238.478 282.46C238.326 282.46 238.214 277.339 238.214 271.012C238.214 264.684 238.326 259.554 238.478 259.554C238.63 259.554 238.741 264.684 238.741 271.012C238.741 277.339 238.62 282.46 238.478 282.46Z" fill="#263238"/>
<path d="M244.315 282.46C244.173 282.46 244.051 277.339 244.051 271.012C244.051 264.684 244.173 259.554 244.315 259.554C244.456 259.554 244.578 264.684 244.578 271.012C244.578 277.339 244.456 282.46 244.315 282.46Z" fill="#263238"/>
<path d="M250.151 282.46C250.01 282.46 249.888 277.339 249.888 271.012C249.888 264.684 250.01 259.554 250.151 259.554C250.293 259.554 250.415 264.684 250.415 271.012C250.415 277.339 250.293 282.46 250.151 282.46Z" fill="#263238"/>
<path d="M408.829 270.921H384.195V300.864H408.829V270.921Z" fill="#263238"/>
<path d="M477.716 270.921H408.829V300.864H477.716V270.921Z" fill="#263238"/>
<path d="M397.024 300.854C396.872 300.854 396.76 294.212 396.76 286.019C396.76 277.826 396.872 271.174 397.024 271.174C397.176 271.174 397.287 277.816 397.287 286.019C397.287 294.222 397.166 300.854 397.024 300.854Z" fill="#455A64"/>
<path d="M408.829 300.854C408.688 300.854 408.566 294.212 408.566 286.019C408.566 277.826 408.688 271.174 408.829 271.174C408.971 271.174 409.093 277.816 409.093 286.019C409.093 294.222 408.971 300.854 408.829 300.854Z" fill="#455A64"/>
<path d="M473.845 297.437C473.845 297.437 473.845 297.295 473.845 297.021C473.845 296.747 473.845 296.341 473.845 295.834C473.845 294.77 473.845 293.249 473.794 291.292C473.794 287.337 473.794 281.628 473.703 274.53L473.875 274.713L411.798 274.794C411.565 275.037 412.113 274.48 412.062 274.54V280.462C412.062 282.419 412.062 284.366 412.062 286.283V297.437L411.809 297.183L456.223 297.305L469.183 297.376H472.659H473.571H473.885C473.791 297.393 473.695 297.393 473.602 297.376H472.73H469.295L456.395 297.447L411.809 297.568H411.555V297.305C411.555 293.715 411.555 289.994 411.555 286.151V274.551C411.494 274.601 412.052 274.044 411.819 274.277L473.895 274.368H474.078V274.54C474.078 281.689 474.007 287.428 473.987 291.403C473.987 293.35 473.987 294.861 473.936 295.916C473.936 296.402 473.936 296.788 473.936 297.072C473.922 297.197 473.891 297.32 473.845 297.437Z" fill="#455A64"/>
<path d="M416.561 297.437C416.409 297.437 416.298 292.316 416.298 285.989C416.298 279.661 416.409 274.53 416.561 274.53C416.713 274.53 416.825 279.661 416.825 285.989C416.825 292.316 416.703 297.437 416.561 297.437Z" fill="#455A64"/>
<path d="M422.398 297.437C422.256 297.437 422.134 292.316 422.134 285.989C422.134 279.661 422.256 274.53 422.398 274.53C422.54 274.53 422.661 279.661 422.661 285.989C422.661 292.316 422.56 297.437 422.398 297.437Z" fill="#455A64"/>
<path d="M428.235 297.437C428.093 297.437 427.971 292.316 427.971 285.989C427.971 279.661 428.093 274.53 428.235 274.53C428.377 274.53 428.498 279.661 428.498 285.989C428.498 292.316 428.377 297.437 428.235 297.437Z" fill="#455A64"/>
<path d="M434.071 297.437C433.93 297.437 433.808 292.316 433.808 285.989C433.808 279.661 433.93 274.53 434.071 274.53C434.213 274.53 434.335 279.661 434.335 285.989C434.335 292.316 434.223 297.437 434.071 297.437Z" fill="#455A64"/>
<path d="M439.908 297.437C439.766 297.437 439.645 292.316 439.645 285.989C439.645 279.661 439.766 274.53 439.908 274.53C440.05 274.53 440.172 279.661 440.172 285.989C440.172 292.316 440.06 297.437 439.908 297.437Z" fill="#455A64"/>
<path d="M445.755 297.437C445.603 297.437 445.492 292.316 445.492 285.989C445.492 279.661 445.603 274.53 445.755 274.53C445.907 274.53 446.019 279.661 446.019 285.989C446.019 292.316 445.867 297.437 445.755 297.437Z" fill="#455A64"/>
<path d="M451.592 297.437C451.44 297.437 451.329 292.316 451.329 285.989C451.329 279.661 451.44 274.53 451.592 274.53C451.744 274.53 451.856 279.661 451.856 285.989C451.856 292.316 451.734 297.437 451.592 297.437Z" fill="#455A64"/>
<path d="M457.429 297.437C457.287 297.437 457.165 292.316 457.165 285.989C457.165 279.661 457.287 274.53 457.429 274.53C457.571 274.53 457.692 279.661 457.692 285.989C457.692 292.316 457.571 297.437 457.429 297.437Z" fill="#455A64"/>
<path d="M463.266 297.437C463.124 297.437 463.002 292.316 463.002 285.989C463.002 279.661 463.124 274.53 463.266 274.53C463.408 274.53 463.529 279.661 463.529 285.989C463.529 292.316 463.418 297.437 463.266 297.437Z" fill="#455A64"/>
<path d="M469.102 297.437C468.96 297.437 468.839 292.316 468.839 285.989C468.839 279.661 468.96 274.53 469.102 274.53C469.244 274.53 469.366 279.661 469.366 285.989C469.366 292.316 469.254 297.437 469.102 297.437Z" fill="#455A64"/>
<path d="M412.69 331.183H388.056V361.126H412.69V331.183Z" fill="#2CBC40"/>
<path d="M481.587 331.183H412.7V361.126H481.587V331.183Z" fill="#2CBC40"/>
<path opacity="0.4" d="M481.587 331.183H412.7V361.126H481.587V331.183Z" fill="black"/>
<path d="M400.895 361.126C400.743 361.126 400.631 354.474 400.631 346.281C400.631 338.088 400.743 331.436 400.895 331.436C401.047 331.436 401.158 338.088 401.158 346.281C401.158 354.474 401.037 361.126 400.895 361.126Z" fill="#263238"/>
<path d="M477.716 357.709C477.716 357.709 477.716 357.557 477.716 357.293C477.716 357.029 477.716 356.604 477.716 356.097C477.716 355.083 477.716 353.511 477.716 351.554C477.716 347.599 477.665 341.901 477.625 334.803L477.797 334.975L415.72 335.066L415.983 334.803V337.784C415.983 338.798 415.983 339.761 415.983 340.734V357.709L415.72 357.455L460.145 357.567L473.095 357.638H476.581H477.493H477.807H477.523H476.642H473.217L460.317 357.709L415.73 357.83H415.477V346.555C415.477 344.638 415.477 342.702 415.477 340.734V334.803C415.477 334.853 415.983 334.296 415.75 334.539L477.827 334.62H478.01V334.803C478.01 341.901 477.939 347.68 477.908 351.665C477.908 353.602 477.908 355.113 477.908 356.168C477.908 356.654 477.908 357.04 477.908 357.323C477.862 357.46 477.798 357.59 477.716 357.709Z" fill="#263238"/>
<path d="M420.432 357.709C420.28 357.709 420.168 352.578 420.168 346.251C420.168 339.923 420.28 334.803 420.432 334.803C420.584 334.803 420.695 339.923 420.695 346.251C420.695 352.578 420.533 357.709 420.432 357.709Z" fill="#263238"/>
<path d="M426.269 357.709C426.117 357.709 426.005 352.578 426.005 346.251C426.005 339.923 426.117 334.803 426.269 334.803C426.421 334.803 426.532 339.923 426.532 346.251C426.532 352.578 426.411 357.709 426.269 357.709Z" fill="#263238"/>
<path d="M432.106 357.709C431.964 357.709 431.842 352.578 431.842 346.251C431.842 339.923 431.964 334.803 432.106 334.803C432.247 334.803 432.369 339.923 432.369 346.251C432.369 352.578 432.247 357.709 432.106 357.709Z" fill="#263238"/>
<path d="M437.942 357.709C437.801 357.709 437.679 352.578 437.679 346.251C437.679 339.923 437.801 334.803 437.942 334.803C438.084 334.803 438.206 339.923 438.206 346.251C438.206 352.578 438.084 357.709 437.942 357.709Z" fill="#263238"/>
<path d="M443.779 357.709C443.637 357.709 443.516 352.578 443.516 346.251C443.516 339.923 443.637 334.803 443.779 334.803C443.921 334.803 444.043 339.923 444.043 346.251C444.043 352.578 443.931 357.709 443.779 357.709Z" fill="#263238"/>
<path d="M449.616 357.709C449.474 357.709 449.353 352.578 449.353 346.251C449.353 339.923 449.474 334.803 449.616 334.803C449.758 334.803 449.89 339.923 449.89 346.251C449.89 352.578 449.768 357.709 449.616 357.709Z" fill="#263238"/>
<path d="M455.463 357.709C455.311 357.709 455.199 352.578 455.199 346.251C455.199 339.923 455.311 334.803 455.463 334.803C455.615 334.803 455.726 339.923 455.726 346.251C455.726 352.578 455.605 357.709 455.463 357.709Z" fill="#263238"/>
<path d="M461.3 357.709C461.148 357.709 461.036 352.578 461.036 346.251C461.036 339.923 461.148 334.803 461.3 334.803C461.452 334.803 461.563 339.923 461.563 346.251C461.563 352.578 461.442 357.709 461.3 357.709Z" fill="#263238"/>
<path d="M467.147 357.709C467.005 357.709 466.883 352.578 466.883 346.251C466.883 339.923 467.005 334.803 467.147 334.803C467.289 334.803 467.41 339.923 467.41 346.251C467.41 352.578 467.278 357.709 467.147 357.709Z" fill="#263238"/>
<path d="M472.973 357.709C472.831 357.709 472.71 352.578 472.71 346.251C472.71 339.923 472.831 334.803 472.973 334.803C473.115 334.803 473.237 339.923 473.237 346.251C473.237 352.578 473.125 357.709 472.973 357.709Z" fill="#263238"/>
<path d="M376.22 351.858H375.876H374.862L370.991 351.909L356.734 351.99L309.715 352.071C285.395 352.071 264.115 352.02 252.766 351.939L252.898 351.807C252.898 354.849 252.898 357.242 252.837 358.905C252.837 359.686 252.837 360.305 252.837 360.751C252.837 360.933 252.837 361.096 252.837 361.217C252.837 361.339 252.837 361.379 252.837 361.379C252.837 361.379 252.837 361.329 252.837 361.217V360.751C252.837 360.305 252.837 359.686 252.837 358.905C252.837 357.242 252.837 354.849 252.776 351.807V351.675H252.918C264.298 351.594 285.557 351.544 309.867 351.544L356.886 351.625L371.143 351.706L375.014 351.757H376.028L376.22 351.858Z" fill="#263238"/>
<path d="M365.986 360.335C365.634 357.544 365.634 354.72 365.986 351.929C366.337 354.72 366.337 357.544 365.986 360.335Z" fill="#263238"/>
<path d="M348.739 360.335C348.387 357.544 348.387 354.72 348.739 351.929C349.09 354.72 349.09 357.544 348.739 360.335Z" fill="#263238"/>
<path d="M331.492 360.335C331.14 357.544 331.14 354.72 331.492 351.929C331.843 354.72 331.843 357.544 331.492 360.335Z" fill="#263238"/>
<path d="M314.235 360.335C313.883 357.544 313.883 354.72 314.235 351.929C314.586 354.72 314.586 357.544 314.235 360.335Z" fill="#263238"/>
<path d="M296.988 360.335C296.636 357.544 296.636 354.72 296.988 351.929C297.339 354.72 297.339 357.544 296.988 360.335Z" fill="#263238"/>
<path d="M279.741 360.335C279.377 357.545 279.377 354.719 279.741 351.929C280.092 354.72 280.092 357.544 279.741 360.335Z" fill="#263238"/>
<path d="M262.453 360.335C262.102 357.544 262.102 354.72 262.453 351.929C262.805 354.72 262.805 357.544 262.453 360.335Z" fill="#263238"/>
<path d="M499.664 360.021C499.651 359.845 499.651 359.669 499.664 359.493C499.664 359.122 499.664 358.604 499.664 357.942C499.664 356.533 499.664 354.505 499.604 351.858L499.725 351.99C488.872 352.071 467.096 352.122 442.067 352.122L395.544 352.051L381.449 351.959H377.608H376.595C376.484 351.973 376.372 351.973 376.261 351.959H376.595H377.608L381.449 351.909L395.544 351.828L442.067 351.746C467.096 351.746 488.872 351.807 499.725 351.888H499.857V351.858C499.857 354.474 499.857 356.502 499.857 357.942C499.857 358.601 499.857 359.118 499.857 359.493C499.807 359.674 499.743 359.851 499.664 360.021Z" fill="#263238"/>
<path d="M454.987 360.365C454.635 357.574 454.635 354.75 454.987 351.959C455.338 354.75 455.338 357.574 454.987 360.365Z" fill="#263238"/>
<path d="M437.689 360.365C437.338 357.574 437.338 354.75 437.689 351.959C438.04 354.75 438.04 357.574 437.689 360.365Z" fill="#263238"/>
<path d="M420.432 360.365C420.081 357.574 420.081 354.75 420.432 351.959C420.796 354.75 420.796 357.575 420.432 360.365Z" fill="#263238"/>
<path d="M403.185 360.365C402.834 357.574 402.834 354.75 403.185 351.959C403.536 354.75 403.536 357.574 403.185 360.365Z" fill="#263238"/>
<path d="M385.938 360.365C385.587 357.574 385.587 354.75 385.938 351.959C386.289 354.75 386.289 357.574 385.938 360.365Z" fill="#263238"/>
<path d="M250.567 347.315C250.554 347.14 250.554 346.964 250.567 346.788C250.567 346.409 250.567 345.892 250.567 345.237C250.567 343.827 250.567 341.799 250.506 339.153L250.628 339.274C239.167 339.355 215.485 339.416 188.196 339.416C161.961 339.416 139.08 339.366 127.183 339.284L127.315 339.153C127.315 342.195 127.315 344.608 127.254 346.251C127.254 347.042 127.254 347.65 127.254 348.096C127.254 348.542 127.254 348.725 127.254 348.725C127.243 348.515 127.243 348.306 127.254 348.096C127.254 347.65 127.254 347.082 127.254 346.251C127.254 344.608 127.254 342.195 127.194 339.153V339.021H127.325C139.222 338.94 162.103 338.889 188.338 338.889C215.627 338.889 239.309 338.95 250.77 339.031H250.891V339.153C250.891 341.769 250.891 343.797 250.891 345.237C250.891 345.913 250.891 346.43 250.891 346.788C250.804 346.976 250.695 347.153 250.567 347.315Z" fill="#263238"/>
<path d="M240.342 347.65C239.991 344.859 239.991 342.035 240.342 339.244C240.694 342.035 240.694 344.859 240.342 347.65Z" fill="#263238"/>
<path d="M223.095 347.65C222.744 344.859 222.744 342.035 223.095 339.244C223.447 342.035 223.447 344.859 223.095 347.65Z" fill="#263238"/>
<path d="M205.838 347.65C205.487 344.859 205.487 342.035 205.838 339.244C206.19 342.035 206.19 344.859 205.838 347.65Z" fill="#263238"/>
<path d="M188.591 347.65C188.24 344.859 188.24 342.035 188.591 339.244C188.943 342.035 188.943 344.859 188.591 347.65Z" fill="#263238"/>
<path d="M171.345 347.65C170.993 344.859 170.993 342.035 171.345 339.244C171.696 342.035 171.696 344.859 171.345 347.65Z" fill="#263238"/>
<path d="M154.087 347.65C153.736 344.859 153.736 342.035 154.087 339.244C154.439 342.035 154.439 344.859 154.087 347.65Z" fill="#263238"/>
<path d="M136.8 347.65C136.449 344.859 136.449 342.035 136.8 339.244C137.151 342.035 137.151 344.859 136.8 347.65Z" fill="#263238"/>
<path d="M189.868 285.887H165.234V315.831H189.868V285.887Z" fill="#2CBC40"/>
<path d="M258.765 285.887H189.878V315.831H258.765V285.887Z" fill="#2CBC40"/>
<path opacity="0.4" d="M258.765 285.887H189.878V315.831H258.765V285.887Z" fill="black"/>
<path d="M178.073 315.831C177.921 315.831 177.81 309.179 177.81 300.986C177.81 292.792 177.921 286.141 178.073 286.141C178.225 286.141 178.337 292.792 178.337 300.986C178.337 309.179 178.215 315.831 178.073 315.831Z" fill="#263238"/>
<path d="M254.894 312.413C254.894 312.413 254.894 312.261 254.894 311.998C254.894 311.734 254.894 311.308 254.894 310.801C254.894 309.787 254.894 308.215 254.894 306.258C254.894 302.304 254.843 296.605 254.803 289.507L254.975 289.68L192.898 289.771L193.162 289.507V292.488C193.162 293.502 193.162 294.466 193.162 295.439V312.413L192.908 312.16L237.323 312.271L250.273 312.342H253.759H254.671C254.775 312.334 254.881 312.334 254.985 312.342H254.701H253.82H250.395L237.495 312.413L192.908 312.535H192.533V295.297C192.533 294.283 192.533 293.33 192.533 292.346V289.365C192.533 289.416 193.04 288.858 192.807 289.102L254.884 289.183H255.066V289.365C255.066 296.463 254.995 302.243 254.965 306.228C254.965 308.165 254.965 309.676 254.965 310.73C254.965 311.217 254.965 311.602 254.965 311.886C254.972 312.065 254.948 312.243 254.894 312.413Z" fill="#263238"/>
<path d="M197.6 312.413C197.448 312.413 197.337 307.283 197.337 300.955C197.337 294.628 197.448 289.507 197.6 289.507C197.752 289.507 197.863 294.628 197.863 300.955C197.863 307.283 197.752 312.413 197.6 312.413Z" fill="#263238"/>
<path d="M203.447 312.413C203.295 312.413 203.183 307.283 203.183 300.955C203.183 294.628 203.295 289.507 203.447 289.507C203.599 289.507 203.71 294.628 203.71 300.955C203.71 307.283 203.589 312.413 203.447 312.413Z" fill="#263238"/>
<path d="M209.284 312.413C209.142 312.413 209.02 307.283 209.02 300.955C209.02 294.628 209.142 289.507 209.284 289.507C209.426 289.507 209.547 294.628 209.547 300.955C209.547 307.283 209.426 312.413 209.284 312.413Z" fill="#263238"/>
<path d="M215.121 312.413C214.979 312.413 214.857 307.283 214.857 300.955C214.857 294.628 214.979 289.507 215.121 289.507C215.262 289.507 215.384 294.628 215.384 300.955C215.384 307.283 215.273 312.413 215.121 312.413Z" fill="#263238"/>
<path d="M220.957 312.413C220.815 312.413 220.694 307.283 220.694 300.955C220.694 294.628 220.815 289.507 220.957 289.507C221.099 289.507 221.221 294.628 221.221 300.955C221.221 307.283 221.109 312.413 220.957 312.413Z" fill="#263238"/>
<path d="M226.804 312.413C226.652 312.413 226.531 307.283 226.531 300.955C226.531 294.628 226.652 289.507 226.804 289.507C226.956 289.507 227.068 294.628 227.068 300.955C227.068 307.283 226.987 312.413 226.804 312.413Z" fill="#263238"/>
<path d="M232.641 312.413C232.489 312.413 232.378 307.283 232.378 300.955C232.378 294.628 232.489 289.507 232.641 289.507C232.793 289.507 232.904 294.628 232.904 300.955C232.904 307.283 232.783 312.413 232.641 312.413Z" fill="#263238"/>
<path d="M238.478 312.413C238.326 312.413 238.214 307.283 238.214 300.955C238.214 294.628 238.326 289.507 238.478 289.507C238.63 289.507 238.741 294.628 238.741 300.955C238.741 307.283 238.62 312.413 238.478 312.413Z" fill="#263238"/>
<path d="M244.315 312.413C244.173 312.413 244.051 307.283 244.051 300.955C244.051 294.628 244.173 289.507 244.315 289.507C244.456 289.507 244.578 294.628 244.578 300.955C244.578 307.283 244.456 312.413 244.315 312.413Z" fill="#263238"/>
<path d="M250.151 312.413C250.01 312.413 249.888 307.283 249.888 300.955C249.888 294.628 250.01 289.507 250.151 289.507C250.293 289.507 250.415 294.628 250.415 300.955C250.415 307.283 250.293 312.413 250.151 312.413Z" fill="#263238"/>
<path d="M500.536 360.802V292.154H568.561V361.43" fill="#455A64"/>
<path d="M550.412 352.548H546.622V360.801H550.412V352.548Z" fill="#263238"/>
<path d="M508.42 341.424H506.038V347.315H508.42V341.424Z" fill="#263238"/>
<path d="M508.42 351.858H506.038V357.749H508.42V351.858Z" fill="#263238"/>
<path d="M522.09 341.424H519.708V347.315H522.09V341.424Z" fill="#263238"/>
<path d="M522.09 351.767H519.708V357.658H522.09V351.767Z" fill="#263238"/>
<path d="M535.76 341.424H533.378V347.315H535.76V341.424Z" fill="#263238"/>
<path d="M535.76 351.686H533.378V357.577H535.76V351.686Z" fill="#263238"/>
<path d="M549.429 341.424H547.048V347.315H549.429V341.424Z" fill="#263238"/>
<path d="M563.089 341.424H560.708V347.315H563.089V341.424Z" fill="#263238"/>
<path d="M563.089 351.341H560.708V357.232H563.089V351.341Z" fill="#263238"/>
<path d="M550.128 315.151H546.339V323.405H550.128V315.151Z" fill="#263238"/>
<path d="M508.42 299.343H506.038V305.234H508.42V299.343Z" fill="#263238"/>
<path d="M508.42 309.777H506.038V315.668H508.42V309.777Z" fill="#263238"/>
<path d="M522.09 299.343H519.708V305.234H522.09V299.343Z" fill="#263238"/>
<path d="M522.09 309.686H519.708V315.577H522.09V309.686Z" fill="#263238"/>
<path d="M535.76 299.343H533.378V305.234H535.76V299.343Z" fill="#263238"/>
<path d="M535.76 309.605H533.378V315.496H535.76V309.605Z" fill="#263238"/>
<path d="M549.429 299.343H547.048V305.234H549.429V299.343Z" fill="#263238"/>
<path d="M563.089 299.343H560.708V305.234H563.089V299.343Z" fill="#263238"/>
<path d="M563.089 309.26H560.708V315.151H563.089V309.26Z" fill="#263238"/>
<path d="M187.082 425.748C187.082 425.748 197.722 386.729 159.255 377.847C123.282 369.542 124.164 347.315 124.164 347.315H253.039V360.801H592.233C592.233 360.801 590.388 404.515 558.559 425.748" fill="#455A64"/>
<path d="M187.983 407.435H576.698C576.698 407.435 565.957 421.976 558.559 425.748H187.082C187.939 419.684 188.241 413.554 187.983 407.435Z" fill="#263238"/>
<path d="M566.656 323.405C566.611 323.154 566.594 322.899 566.605 322.645C566.605 322.107 566.605 321.377 566.605 320.465L566.707 320.566C560.92 320.667 546.977 320.728 530.703 320.728C514.429 320.728 500.475 320.667 494.689 320.566L494.79 320.465C494.79 321.377 494.79 322.107 494.74 322.645C494.751 322.899 494.734 323.154 494.689 323.405C494.657 323.153 494.64 322.899 494.638 322.645C494.638 322.107 494.638 321.377 494.588 320.465V320.424H494.689C500.475 320.333 514.419 320.262 530.703 320.262C546.987 320.262 560.92 320.333 566.707 320.424H566.808C566.808 321.337 566.808 322.067 566.808 322.604C566.782 322.875 566.731 323.143 566.656 323.405Z" fill="#263238"/>
<path d="M503.627 324.196C503.485 324.196 503.363 323.334 503.363 322.259C503.363 321.185 503.485 320.323 503.627 320.323C503.768 320.323 503.89 321.195 503.89 322.259C503.89 323.324 503.738 324.196 503.627 324.196Z" fill="#263238"/>
<path d="M513.111 324.196C512.969 324.196 512.848 323.334 512.848 322.259C512.848 321.185 512.969 320.323 513.111 320.323C513.253 320.323 513.375 321.195 513.375 322.259C513.375 323.324 513.263 324.196 513.111 324.196Z" fill="#263238"/>
<path d="M522.647 324.196C522.495 324.196 522.384 323.334 522.384 322.259C522.384 321.185 522.495 320.323 522.647 320.323C522.799 320.323 522.91 321.195 522.91 322.259C522.91 323.324 522.789 324.196 522.647 324.196Z" fill="#263238"/>
<path d="M532.172 324.196C532.02 324.196 531.909 323.334 531.909 322.259C531.909 321.185 532.02 320.323 532.172 320.323C532.324 320.323 532.436 321.195 532.436 322.259C532.436 323.324 532.314 324.196 532.172 324.196Z" fill="#263238"/>
<path d="M541.698 324.196C541.556 324.196 541.434 323.334 541.434 322.259C541.434 321.185 541.556 320.323 541.698 320.323C541.839 320.323 541.961 321.195 541.961 322.259C541.961 323.324 541.839 324.196 541.698 324.196Z" fill="#263238"/>
<path d="M551.253 324.196C551.111 324.196 550.99 323.334 550.99 322.259C550.99 321.185 551.111 320.323 551.253 320.323C551.395 320.323 551.517 321.195 551.517 322.259C551.517 323.324 551.375 324.196 551.253 324.196Z" fill="#263238"/>
<path d="M560.748 324.196C560.606 324.196 560.485 323.334 560.485 322.259C560.485 321.185 560.606 320.323 560.748 320.323C560.89 320.323 561.012 321.195 561.012 322.259C561.012 323.324 560.9 324.196 560.748 324.196Z" fill="#263238"/>
<path d="M568.551 323.405H493.22V330.929H568.551V323.405Z" fill="#263238"/>
<path opacity="0.4" d="M511.977 281.638H520.174L521.076 286.85H511.977V281.638Z" fill="white"/>
<path d="M591.908 360.021C591.897 359.842 591.897 359.662 591.908 359.483C591.908 359.088 591.908 358.571 591.908 357.901C591.908 356.482 591.908 354.454 591.837 351.888L591.979 352.03C582.859 352.112 566.463 352.152 547.808 352.152L510.821 352.081L499.573 351.99H496.533H495.743C495.652 352.003 495.56 352.003 495.469 351.99H495.743H496.533L499.573 351.939L510.781 351.858L547.767 351.777C566.423 351.777 582.798 351.828 591.939 351.899H592.08V351.858C592.08 354.423 592.08 356.451 592.009 357.871C592.009 358.54 592.009 359.057 592.009 359.453C591.996 359.645 591.962 359.835 591.908 360.021Z" fill="#263238"/>
<path d="M581.653 360.365C581.302 357.574 581.302 354.75 581.653 351.959C582.005 354.75 582.005 357.574 581.653 360.365Z" fill="#263238"/>
<path d="M564.427 360.365C564.062 357.575 564.062 354.75 564.427 351.959C564.778 354.75 564.778 357.574 564.427 360.365Z" fill="#263238"/>
<path d="M547.2 360.365C546.849 357.574 546.849 354.75 547.2 351.959C547.551 354.75 547.551 357.574 547.2 360.365Z" fill="#263238"/>
<path d="M529.973 360.365C529.622 357.574 529.622 354.75 529.973 351.959C530.325 354.75 530.325 357.574 529.973 360.365Z" fill="#263238"/>
<path d="M512.676 360.365C512.325 357.574 512.325 354.75 512.676 351.959C513.04 354.75 513.04 357.575 512.676 360.365Z" fill="#263238"/>
<path d="M495.429 360.365C495.077 357.574 495.077 354.75 495.429 351.959C495.78 354.75 495.78 357.574 495.429 360.365Z" fill="#263238"/>
<path d="M478.182 360.365C477.831 357.574 477.831 354.75 478.182 351.959C478.533 354.75 478.533 357.574 478.182 360.365Z" fill="#263238"/>
</svg>
