<svg width="594" height="260" viewBox="0 0 594 260" fill="none" xmlns="http://www.w3.org/2000/svg">
<path d="M45.7689 5.38477H61.923C64.1668 5.38477 66.0738 6.17011 67.6446 7.74034C69.2147 9.31087 70 11.2178 70 13.4618V29.6154C70 31.8593 69.2151 33.7659 67.6446 35.3361C66.0739 36.9062 64.1664 37.6918 61.923 37.6918H52.4999C51.3785 37.6918 50.4247 38.0847 49.6394 38.8697C48.8541 39.6543 48.4615 40.6084 48.4615 41.7307V43.0761C48.4615 46.049 49.5134 48.5863 51.6166 50.69C53.7199 52.7928 56.2578 53.8445 59.231 53.8445H61.923C62.6526 53.8445 63.2834 54.1116 63.8165 54.6441C64.3491 55.1766 64.6156 55.8078 64.6156 56.537V61.9223C64.6156 62.6503 64.3491 63.2827 63.8165 63.8154C63.2829 64.3477 62.6527 64.615 61.923 64.615H59.2308C56.3139 64.615 53.5304 64.0462 50.88 62.9108C48.2298 61.7752 45.9373 60.2393 44.0021 58.3041C42.0673 56.3688 40.5317 54.0767 39.396 51.4263C38.2604 48.776 37.6924 45.9927 37.6924 43.0762V13.4612C37.6924 11.2172 38.4777 9.31043 40.048 7.7402C41.6182 6.16996 43.5256 5.38477 45.7689 5.38477Z" fill="#EBEBEB"/>
<path d="M2.35644 7.74034C3.92652 6.17011 5.83358 5.38477 8.07747 5.38477H24.231C26.4749 5.38477 28.3818 6.17011 29.952 7.74034C31.5221 9.31102 32.3071 11.2178 32.3071 13.4618V29.6154C32.3071 31.8593 31.5221 33.7659 29.952 35.3361C28.3818 36.9062 26.4747 37.6918 24.231 37.6918H14.8079C13.6865 37.6918 12.732 38.0847 11.9468 38.8697C11.1624 39.6547 10.769 40.6084 10.769 41.7307V43.0761C10.769 46.049 11.8209 48.5863 13.9245 50.69C16.0276 52.7928 18.5649 53.8445 21.5384 53.8445H24.231C24.96 53.8445 25.5914 54.1116 26.1239 54.6441C26.6568 55.1766 26.9237 55.8078 26.9237 56.537V61.9223C26.9237 62.6503 26.6568 63.2827 26.1239 63.8154C25.5915 64.3477 24.9602 64.615 24.231 64.615H21.5384C18.6219 64.615 15.8386 64.0462 13.1879 62.9108C10.5381 61.7752 8.24588 60.2393 6.31053 58.3041C4.37533 56.3688 2.83884 54.0761 1.70385 51.4263C0.568428 48.7766 0.0001297 45.9927 0.0001297 43.0762V13.4612C0.000572205 11.2172 0.785173 9.31043 2.35644 7.74034Z" fill="#EBEBEB"/>
<path d="M548.231 195.385H532.077C529.833 195.385 527.926 196.17 526.355 197.74C524.785 199.311 524 201.218 524 203.462V219.615C524 221.859 524.785 223.766 526.355 225.336C527.926 226.906 529.834 227.692 532.077 227.692H541.5C542.622 227.692 543.575 228.085 544.361 228.87C545.146 229.654 545.538 230.608 545.538 231.731V233.076C545.538 236.049 544.487 238.586 542.383 240.69C540.28 242.793 537.742 243.844 534.769 243.844H532.077C531.347 243.844 530.717 244.112 530.184 244.644C529.651 245.177 529.384 245.808 529.384 246.537V251.922C529.384 252.65 529.651 253.283 530.184 253.815C530.717 254.348 531.347 254.615 532.077 254.615H534.769C537.686 254.615 540.47 254.046 543.12 252.911C545.77 251.775 548.063 250.239 549.998 248.304C551.933 246.369 553.468 244.077 554.604 241.426C555.74 238.776 556.308 235.993 556.308 233.076V203.461C556.308 201.217 555.522 199.31 553.952 197.74C552.382 196.17 550.474 195.385 548.231 195.385Z" fill="#EBEBEB"/>
<path d="M591.644 197.74C590.073 196.17 588.166 195.385 585.922 195.385H569.769C567.525 195.385 565.618 196.17 564.048 197.74C562.478 199.311 561.693 201.218 561.693 203.462V219.615C561.693 221.859 562.478 223.766 564.048 225.336C565.618 226.906 567.525 227.692 569.769 227.692H579.192C580.313 227.692 581.268 228.085 582.053 228.87C582.838 229.655 583.231 230.608 583.231 231.731V233.076C583.231 236.049 582.179 238.586 580.075 240.69C577.972 242.793 575.435 243.844 572.462 243.844H569.769C569.04 243.844 568.409 244.112 567.876 244.644C567.343 245.177 567.076 245.808 567.076 246.537V251.922C567.076 252.65 567.343 253.283 567.876 253.815C568.408 254.348 569.04 254.615 569.769 254.615H572.462C575.378 254.615 578.161 254.046 580.812 252.911C583.462 251.775 585.754 250.239 587.689 248.304C589.625 246.369 591.161 244.076 592.296 241.426C593.432 238.777 594 235.993 594 233.076V203.461C593.999 201.217 593.215 199.31 591.644 197.74Z" fill="#EBEBEB"/>
</svg>
