<svg width="72" height="72" viewBox="0 0 72 72" fill="none" xmlns="http://www.w3.org/2000/svg">
<circle cx="36" cy="36" r="36" fill="#0F3E15"/>
<path d="M45.6667 48C43.9467 48 42.2267 47.4534 40.68 46.48C40.4667 46.3467 40.1867 46.3467 39.9733 46.48C36.8933 48.44 33.0933 48.44 30.0133 46.48C29.8 46.3467 29.52 46.3467 29.3067 46.48C27.7733 47.4534 26.0533 48 24.3333 48H23C22.2667 48 21.6667 48.6 21.6667 49.3334C21.6667 50.0667 22.2667 50.6667 23 50.6667H24.3333C26.1733 50.6667 27.9867 50.2 29.6667 49.3467C33.0267 51.0667 36.9733 51.0667 40.3333 49.3467C42.0133 50.2134 43.8267 50.6667 45.6667 50.6667H47C47.7333 50.6667 48.3333 50.0667 48.3333 49.3334C48.3333 48.6 47.7333 48 47 48H45.6667ZM24.2667 45.3334H24.3333C26.2267 45.3334 27.9333 44.4 29.2133 43.1467C29.4667 42.9067 29.88 42.9067 30.1333 43.1467C31.4 44.4 33.1067 45.3334 35 45.3334C36.8933 45.3334 38.6 44.4 39.88 43.1467C40.1333 42.8934 40.5333 42.8934 40.8 43.1467C42.0667 44.4 43.7733 45.3334 45.6667 45.3334H45.7333L48.2533 36.4267C48.36 36.08 48.3333 35.7067 48.1733 35.3867C48.0133 35.0667 47.72 34.8267 47.3734 34.72L45.6667 34.16V28C45.6667 26.5334 44.4667 25.3334 43 25.3334H39V22.6667C39 21.9334 38.4 21.3334 37.6667 21.3334H32.3333C31.6 21.3334 31 21.9334 31 22.6667V25.3334H27C25.5333 25.3334 24.3333 26.5334 24.3333 28V34.16L22.6133 34.72C22.2667 34.8267 21.9733 35.0667 21.8133 35.3867C21.6533 35.7067 21.6133 36.08 21.7333 36.4267L24.2667 45.3334ZM28.3333 28H41.6667C42.4 28 43 28.6 43 29.3334V33.2934L35.8267 30.9334C35.28 30.76 34.7067 30.76 34.16 30.9334L27 33.2934V29.3334C27 28.6 27.6 28 28.3333 28Z" fill="white"/>
</svg>
