<svg width="116" height="212" viewBox="0 0 116 212" fill="none" xmlns="http://www.w3.org/2000/svg">
<rect x="-4" width="24" height="24" fill="#2CBC40" fill-opacity="0.14"/>
<rect width="24" height="24" transform="matrix(1 0 0 -1 -4 212)" fill="#2CBC40" fill-opacity="0.14"/>
<rect x="-4" y="32" width="24" height="24" fill="#2CBC40" fill-opacity="0.14"/>
<rect width="24" height="24" transform="matrix(1 0 0 -1 -4 182)" fill="#2CBC40" fill-opacity="0.14"/>
<rect x="-4" y="64" width="24" height="24" fill="#2CBC40" fill-opacity="0.14"/>
<rect width="24" height="24" transform="matrix(1 0 0 -1 -4 152)" fill="#2CBC40" fill-opacity="0.14"/>
<rect x="-4" y="96" width="24" height="24" fill="#2CBC40" fill-opacity="0.14"/>
<rect x="28" y="32" width="24" height="24" fill="#2CBC40" fill-opacity="0.14"/>
<rect width="24" height="24" transform="matrix(1 0 0 -1 28 182)" fill="#2CBC40" fill-opacity="0.14"/>
<rect x="28" y="64" width="24" height="24" fill="#2CBC40" fill-opacity="0.14"/>
<rect width="24" height="24" transform="matrix(1 0 0 -1 28 152)" fill="#2CBC40" fill-opacity="0.14"/>
<rect x="28" y="96" width="24" height="24" fill="#2CBC40" fill-opacity="0.14"/>
<rect x="60" y="64" width="24" height="24" fill="#2CBC40" fill-opacity="0.14"/>
<rect width="24" height="24" transform="matrix(1 0 0 -1 60 152)" fill="#2CBC40" fill-opacity="0.14"/>
<rect x="60" y="96" width="24" height="24" fill="#2CBC40" fill-opacity="0.14"/>
<rect x="92" y="96" width="24" height="24" fill="#2CBC40" fill-opacity="0.14"/>
</svg>
