<svg width="24" height="24" viewBox="0 0 24 24" fill="none" xmlns="http://www.w3.org/2000/svg">
<rect width="24" height="24" rx="12" fill="#32BBFF"/>
<g clip-path="url(#clip0)">
<path d="M19 7.76271C18.4794 8.00865 17.9246 8.17167 17.3462 8.25083C17.9412 7.86825 18.3954 7.26706 18.6089 6.54242C18.0541 6.89862 17.4416 7.15021 16.7889 7.29062C16.2621 6.6866 15.5114 6.3125 14.6924 6.3125C13.1034 6.3125 11.8241 7.70146 11.8241 9.40421C11.8241 9.64921 11.8434 9.88479 11.8906 10.1091C9.5045 9.98373 7.39313 8.75213 5.97475 6.876C5.72712 7.33867 5.58188 7.86825 5.58188 8.43835C5.58188 9.50881 6.09375 10.4577 6.85675 11.0071C6.39562 10.9977 5.94325 10.8535 5.56 10.6264C5.56 10.6358 5.56 10.6481 5.56 10.6603C5.56 12.1623 6.55487 13.41 7.8595 13.6974C7.62587 13.7662 7.37125 13.7991 7.107 13.7991C6.92325 13.7991 6.73775 13.7878 6.56362 13.7464C6.9355 14.9704 7.99075 15.8703 9.2455 15.8995C8.269 16.7222 7.02912 17.2178 5.68688 17.2178C5.4515 17.2178 5.22575 17.2065 5 17.1754C6.27137 18.0584 7.77813 18.5625 9.403 18.5625C14.6845 18.5625 17.572 13.851 17.572 9.767C17.572 9.63037 17.5676 9.49844 17.5615 9.36746C18.1311 8.93212 18.6097 8.3884 19 7.76271Z" fill="white"/>
</g>
<defs>
<clipPath id="clip0">
<rect width="14" height="14" fill="white" transform="translate(5 5)"/>
</clipPath>
</defs>
</svg>
