<svg width="637" height="648" viewBox="0 0 637 648" fill="none" xmlns="http://www.w3.org/2000/svg">
<path d="M637 498.178H0V498.496H637V498.178Z" fill="#EBEBEB"/>
<path d="M409.617 515.937H367.422V516.256H409.617V515.937Z" fill="#EBEBEB"/>
<path d="M529.691 512.485H518.62V512.803H529.691V512.485Z" fill="#EBEBEB"/>
<path d="M505.256 506.854H417.452V507.172H505.256V506.854Z" fill="#EBEBEB"/>
<path d="M286.828 514.37H248.226V514.689H286.828V514.37Z" fill="#EBEBEB"/>
<path d="M236.888 514.37H212.401V514.689H236.888V514.37Z" fill="#EBEBEB"/>
<path d="M126.508 508.994H66.834V509.312H126.508V508.994Z" fill="#EBEBEB"/>
<path d="M301.938 441.357H55.9413C54.0142 441.354 52.1672 440.586 50.8057 439.222C49.4442 437.858 48.6795 436.01 48.6795 434.083V88.2808C48.6963 86.3648 49.4684 84.5327 50.8281 83.1826C52.1877 81.8324 54.0252 81.0733 55.9413 81.07H301.938C303.867 81.07 305.718 81.8364 307.082 83.2007C308.446 84.5649 309.213 86.4152 309.213 88.3445V434.083C309.213 436.012 308.446 437.862 307.082 439.227C305.718 440.591 303.867 441.357 301.938 441.357ZM55.9413 81.3248C54.0987 81.3282 52.3327 82.0625 51.0309 83.3667C49.7292 84.6708 48.998 86.4382 48.998 88.2808V434.083C48.998 435.925 49.7292 437.693 51.0309 438.997C52.3327 440.301 54.0987 441.035 55.9413 441.039H301.938C303.782 441.035 305.549 440.301 306.853 438.998C308.157 437.694 308.891 435.926 308.894 434.083V88.2808C308.891 86.437 308.157 84.6697 306.853 83.3659C305.549 82.0621 303.782 81.3282 301.938 81.3248H55.9413Z" fill="#CCCCCC"/>
<path d="M577.517 441.357H331.508C329.579 441.354 327.731 440.586 326.367 439.223C325.004 437.859 324.236 436.011 324.233 434.083V88.2808C324.253 86.3636 325.028 84.5316 326.39 83.1818C327.751 81.832 329.59 81.0733 331.508 81.07H577.517C579.431 81.0766 581.265 81.8373 582.622 83.187C583.979 84.5368 584.749 86.367 584.766 88.2808V434.083C584.766 436.008 584.003 437.854 582.644 439.218C581.286 440.581 579.442 441.35 577.517 441.357ZM331.508 81.3248C329.664 81.3282 327.896 82.0621 326.593 83.3659C325.289 84.6697 324.555 86.437 324.552 88.2808V434.083C324.555 435.926 325.289 437.694 326.593 438.998C327.896 440.301 329.664 441.035 331.508 441.039H577.517C579.361 441.035 581.128 440.301 582.432 438.998C583.736 437.694 584.47 435.926 584.473 434.083V88.2808C584.47 86.437 583.736 84.6697 582.432 83.3659C581.128 82.0621 579.361 81.3282 577.517 81.3248H331.508Z" fill="#CCCCCC"/>
<path d="M558.878 226.446C558.875 225.055 558.321 223.722 557.337 222.738C556.354 221.755 555.02 221.201 553.629 221.197H390.124C388.733 221.201 387.4 221.755 386.416 222.738C385.433 223.722 384.879 225.055 384.875 226.446V243.339H558.878V226.446Z" fill="#E6E6E6"/>
<path d="M520.404 232.268C520.406 233.056 520.175 233.826 519.739 234.481C519.303 235.137 518.682 235.648 517.956 235.951C517.229 236.253 516.429 236.333 515.656 236.18C514.884 236.027 514.175 235.648 513.618 235.092C513.061 234.535 512.682 233.826 512.529 233.053C512.377 232.281 512.456 231.481 512.759 230.754C513.061 230.027 513.573 229.407 514.228 228.971C514.884 228.535 515.654 228.304 516.441 228.306C517.491 228.31 518.497 228.728 519.239 229.47C519.982 230.213 520.4 231.219 520.404 232.268Z" fill="white"/>
<path d="M534.468 232.268C534.471 233.055 534.24 233.825 533.805 234.48C533.37 235.135 532.75 235.647 532.024 235.95C531.297 236.252 530.498 236.333 529.726 236.181C528.954 236.029 528.245 235.652 527.687 235.096C527.13 234.541 526.75 233.833 526.596 233.061C526.442 232.29 526.52 231.49 526.82 230.763C527.121 230.036 527.63 229.414 528.284 228.977C528.938 228.54 529.707 228.306 530.494 228.306C531.546 228.306 532.555 228.723 533.3 229.466C534.045 230.209 534.465 231.216 534.468 232.268Z" fill="white"/>
<path d="M544.559 236.243C546.754 236.243 548.533 234.464 548.533 232.268C548.533 230.073 546.754 228.293 544.559 228.293C542.363 228.293 540.584 230.073 540.584 232.268C540.584 234.464 542.363 236.243 544.559 236.243Z" fill="white"/>
<path d="M390.124 357.133H553.629C555.02 357.13 556.354 356.576 557.337 355.592C558.321 354.608 558.875 353.275 558.878 351.884V243.339H384.875V351.884C384.879 353.275 385.433 354.608 386.416 355.592C387.4 356.576 388.733 357.13 390.124 357.133Z" fill="#F0F0F0"/>
<path d="M572.153 266.182C572.15 264.791 571.596 263.458 570.612 262.474C569.629 261.491 568.296 260.937 566.905 260.933H403.399C402.008 260.937 400.675 261.491 399.692 262.474C398.708 263.458 398.154 264.791 398.151 266.182V283.075H572.153V266.182Z" fill="#F0F0F0"/>
<path d="M533.691 272.004C533.691 272.791 533.458 273.559 533.021 274.213C532.585 274.866 531.964 275.376 531.238 275.677C530.511 275.978 529.712 276.056 528.941 275.903C528.17 275.75 527.462 275.371 526.906 274.815C526.35 274.259 525.971 273.551 525.818 272.78C525.665 272.009 525.743 271.21 526.044 270.483C526.345 269.757 526.855 269.136 527.508 268.699C528.162 268.263 528.93 268.029 529.717 268.029C530.771 268.029 531.782 268.448 532.527 269.194C533.273 269.939 533.691 270.95 533.691 272.004Z" fill="#E6E6E6"/>
<path d="M547.744 272.004C547.744 272.791 547.51 273.56 547.073 274.214C546.635 274.868 546.014 275.377 545.287 275.678C544.56 275.978 543.76 276.056 542.988 275.902C542.217 275.747 541.509 275.368 540.953 274.81C540.398 274.253 540.02 273.544 539.869 272.772C539.717 272 539.797 271.2 540.1 270.474C540.403 269.748 540.914 269.128 541.57 268.693C542.225 268.258 542.995 268.027 543.781 268.03C544.833 268.033 545.841 268.453 546.584 269.198C547.327 269.943 547.744 270.952 547.744 272.004Z" fill="#E6E6E6"/>
<path d="M561.834 272.004C561.834 272.791 561.601 273.56 561.163 274.214C560.726 274.868 560.104 275.377 559.377 275.678C558.65 275.978 557.85 276.056 557.079 275.902C556.308 275.747 555.599 275.368 555.044 274.81C554.488 274.253 554.111 273.544 553.959 272.772C553.807 272 553.888 271.2 554.19 270.474C554.493 269.748 555.005 269.128 555.66 268.693C556.315 268.258 557.085 268.027 557.872 268.03C558.924 268.033 559.932 268.453 560.674 269.198C561.417 269.943 561.834 270.952 561.834 272.004Z" fill="#E6E6E6"/>
<path d="M403.399 396.869H566.93C568.321 396.866 569.654 396.312 570.638 395.328C571.621 394.344 572.176 393.011 572.179 391.62V283.075H398.151V391.62C398.154 393.011 398.708 394.344 399.692 395.328C400.675 396.312 402.008 396.866 403.399 396.869Z" fill="#FAFAFA"/>
<path d="M63.2668 104.524C63.2736 103.206 63.8009 101.945 64.734 101.014C65.6671 100.083 66.9303 99.5591 68.2482 99.5558H282.828C284.146 99.5591 285.409 100.083 286.342 101.014C287.275 101.945 287.803 103.206 287.809 104.524V120.564H63.2668V104.524Z" fill="#E0E0E0"/>
<path d="M103.525 114.194C102.716 114.194 101.926 113.954 101.253 113.505C100.581 113.055 100.057 112.417 99.747 111.669C99.4375 110.922 99.3565 110.1 99.5143 109.307C99.6721 108.513 100.062 107.785 100.634 107.213C101.205 106.641 101.934 106.251 102.727 106.094C103.521 105.936 104.343 106.017 105.09 106.326C105.838 106.636 106.476 107.16 106.926 107.832C107.375 108.505 107.615 109.296 107.615 110.104C107.615 111.189 107.184 112.229 106.417 112.996C105.65 113.763 104.61 114.194 103.525 114.194ZM103.525 106.665C102.845 106.665 102.18 106.866 101.614 107.244C101.049 107.622 100.608 108.16 100.347 108.788C100.087 109.417 100.019 110.108 100.152 110.776C100.284 111.443 100.612 112.056 101.093 112.537C101.574 113.018 102.187 113.345 102.854 113.478C103.521 113.611 104.213 113.543 104.842 113.282C105.47 113.022 106.007 112.581 106.385 112.016C106.763 111.45 106.965 110.785 106.965 110.104C106.972 109.648 106.888 109.196 106.718 108.772C106.548 108.349 106.296 107.964 105.976 107.639C105.656 107.314 105.274 107.056 104.853 106.88C104.433 106.704 103.981 106.614 103.525 106.614V106.665Z" fill="white"/>
<path d="M90.1865 114.194C89.3798 114.194 88.5912 113.955 87.9198 113.508C87.2484 113.061 86.7243 112.425 86.4133 111.681C86.1024 110.937 86.0185 110.117 86.1722 109.325C86.3259 108.533 86.7103 107.805 87.2772 107.231C87.844 106.657 88.5679 106.263 89.3578 106.1C90.1478 105.936 90.9684 106.01 91.7165 106.312C92.4646 106.614 93.1067 107.13 93.5621 107.796C94.0176 108.461 94.2659 109.247 94.276 110.054C94.2827 110.595 94.1819 111.132 93.9794 111.634C93.7769 112.136 93.4768 112.593 93.0964 112.978C92.7159 113.363 92.2628 113.669 91.7633 113.878C91.2638 114.087 90.7278 114.194 90.1865 114.194ZM90.1865 106.665C89.5061 106.665 88.8411 106.866 88.2754 107.244C87.7097 107.622 87.2688 108.16 87.0085 108.788C86.7481 109.417 86.68 110.108 86.8127 110.776C86.9455 111.443 87.2731 112.056 87.7541 112.537C88.2352 113.018 88.8481 113.345 89.5154 113.478C90.1826 113.611 90.8743 113.543 91.5028 113.282C92.1313 113.022 92.6686 112.581 93.0465 112.016C93.4245 111.45 93.6262 110.785 93.6262 110.104C93.633 109.648 93.549 109.196 93.3792 108.772C93.2093 108.349 92.957 107.964 92.637 107.639C92.3169 107.314 91.9354 107.056 91.5147 106.88C91.094 106.704 90.6425 106.614 90.1865 106.614V106.665Z" fill="white"/>
<path d="M76.8477 114.194C76.0388 114.194 75.2482 113.954 74.5756 113.505C73.9031 113.055 73.379 112.417 73.0694 111.669C72.7599 110.922 72.6789 110.1 72.8367 109.307C72.9945 108.513 73.384 107.785 73.9559 107.213C74.5279 106.641 75.2565 106.251 76.0498 106.094C76.8431 105.936 77.6654 106.017 78.4127 106.326C79.1599 106.636 79.7986 107.16 80.248 107.832C80.6974 108.505 80.9372 109.296 80.9372 110.104C80.9372 111.189 80.5064 112.229 79.7394 112.996C78.9725 113.763 77.9323 114.194 76.8477 114.194ZM76.8477 106.665C76.1673 106.665 75.5023 106.866 74.9366 107.244C74.371 107.622 73.9301 108.16 73.6697 108.788C73.4094 109.417 73.3412 110.108 73.474 110.776C73.6067 111.443 73.9343 112.056 74.4154 112.537C74.8964 113.018 75.5093 113.345 76.1766 113.478C76.8439 113.611 77.5355 113.543 78.164 113.282C78.7926 113.022 79.3298 112.581 79.7078 112.016C80.0857 111.45 80.2875 110.785 80.2875 110.104C80.2942 109.648 80.2102 109.196 80.0404 108.772C79.8706 108.349 79.6183 107.964 79.2982 107.639C78.9781 107.314 78.5966 107.056 78.1759 106.88C77.7552 106.704 77.3037 106.614 76.8477 106.614V106.665Z" fill="white"/>
<path d="M68.2482 253.773H282.828C284.148 253.77 285.413 253.244 286.347 252.311C287.28 251.377 287.806 250.112 287.809 248.792V120.564H63.2668V248.792C63.2702 250.112 63.7961 251.377 64.7296 252.311C65.663 253.244 66.9281 253.77 68.2482 253.773Z" fill="#EBEBEB"/>
<path d="M117.093 138.158C117.1 136.84 117.627 135.578 118.561 134.648C119.494 133.717 120.757 133.193 122.075 133.189H336.616C337.934 133.193 339.197 133.717 340.13 134.648C341.064 135.578 341.591 136.84 341.598 138.158V154.185H117.093V138.158Z" fill="#FAFAFA"/>
<path d="M157.352 147.777C156.543 147.777 155.752 147.537 155.08 147.087C154.407 146.638 153.883 145.999 153.574 145.252C153.264 144.505 153.183 143.683 153.341 142.889C153.499 142.096 153.888 141.367 154.46 140.795C155.032 140.223 155.761 139.834 156.554 139.676C157.347 139.518 158.169 139.599 158.917 139.909C159.664 140.218 160.303 140.743 160.752 141.415C161.201 142.088 161.441 142.878 161.441 143.687C161.441 144.772 161.01 145.812 160.244 146.579C159.477 147.346 158.436 147.777 157.352 147.777ZM157.352 140.247C156.671 140.247 156.006 140.449 155.441 140.827C154.875 141.205 154.434 141.742 154.174 142.371C153.913 142.999 153.845 143.691 153.978 144.358C154.111 145.025 154.438 145.638 154.919 146.119C155.401 146.6 156.013 146.928 156.681 147.061C157.348 147.194 158.04 147.125 158.668 146.865C159.297 146.605 159.834 146.164 160.212 145.598C160.59 145.032 160.792 144.367 160.792 143.687C160.792 142.775 160.429 141.9 159.784 141.255C159.139 140.61 158.264 140.247 157.352 140.247Z" fill="#E6E6E6"/>
<path d="M143.962 147.777C143.153 147.777 142.362 147.537 141.69 147.087C141.017 146.638 140.493 145.999 140.184 145.252C139.874 144.505 139.793 143.683 139.951 142.889C140.109 142.096 140.498 141.367 141.07 140.795C141.642 140.223 142.371 139.834 143.164 139.676C143.957 139.518 144.78 139.599 145.527 139.909C146.274 140.218 146.913 140.743 147.362 141.415C147.812 142.088 148.052 142.878 148.052 143.687C148.052 144.772 147.621 145.812 146.854 146.579C146.087 147.346 145.047 147.777 143.962 147.777ZM143.962 140.247C143.282 140.247 142.617 140.449 142.051 140.827C141.485 141.205 141.044 141.742 140.784 142.371C140.524 142.999 140.456 143.691 140.588 144.358C140.721 145.025 141.049 145.638 141.53 146.119C142.011 146.6 142.624 146.928 143.291 147.061C143.958 147.194 144.65 147.125 145.278 146.865C145.907 146.605 146.444 146.164 146.822 145.598C147.2 145.032 147.402 144.367 147.402 143.687C147.402 142.775 147.039 141.9 146.394 141.255C145.749 140.61 144.874 140.247 143.962 140.247Z" fill="#E6E6E6"/>
<path d="M130.674 147.777C129.865 147.777 129.075 147.537 128.402 147.087C127.73 146.638 127.205 145.999 126.896 145.252C126.586 144.505 126.505 143.683 126.663 142.889C126.821 142.096 127.21 141.367 127.782 140.795C128.354 140.223 129.083 139.834 129.876 139.676C130.67 139.518 131.492 139.599 132.239 139.909C132.986 140.218 133.625 140.743 134.074 141.415C134.524 142.088 134.764 142.878 134.764 143.687C134.764 144.772 134.333 145.812 133.566 146.579C132.799 147.346 131.759 147.777 130.674 147.777ZM130.674 140.247C129.994 140.247 129.329 140.449 128.763 140.827C128.197 141.205 127.757 141.742 127.496 142.371C127.236 142.999 127.168 143.691 127.3 144.358C127.433 145.025 127.761 145.638 128.242 146.119C128.723 146.6 129.336 146.928 130.003 147.061C130.67 147.194 131.362 147.125 131.991 146.865C132.619 146.605 133.156 146.164 133.534 145.598C133.912 145.032 134.114 144.367 134.114 143.687C134.114 142.775 133.752 141.9 133.106 141.255C132.461 140.61 131.586 140.247 130.674 140.247Z" fill="#E6E6E6"/>
<path d="M122.075 312.696H336.616C337.936 312.693 339.201 312.167 340.135 311.233C341.068 310.3 341.594 309.035 341.598 307.715V154.185H117.093V307.715C117.097 309.035 117.623 310.3 118.556 311.233C119.49 312.167 120.755 312.693 122.075 312.696Z" fill="#F5F5F5"/>
<path d="M444.753 165.523H369.078C368.163 165.523 367.422 166.265 367.422 167.18V179.601C367.422 180.516 368.163 181.257 369.078 181.257H444.753C445.668 181.257 446.41 180.516 446.41 179.601V167.18C446.41 166.265 445.668 165.523 444.753 165.523Z" fill="#E6E6E6"/>
<path d="M500.988 138.846L369.078 139.674C368.639 139.674 368.217 139.848 367.907 140.159C367.596 140.47 367.422 140.891 367.422 141.33V153.764C367.428 154.203 367.607 154.621 367.919 154.928C368.232 155.236 368.652 155.408 369.091 155.408L501.001 154.58C501.438 154.576 501.856 154.4 502.163 154.09C502.471 153.78 502.644 153.361 502.644 152.924V140.489C502.644 140.272 502.601 140.058 502.518 139.857C502.434 139.657 502.312 139.476 502.158 139.323C502.004 139.17 501.822 139.049 501.621 138.967C501.42 138.885 501.205 138.844 500.988 138.846Z" fill="#F0F0F0"/>
<path d="M472.068 112.984H369.078C368.163 112.984 367.422 113.725 367.422 114.64V127.061C367.422 127.976 368.163 128.718 369.078 128.718H472.068C472.983 128.718 473.724 127.976 473.724 127.061V114.64C473.724 113.725 472.983 112.984 472.068 112.984Z" fill="#F0F0F0"/>
<path d="M104.493 367.86H78.2618C77.8185 367.86 77.4592 368.219 77.4592 368.663V377.504C77.4592 377.948 77.8185 378.307 78.2618 378.307H104.493C104.937 378.307 105.296 377.948 105.296 377.504V368.663C105.296 368.219 104.937 367.86 104.493 367.86Z" fill="#EBEBEB"/>
<path d="M124.533 350.61L78.0452 351.158C77.714 351.158 77.4592 351.655 77.4592 352.254V360.509C77.4592 361.108 77.7267 361.605 78.0452 361.605L124.546 361.044C124.865 361.044 125.132 360.547 125.132 359.949V351.693C125.12 351.158 124.852 350.61 124.533 350.61Z" fill="#EBEBEB"/>
<path d="M114.125 333.921H78.2618C77.8185 333.921 77.4592 334.28 77.4592 334.723V343.565C77.4592 344.008 77.8185 344.368 78.2618 344.368H114.125C114.568 344.368 114.928 344.008 114.928 343.565V334.723C114.928 334.28 114.568 333.921 114.125 333.921Z" fill="#EBEBEB"/>
<path d="M124.533 401.532L78.0452 402.118C77.714 402.118 77.4592 402.615 77.4592 403.214V411.469C77.4592 412.068 77.7267 412.565 78.0452 412.565L124.546 412.004C124.865 412.004 125.132 411.507 125.132 410.909V402.653C125.12 402.029 124.852 401.532 124.533 401.532Z" fill="#EBEBEB"/>
<path d="M114.125 384.843H78.2618C77.8185 384.843 77.4592 385.202 77.4592 385.645V394.487C77.4592 394.93 77.8185 395.289 78.2618 395.289H114.125C114.568 395.289 114.928 394.93 114.928 394.487V385.645C114.928 385.202 114.568 384.843 114.125 384.843Z" fill="#EBEBEB"/>
<path d="M278.5 605.711C414.923 605.711 525.516 599.255 525.516 591.29C525.516 583.325 414.923 576.868 278.5 576.868C142.077 576.868 31.4841 583.325 31.4841 591.29C31.4841 599.255 142.077 605.711 278.5 605.711Z" fill="#F5F5F5"/>
<path d="M559.796 116.882H319.188V356.292H559.796V116.882Z" fill="#1E3365"/>
<path opacity="0.1" d="M397.73 128.794H319.188V173.855H397.73V128.794Z" fill="black"/>
<path opacity="0.2" d="M397.73 218.917H319.188V263.978H397.73V218.917Z" fill="black"/>
<path opacity="0.1" d="M397.73 263.978H319.188V309.04H397.73V263.978Z" fill="black"/>
<path d="M397.73 128.794H555.808V347.336C555.808 348.884 555.193 350.368 554.099 351.462C553.005 352.556 551.521 353.171 549.973 353.171H403.565C402.017 353.171 400.533 352.556 399.439 351.462C398.345 350.368 397.73 348.884 397.73 347.336V128.794Z" fill="white"/>
<path opacity="0.3" d="M559.796 116.882H319.188V128.794H559.796V116.882Z" fill="black"/>
<path opacity="0.8" d="M328.565 125.265C329.901 125.265 330.985 124.181 330.985 122.844C330.985 121.508 329.901 120.424 328.565 120.424C327.228 120.424 326.144 121.508 326.144 122.844C326.144 124.181 327.228 125.265 328.565 125.265Z" fill="#1E3365"/>
<path opacity="0.8" d="M339.61 125.265C340.947 125.265 342.031 124.181 342.031 122.844C342.031 121.508 340.947 120.424 339.61 120.424C338.273 120.424 337.19 121.508 337.19 122.844C337.19 124.181 338.273 125.265 339.61 125.265Z" fill="#1E3365"/>
<path opacity="0.8" d="M350.643 125.265C351.98 125.265 353.064 124.181 353.064 122.844C353.064 121.508 351.98 120.424 350.643 120.424C349.306 120.424 348.222 121.508 348.222 122.844C348.222 124.181 349.306 125.265 350.643 125.265Z" fill="#1E3365"/>
<path opacity="0.2" d="M505.689 151.255H413.566C411.561 151.255 409.935 152.88 409.935 154.886V227.3C409.935 229.305 411.561 230.931 413.566 230.931H505.689C507.694 230.931 509.32 229.305 509.32 227.3V154.886C509.32 152.88 507.694 151.255 505.689 151.255Z" fill="#1E3365"/>
<path opacity="0.2" d="M543.527 144.923H472.769C471.228 144.923 469.979 146.172 469.979 147.713V203.336C469.979 204.877 471.228 206.126 472.769 206.126H543.527C545.068 206.126 546.317 204.877 546.317 203.336V147.713C546.317 146.172 545.068 144.923 543.527 144.923Z" fill="#1E3365"/>
<path opacity="0.2" d="M503.943 256.64H433.185C431.645 256.64 430.395 257.889 430.395 259.43V315.053C430.395 316.594 431.645 317.843 433.185 317.843H503.943C505.484 317.843 506.734 316.594 506.734 315.053V259.43C506.734 257.889 505.484 256.64 503.943 256.64Z" fill="#1E3365"/>
<path opacity="0.7" d="M559.796 116.882H319.188V356.292H559.796V116.882Z" fill="white"/>
<path d="M537.704 138.973H297.097V378.383H537.704V138.973Z" fill="#1E3365"/>
<path opacity="0.1" d="M375.639 150.885H297.097V195.947H375.639V150.885Z" fill="black"/>
<path opacity="0.2" d="M375.639 240.995H297.097V286.057H375.639V240.995Z" fill="black"/>
<path opacity="0.1" d="M375.639 286.057H297.097V331.118H375.639V286.057Z" fill="black"/>
<path d="M375.639 150.885H533.717V369.414C533.717 370.962 533.102 372.446 532.008 373.54C530.914 374.635 529.429 375.249 527.882 375.249H381.487C379.939 375.249 378.455 374.635 377.361 373.54C376.266 372.446 375.652 370.962 375.652 369.414V150.885H375.639Z" fill="white"/>
<path opacity="0.3" d="M537.704 138.973H297.097V150.885H537.704V138.973Z" fill="black"/>
<path opacity="0.8" d="M306.473 147.344C307.81 147.344 308.894 146.26 308.894 144.923C308.894 143.586 307.81 142.502 306.473 142.502C305.137 142.502 304.053 143.586 304.053 144.923C304.053 146.26 305.137 147.344 306.473 147.344Z" fill="#1E3365"/>
<path opacity="0.8" d="M317.519 147.344C318.856 147.344 319.94 146.26 319.94 144.923C319.94 143.586 318.856 142.502 317.519 142.502C316.182 142.502 315.098 143.586 315.098 144.923C315.098 146.26 316.182 147.344 317.519 147.344Z" fill="#1E3365"/>
<path opacity="0.8" d="M328.565 147.344C329.901 147.344 330.985 146.26 330.985 144.923C330.985 143.586 329.901 142.502 328.565 142.502C327.228 142.502 326.144 143.586 326.144 144.923C326.144 146.26 327.228 147.344 328.565 147.344Z" fill="#1E3365"/>
<path opacity="0.2" d="M483.61 173.346H391.487C389.482 173.346 387.857 174.971 387.857 176.977V249.391C387.857 251.396 389.482 253.022 391.487 253.022H483.61C485.616 253.022 487.241 251.396 487.241 249.391V176.977C487.241 174.971 485.616 173.346 483.61 173.346Z" fill="#1E3365"/>
<path opacity="0.2" d="M522.607 236.294H451.85C450.309 236.294 449.06 237.543 449.06 239.084V294.707C449.06 296.248 450.309 297.497 451.85 297.497H522.607C524.148 297.497 525.398 296.248 525.398 294.707V239.084C525.398 237.543 524.148 236.294 522.607 236.294Z" fill="#1E3365"/>
<path opacity="0.2" d="M481.865 278.731H411.107C409.566 278.731 408.317 279.98 408.317 281.521V337.144C408.317 338.685 409.566 339.934 411.107 339.934H481.865C483.406 339.934 484.655 338.685 484.655 337.144V281.521C484.655 279.98 483.406 278.731 481.865 278.731Z" fill="#1E3365"/>
<path opacity="0.5" d="M537.704 138.973H297.097V378.383H537.704V138.973Z" fill="white"/>
<path d="M515.626 161.052H275.018V400.462H515.626V161.052Z" fill="#1E3365"/>
<path opacity="0.1" d="M353.56 172.964H275.018V218.025H353.56V172.964Z" fill="black"/>
<path opacity="0.2" d="M353.56 263.086H275.018V308.148H353.56V263.086Z" fill="black"/>
<path opacity="0.1" d="M353.56 308.148H275.018V353.209H353.56V308.148Z" fill="black"/>
<path d="M353.56 172.964H511.638V391.506C511.638 393.053 511.024 394.537 509.929 395.631C508.835 396.726 507.351 397.34 505.803 397.34H359.395C357.848 397.34 356.364 396.726 355.27 395.631C354.175 394.537 353.56 393.053 353.56 391.506V172.964Z" fill="white"/>
<path opacity="0.3" d="M515.626 161.052H275.018V172.964H515.626V161.052Z" fill="black"/>
<path opacity="0.8" d="M284.395 169.435C285.732 169.435 286.816 168.351 286.816 167.014C286.816 165.677 285.732 164.593 284.395 164.593C283.058 164.593 281.974 165.677 281.974 167.014C281.974 168.351 283.058 169.435 284.395 169.435Z" fill="#1E3365"/>
<path opacity="0.8" d="M297.861 167.014C297.864 167.496 297.723 167.968 297.457 168.369C297.191 168.771 296.812 169.085 296.368 169.271C295.924 169.457 295.434 169.507 294.961 169.415C294.488 169.322 294.053 169.092 293.712 168.752C293.37 168.412 293.137 167.979 293.042 167.506C292.947 167.034 292.995 166.544 293.179 166.099C293.362 165.653 293.674 165.272 294.075 165.004C294.475 164.736 294.946 164.593 295.428 164.593C295.747 164.592 296.063 164.653 296.358 164.774C296.653 164.895 296.922 165.073 297.148 165.298C297.374 165.523 297.553 165.79 297.676 166.085C297.798 166.379 297.861 166.695 297.861 167.014Z" fill="#1E3365"/>
<path opacity="0.8" d="M306.473 169.435C307.81 169.435 308.894 168.351 308.894 167.014C308.894 165.677 307.81 164.593 306.473 164.593C305.137 164.593 304.053 165.677 304.053 167.014C304.053 168.351 305.137 169.435 306.473 169.435Z" fill="#1E3365"/>
<path opacity="0.2" d="M405.578 155.179H267.158C264.146 155.179 261.705 157.62 261.705 160.631V269.444C261.705 272.455 264.146 274.896 267.158 274.896H405.578C408.589 274.896 411.031 272.455 411.031 269.444V160.631C411.031 157.62 408.589 155.179 405.578 155.179Z" fill="#1E3365"/>
<path opacity="0.2" d="M480.451 213.668H374.136C371.821 213.668 369.944 215.545 369.944 217.859V301.434C369.944 303.749 371.821 305.625 374.136 305.625H480.451C482.766 305.625 484.642 303.749 484.642 301.434V217.859C484.642 215.545 482.766 213.668 480.451 213.668Z" fill="#1E3365"/>
<path opacity="0.2" d="M518.824 327.245H412.508C410.194 327.245 408.317 329.122 408.317 331.436V415.011C408.317 417.326 410.194 419.202 412.508 419.202H518.824C521.139 419.202 523.015 417.326 523.015 415.011V331.436C523.015 329.122 521.139 327.245 518.824 327.245Z" fill="#1E3365"/>
<path d="M184.286 275.236L175.037 294.639C171.979 301.111 168.985 307.621 166.323 314.067L165.367 316.475C165.227 316.845 165.189 316.921 165.087 317.24C164.985 317.558 164.908 317.813 164.832 318.17C164.496 319.692 164.245 321.231 164.08 322.782C163.724 326.107 163.52 329.623 163.392 333.152C163.138 340.223 163.074 347.472 162.985 354.644L156.003 355.421C154.406 348.181 153.249 340.851 152.538 333.47C152.155 329.661 151.977 325.833 152.003 322.004C152.01 319.933 152.155 317.865 152.436 315.813C152.5 315.278 152.627 314.666 152.754 314.08C152.882 313.494 153.098 312.717 153.239 312.233L154.118 309.519C156.5 302.347 159.277 295.505 162.195 288.766C165.112 282.026 168.234 275.414 171.597 268.828L184.286 275.236Z" fill="#AA6550"/>
<path d="M162.883 352.453L166.144 358.555L155.736 361.46C155.736 361.46 153.748 356.555 156.105 352.695L162.883 352.453Z" fill="#AA6550"/>
<path d="M170.145 367.359L160.564 368.11L155.736 361.46L166.144 358.555L170.145 367.359Z" fill="#AA6550"/>
<path d="M215.461 224.862C215.614 225.601 216.123 226.136 216.607 226.021C217.091 225.907 217.359 225.244 217.219 224.505C217.079 223.766 216.556 223.231 216.072 223.346C215.588 223.46 215.308 224.072 215.461 224.862Z" fill="#263238"/>
<path d="M216.059 226.136C217.4 228.216 219.021 230.102 220.875 231.741C220.446 232.206 219.92 232.572 219.335 232.812C218.749 233.051 218.118 233.16 217.486 233.13L216.059 226.136Z" fill="#A45D56"/>
<path d="M211.868 221.307C211.992 221.305 212.111 221.255 212.199 221.167C212.563 220.746 213.023 220.418 213.539 220.21C214.055 220.001 214.613 219.919 215.168 219.97C215.284 219.99 215.404 219.963 215.501 219.895C215.598 219.827 215.663 219.723 215.684 219.607C215.704 219.49 215.677 219.37 215.609 219.273C215.541 219.177 215.437 219.111 215.321 219.091C214.613 219.008 213.895 219.098 213.229 219.353C212.564 219.608 211.97 220.021 211.499 220.556C211.439 220.619 211.399 220.698 211.384 220.783C211.369 220.868 211.379 220.956 211.413 221.036C211.446 221.115 211.503 221.183 211.574 221.232C211.646 221.28 211.731 221.306 211.817 221.307H211.868Z" fill="#263238"/>
<path d="M194.389 235.27C195.726 242.112 197.077 254.661 192.287 259.222C192.287 259.222 194.159 266.178 206.874 266.178C220.888 266.178 213.562 259.234 213.562 259.234C205.918 257.4 206.122 251.743 207.447 246.418L194.389 235.27Z" fill="#AA6550"/>
<path d="M189.102 261.655C187.993 259.668 186.757 257.4 189.305 256.699C192.096 255.909 207.422 255.119 212.709 256.584C217.996 258.05 216.531 262.063 216.531 262.063L189.102 261.655Z" fill="#263238"/>
<path d="M149.582 572.358C150.369 572.543 151.198 572.411 151.888 571.989C152.011 571.844 152.087 571.665 152.105 571.476C152.123 571.287 152.083 571.097 151.99 570.931C151.932 570.794 151.845 570.67 151.735 570.569C151.625 570.468 151.495 570.392 151.353 570.345C150.079 569.874 147.276 571.364 147.149 571.428C147.112 571.448 147.082 571.477 147.062 571.513C147.041 571.549 147.032 571.591 147.034 571.632C147.037 571.675 147.054 571.717 147.081 571.751C147.108 571.785 147.145 571.81 147.187 571.823C147.966 572.08 148.768 572.259 149.582 572.358ZM150.945 570.702L151.213 570.766C151.296 570.792 151.373 570.836 151.437 570.896C151.5 570.955 151.55 571.028 151.582 571.11C151.748 571.492 151.582 571.632 151.582 571.683C151.124 572.154 149.225 571.963 147.862 571.568C148.813 571.054 149.866 570.758 150.945 570.702Z" fill="#1E3365"/>
<path d="M147.238 571.874C147.271 571.887 147.307 571.887 147.34 571.874C148.359 571.454 150.448 569.619 150.359 568.562C150.345 568.396 150.274 568.241 150.158 568.122C150.042 568.003 149.888 567.929 149.722 567.912C149.558 567.869 149.386 567.862 149.218 567.893C149.051 567.924 148.892 567.991 148.754 568.09C147.582 568.855 147.06 571.517 147.047 571.632C147.041 571.67 147.044 571.708 147.058 571.744C147.071 571.78 147.094 571.812 147.123 571.836C147.138 571.85 147.157 571.861 147.176 571.868C147.196 571.875 147.217 571.877 147.238 571.874ZM149.366 568.6H149.455C149.735 568.689 149.735 568.816 149.735 568.88C149.735 569.504 148.283 570.817 147.187 571.352C147.443 570.317 148.007 569.384 148.805 568.676C148.886 568.621 148.978 568.582 149.074 568.562C149.17 568.543 149.269 568.542 149.366 568.562V568.6Z" fill="#1E3365"/>
<path d="M217.181 581.276C218.378 581.276 219.538 581.111 219.92 580.563C220.023 580.422 220.079 580.253 220.079 580.079C220.079 579.904 220.023 579.735 219.92 579.594C219.764 579.335 219.512 579.147 219.219 579.072C217.665 578.652 214.391 580.524 214.25 580.601C214.208 580.616 214.172 580.644 214.146 580.68C214.121 580.717 214.107 580.76 214.107 580.805C214.107 580.849 214.121 580.893 214.146 580.929C214.172 580.966 214.208 580.994 214.25 581.009C215.217 581.183 216.198 581.272 217.181 581.276ZM218.658 579.454C218.802 579.434 218.948 579.434 219.092 579.454C219.181 579.472 219.266 579.508 219.341 579.561C219.415 579.614 219.478 579.682 219.525 579.76C219.678 580.04 219.627 580.18 219.525 580.257C219.092 580.856 216.722 580.868 214.989 580.626C216.129 580.023 217.375 579.647 218.658 579.518V579.454Z" fill="#1E3365"/>
<path d="M214.416 581.009C215.537 580.499 217.779 578.461 217.614 577.416C217.614 577.174 217.397 576.855 216.786 576.792C216.558 576.766 216.328 576.787 216.11 576.852C215.891 576.918 215.687 577.027 215.512 577.174C214.327 578.155 214.072 580.677 214.059 580.779C214.058 580.818 214.065 580.856 214.08 580.891C214.096 580.927 214.119 580.958 214.148 580.983C214.188 581.008 214.233 581.024 214.279 581.028C214.326 581.033 214.373 581.026 214.416 581.009ZM216.696 577.187H216.824C217.232 577.187 217.257 577.39 217.257 577.441C217.359 578.066 215.843 579.658 214.709 580.359C214.829 579.287 215.273 578.278 215.983 577.467C216.172 577.323 216.397 577.235 216.633 577.212L216.696 577.187Z" fill="#1E3365"/>
<path d="M204.058 580.792H213.422L214.352 559.121H204.988L204.058 580.792Z" fill="#AA6550"/>
<path d="M136.6 570.46L145.9 571.466L152.92 550.433L143.62 549.426L136.6 570.46Z" fill="#AA6550"/>
<path d="M146.677 570.46L136.231 569.326C136.046 569.307 135.86 569.35 135.703 569.45C135.545 569.549 135.426 569.699 135.364 569.874L132.638 577.951C132.572 578.147 132.55 578.355 132.576 578.56C132.602 578.765 132.674 578.961 132.787 579.134C132.9 579.307 133.051 579.452 133.228 579.559C133.405 579.665 133.604 579.729 133.81 579.747C137.466 580.091 139.263 580.066 143.862 580.563C146.69 580.868 152.487 581.837 156.398 582.219C160.309 582.601 161.227 578.843 159.672 578.32C152.665 575.976 150.206 573.517 148.13 571.199C147.751 570.785 147.235 570.522 146.677 570.46Z" fill="#2B2B2B"/>
<path d="M213.359 579.709H203.167C202.982 579.708 202.802 579.771 202.658 579.887C202.514 580.003 202.415 580.165 202.377 580.346L200.529 588.665C200.483 588.866 200.483 589.074 200.529 589.275C200.575 589.476 200.665 589.663 200.794 589.824C200.923 589.984 201.086 590.114 201.272 590.202C201.458 590.29 201.661 590.336 201.867 590.334C205.562 590.271 210.887 590.054 215.524 590.054C220.939 590.054 225.614 590.347 231.972 590.347C235.794 590.347 236.877 586.461 235.271 586.105C227.946 584.512 221.971 584.334 215.652 580.435C214.97 579.984 214.176 579.733 213.359 579.709Z" fill="#2B2B2B"/>
<path d="M227.309 264.012C229.959 264.84 232.927 265.745 235.768 266.56C238.609 267.375 241.527 268.076 244.419 268.7C250.048 270.026 255.781 270.866 261.554 271.21C262.93 271.21 264.293 271.299 265.605 271.21H266.408C266.574 271.21 266.854 271.21 267.083 271.146C267.593 271.07 268.179 270.942 268.79 270.79C271.502 270.044 274.162 269.12 276.753 268.025C282.231 265.783 287.849 263.158 293.404 260.623L297.29 266.471C292.461 270.737 287.269 274.574 281.772 277.937C278.869 279.748 275.813 281.299 272.638 282.574C271.731 282.935 270.804 283.241 269.86 283.491C269.325 283.619 268.841 283.746 268.243 283.848L267.389 283.988L266.726 284.065C264.943 284.294 263.197 284.383 261.465 284.434C254.787 284.491 248.122 283.851 241.578 282.523C238.38 281.886 235.208 281.249 232.086 280.332C228.965 279.415 225.933 278.612 222.684 277.44L227.309 264.012Z" fill="#AA6550"/>
<path d="M175.521 261.349C166.756 263.349 157.889 289.008 157.889 289.008L175.941 301.952C175.941 301.952 181.037 290.014 185.942 279.567C191.14 268.662 184.49 259.285 175.521 261.349Z" fill="#1E3365"/>
<path opacity="0.3" d="M175.521 261.349C166.756 263.349 157.889 289.008 157.889 289.008L175.941 301.952C175.941 301.952 181.037 290.014 185.942 279.567C191.14 268.662 184.49 259.285 175.521 261.349Z" fill="black"/>
<path d="M227.959 261.821C227.959 261.821 237.921 273.083 228.506 342.72H178.451C178.107 335.076 182.935 297.556 175.521 261.349C181.057 260.277 186.658 259.566 192.287 259.222C199.373 258.807 206.477 258.807 213.562 259.222C218.421 259.715 223.234 260.584 227.959 261.821Z" fill="#1E3365"/>
<path opacity="0.3" d="M227.959 261.821C227.959 261.821 237.921 273.083 228.506 342.72H178.451C178.107 335.076 182.935 297.556 175.521 261.349C181.057 260.277 186.658 259.566 192.287 259.222C199.373 258.807 206.477 258.807 213.562 259.222C218.421 259.715 223.234 260.584 227.959 261.821Z" fill="black"/>
<path opacity="0.3" d="M227.959 261.821C227.959 261.821 226.838 261.515 225.016 261.094C219.512 261.668 216.837 268 218.314 274.573C219.41 279.466 226.519 286.154 232.558 291.135C232.418 266.866 227.959 261.821 227.959 261.821Z" fill="black"/>
<path d="M215.69 276.191C220.162 283.937 244.61 291.479 244.61 291.479L252.814 269.49C252.814 269.49 238.8 265.668 227.933 261.846C214.492 257.018 210.811 267.681 215.69 276.191Z" fill="#1E3365"/>
<path opacity="0.3" d="M215.69 276.191C220.162 283.937 244.61 291.479 244.61 291.479L252.814 269.49C252.814 269.49 238.8 265.668 227.933 261.846C214.492 257.018 210.811 267.681 215.69 276.191Z" fill="black"/>
<path d="M291.812 262.751L293.366 253.005L302.004 255.476C302.004 255.476 303.278 264.152 296.984 266.713L291.812 262.751Z" fill="#AA6550"/>
<path d="M297.086 244.405L304.373 250.533L302.004 255.476L293.366 253.005L297.086 244.405Z" fill="#AA6550"/>
<path opacity="0.2" d="M214.34 559.121L213.868 570.294H204.504L204.976 559.121H214.34Z" fill="black"/>
<path opacity="0.2" d="M143.62 549.426L152.92 550.445L149.302 561.287L139.989 560.268L143.62 549.426Z" fill="black"/>
<path d="M190.465 228.302C192.873 237.283 193.828 242.66 199.383 246.38C207.715 251.998 218.085 245.552 218.404 236.048C218.697 227.486 214.722 214.249 205.09 212.44C202.971 212.046 200.786 212.196 198.741 212.876C196.695 213.556 194.856 214.744 193.394 216.329C191.933 217.914 190.898 219.844 190.385 221.938C189.873 224.032 189.9 226.221 190.465 228.302Z" fill="#AA6550"/>
<path d="M211.575 201.318C211.517 201.923 211.325 202.507 211.012 203.027C210.699 203.547 210.273 203.991 209.766 204.325C209.346 199.611 207.473 195.076 203.281 192.859C203.969 194.859 202.007 198.031 199.128 201.267C198.808 200.083 198.247 198.976 197.479 198.019C196.712 197.061 195.755 196.271 194.669 195.7C192.758 203.102 186.643 204.325 181.789 208.886C180.738 209.919 180.022 211.244 179.734 212.688C179.445 214.133 179.598 215.631 180.171 216.989C178.897 216.415 177.381 216.555 176.285 219.409C177.336 218.744 178.546 218.37 179.789 218.326C178.922 219.142 178.247 220.556 178.744 223.741C179.61 229.13 190.681 245.144 197.676 244.341C205.32 243.462 206.721 234.608 206.899 226.62L207.192 226.467C212.492 223.652 219.041 208.593 211.575 201.318Z" fill="black"/>
<path d="M203.269 228.455C204.226 230.555 205.846 232.282 207.88 233.372C210.581 234.774 212.085 232.722 211.486 230.034C210.938 227.601 208.938 223.957 206.097 223.664C203.256 223.371 202.147 225.907 203.269 228.455Z" fill="#AA6550"/>
<path d="M210.76 342.72C210.76 342.72 200.134 414.242 194.3 441.047C187.93 470.349 154.334 560.23 154.334 560.23L137.479 557.134C137.479 557.134 162.577 472.757 166.221 443.748C170.183 412.216 178.451 342.771 178.451 342.771L210.76 342.72Z" fill="#1E3365"/>
<path opacity="0.2" d="M204.046 368.2C191.764 370.608 193.064 416.408 194.542 439.964C198.083 423.313 203.269 391.272 206.81 368.531C205.953 368.109 204.978 367.992 204.046 368.2Z" fill="black"/>
<path d="M228.506 342.72C228.506 342.72 229.78 412.7 228.787 441.238C227.729 470.922 217.321 568.128 217.321 568.128H201.498C201.498 568.128 200.912 472.655 200.224 443.506C199.459 411.719 195.612 342.72 195.612 342.72H228.506Z" fill="#1E3365"/>
<path opacity="0.2" d="M214.684 556.65L213.996 556.573C216.786 529.679 223.385 464.603 224.188 441.276C225.041 417.376 224.264 363.97 224.009 348.172L224.697 348.096C224.952 363.894 225.729 417.325 224.876 441.264C224.073 464.629 217.474 529.743 214.684 556.65Z" fill="black"/>
<path d="M158.169 554.522C158.245 554.522 155.239 560.676 155.239 560.676L136.269 557.185L137.683 551.465L158.169 554.522Z" fill="#1E3365"/>
<path opacity="0.5" d="M158.169 554.522C158.245 554.522 155.239 560.676 155.239 560.676L136.269 557.185L137.683 551.465L158.169 554.522Z" fill="black"/>
<path d="M220.404 561.809C220.48 561.809 219.512 568.396 219.512 568.396H200.224L199.701 562.523L220.404 561.809Z" fill="#1E3365"/>
<path opacity="0.5" d="M220.404 561.809C220.48 561.809 219.512 568.396 219.512 568.396H200.224L199.701 562.523L220.404 561.809Z" fill="black"/>
<path d="M208.574 58.3505C226.074 70.3505 184.529 123.131 151.574 120.85C121.444 118.765 124.074 77.8505 101.574 61.8504C79.0744 45.8503 130.574 19.3503 151.574 2.85037C172.574 -13.6496 191.074 46.3505 208.574 58.3505Z" fill="#72DE81"/>
<path d="M183.183 149.581C186.632 151.963 178.445 162.438 171.951 161.986C166.014 161.572 166.532 153.451 162.098 150.276C157.665 147.1 167.813 141.841 171.951 138.566C176.089 135.291 179.735 147.199 183.183 149.581Z" fill="#72DE81"/>
<path d="M182.858 181.07C183.458 180.673 182.034 178.927 180.905 179.002C179.872 179.071 179.962 180.425 179.191 180.954C178.42 181.483 180.185 182.36 180.905 182.906C181.624 183.452 182.258 181.467 182.858 181.07Z" fill="#41D255"/>
<path d="M167.134 36.8749C167.134 36.8749 173.293 39.5331 172.729 43.9199C172.729 43.9199 178.223 51.8206 171.39 53.1604C171.39 53.1604 162.419 48.7539 167.134 36.8749Z" fill="black"/>
<path d="M161.854 106.09L165.033 100.805L166.83 94.2088C165.724 94.0931 164.567 94.0205 163.345 93.9948L160.979 80.036L142.632 74.555C142.632 74.555 147.386 91.874 144.343 96.3252C143.695 97.2682 143.558 96.5163 142.409 96.7957L146.068 103.604L153.889 109.614L161.854 106.09Z" fill="#AA6550"/>
<path opacity="0.2" d="M142.852 75.9027C142.852 75.9027 146.247 88.333 162.502 88.9498L161.252 81.6634L142.91 75.8886L142.852 75.9027Z" fill="black"/>
<path d="M173.393 53.6735C178.543 67.4936 177.63 80.5719 166.199 84.8473C154.769 89.1228 143.241 82.2439 138.091 68.4237C132.942 54.6036 133.33 40.1287 144.764 35.8678C156.198 31.607 168.247 39.8679 173.393 53.6735Z" fill="#AA6550"/>
<path d="M140.618 65.8997C142.192 61.2405 142.461 56.2391 141.394 51.4381C141.394 51.4381 145.925 49.7502 146.462 46.956C146.462 46.956 162.483 49.5234 167.731 42.996C167.731 42.996 179.815 35.7131 168.631 30.7522C168.631 30.7522 169.119 24.5978 160.583 23.8115C152.047 23.0253 147.969 26.3271 147.969 26.3271C147.969 26.3271 140.274 23.427 134.438 31.7758C134.438 31.7758 121.688 36.326 125.996 44.8543C125.996 44.8543 119.248 48.7599 123.8 54.8114C123.153 56.4579 123.104 58.2796 123.661 59.9586C124.219 61.6377 125.349 63.0678 126.853 63.9995C126.853 63.9995 129.559 75.1193 136.846 73.8078C136.788 73.822 146 83.0812 140.618 65.8997Z" fill="black"/>
<path d="M142.321 65.1158C144.633 67.3399 145.19 70.5763 143.616 72.1448C142.042 73.7133 138.848 73.3052 136.543 71.1101C134.238 68.915 133.692 65.7222 135.248 64.081C136.804 62.4398 140.009 62.8917 142.321 65.1158Z" fill="#AA6550"/>
<path d="M125.939 37.2161C126.253 36.8008 125.698 36.2277 125.369 36.6465C123.598 38.9867 123.011 41.7624 124.344 43.8244C123.45 43.5789 122.507 43.5732 121.61 43.8077C120.713 44.0422 119.894 44.5088 119.234 45.1604C118.895 45.5356 119.464 46.1052 119.819 45.7264C120.349 45.1918 121.009 44.8038 121.734 44.6003C122.459 44.3969 123.224 44.385 123.955 44.5658C122.108 45.2001 120.845 47.5398 120.349 49.6775C120.226 50.1847 121.016 50.3928 121.124 49.8892C121.713 47.3747 123.405 44.3302 126.119 45.4864C126.336 45.62 126.56 45.7401 126.792 45.8462C126.886 45.8988 126.998 45.9117 127.102 45.882C127.206 45.8524 127.294 45.7827 127.346 45.6882C127.399 45.5938 127.412 45.4823 127.382 45.3783C127.352 45.2744 127.283 45.1864 127.188 45.1339C126.96 44.9915 126.724 44.864 126.479 44.7521C123.635 42.9963 123.952 39.8089 125.939 37.2161Z" fill="black"/>
<path d="M158.834 61.5434C159.203 62.4238 159.99 62.9403 160.554 62.6645C161.119 62.3886 161.298 61.5443 160.93 60.6639C160.561 59.7836 159.77 59.2525 159.122 59.5641C158.475 59.8757 158.452 60.6666 158.834 61.5434Z" fill="#2B2B2B"/>
<path d="M169.271 59.0649C169.639 59.9452 170.412 60.4653 170.991 60.1859C171.569 59.9065 171.734 59.0658 171.362 58.1708C170.991 57.2759 170.206 56.7739 169.628 57.0533C169.049 57.3327 168.884 58.1735 169.271 59.0649Z" fill="#2B2B2B"/>
<path d="M166.248 60.755C168.477 63.0345 170.998 65.0096 173.744 66.6291C173.312 67.3015 172.739 67.8723 172.065 68.3022C171.39 68.732 170.631 69.0107 169.839 69.1191L166.248 60.755Z" fill="#7E5041"/>
<path d="M167.185 76.613C166.117 76.9044 164.762 77.1089 163.666 76.9548C162.569 76.8008 162.13 73.9865 161.184 73.412C161.128 73.3685 161.089 73.3076 161.072 73.239C161.056 73.1705 161.063 73.0983 161.092 73.0341C161.134 72.9721 161.197 72.9278 161.27 72.9101C161.342 72.8925 161.419 72.9026 161.484 72.9386C162.525 73.5496 163.693 73.9111 164.897 73.9948C166.101 74.0785 167.307 73.8821 168.422 73.421C168.486 73.381 168.563 73.3681 168.637 73.3849C168.71 73.4016 168.774 73.4468 168.814 73.5105C168.836 73.5414 168.851 73.5766 168.858 73.6138C168.866 73.6509 168.865 73.6892 168.857 73.7262C168.848 73.7631 168.832 73.7978 168.809 73.8281C168.786 73.8583 168.757 73.8835 168.724 73.9018L168.623 73.9265C168.283 74.0899 167.551 76.5226 167.185 76.613Z" fill="white"/>
<path d="M155.661 57.7428C155.569 57.7379 155.479 57.7125 155.397 57.6686C155.288 57.574 155.221 57.4406 155.209 57.2968C155.197 57.1531 155.241 57.0103 155.333 56.899C155.912 56.22 156.65 55.6943 157.481 55.3685C158.313 55.0427 159.211 54.9268 160.098 55.0311C160.169 55.0422 160.237 55.0676 160.298 55.1055C160.359 55.1435 160.412 55.1933 160.454 55.2521C160.496 55.3109 160.525 55.3774 160.54 55.4477C160.556 55.5181 160.557 55.5908 160.544 55.6616C160.533 55.7345 160.508 55.8046 160.469 55.8676C160.431 55.9307 160.38 55.9854 160.321 56.0286C160.261 56.0719 160.193 56.1027 160.121 56.1194C160.049 56.1361 159.975 56.1382 159.902 56.1257C159.213 56.0507 158.516 56.1427 157.869 56.3937C157.223 56.6448 156.647 57.0477 156.189 57.5683C156.126 57.6439 156.043 57.7004 155.95 57.7312C155.857 57.7621 155.757 57.7661 155.661 57.7428Z" fill="#2B2B2B"/>
<path d="M171.015 50.6721C171.088 50.6178 171.15 50.5505 171.198 50.4737C171.219 50.403 171.226 50.3289 171.218 50.2557C171.21 50.1824 171.187 50.1115 171.152 50.047C171.116 49.9826 171.067 49.926 171.01 49.8804C170.952 49.8349 170.885 49.8014 170.814 49.7819C169.958 49.5277 169.053 49.4878 168.178 49.6659C167.303 49.8439 166.485 50.2343 165.797 50.8028C165.741 50.8502 165.696 50.9084 165.664 50.974C165.631 51.0395 165.613 51.1109 165.609 51.1839C165.605 51.2568 165.616 51.3298 165.641 51.3983C165.667 51.4669 165.706 51.5296 165.756 51.5826C165.856 51.6878 165.992 51.7506 166.138 51.7583C166.283 51.7659 166.425 51.7178 166.536 51.6238C167.074 51.187 167.71 50.8866 168.389 50.7481C169.068 50.6096 169.771 50.637 170.437 50.8281C170.539 50.8567 170.646 50.8573 170.748 50.8299C170.85 50.8024 170.942 50.7479 171.015 50.6721Z" fill="#2B2B2B"/>
</svg>
